<?xml version="1.0" encoding="utf-8"?>
<!-- Generator: Adobe Illustrator 25.1.0, SVG Export Plug-In . SVG Version: 6.00 Build 0)  -->
<svg version="1.1" id="Layer_1" xmlns="http://www.w3.org/2000/svg" xmlns:xlink="http://www.w3.org/1999/xlink" x="0px" y="0px"
	 viewBox="0 0 74.6 72.4" style="enable-background:new 0 0 74.6 72.4;" xml:space="preserve">
<style type="text/css">
	.st0{display:none;}
	.st1{display:inline;fill:#FFFFFF;}
	.st2{fill:#FFFFFF;}
	.st3{fill-rule:evenodd;clip-rule:evenodd;fill:#FFFFFF;}
</style>
<g id="white_circle_1_" class="st0">
	<path id="white_circle" class="st1" d="M37.3,0.7C17.2,0.7,0.8,16.6,0.8,36.2s16.4,35.5,36.5,35.5s36.5-15.9,36.5-35.5
		S57.4,0.7,37.3,0.7z"/>
</g>
<g id="Logo">
	<path class="st2" d="M37.3,0C16.8,0,0,16.2,0,36.2s16.7,36.2,37.3,36.2s37.3-16.2,37.3-36.2S57.8,0,37.3,0z M37.3,70.3
		C17.9,70.3,2.1,55,2.1,36.2S17.9,2.1,37.3,2.1s35.2,15.3,35.2,34.1S56.7,70.3,37.3,70.3z"/>
	<g>
		<path class="st2" d="M9.6,24.7l-0.2-0.1l-0.1,0.3C7.8,28.6,7,32.4,7,36.4c0,3,0.5,6,1.3,8.9l0.1,0.2l0.2-0.1L9.9,45l0.2-0.1
			L10,44.7c-0.8-2.7-1.3-5.5-1.3-8.4c0-3.7,0.7-7.3,2.1-10.8l0.1-0.2l0-0.1L9.6,24.7z"/>
		<path class="st2" d="M65.3,24.9l-0.1-0.2L65,24.8l-1.3,0.4l-0.2,0.1l0.1,0.2c1.4,3.4,2.1,7.1,2.1,10.8c0,2.9-0.4,5.7-1.3,8.4
			l-0.1,0.2l0.2,0.1l1.3,0.4l0.2,0.1l0.1-0.2c0.9-2.9,1.3-5.9,1.3-8.9C67.6,32.4,66.8,28.5,65.3,24.9z"/>
	</g>
	<g>
		<path class="st2" d="M60.7,23.8l2.4-1.9l-0.8-1l-1.5,1.3l-1.2-1.5l3.4-2.6l0.6,0.7l0.9-0.7l-2.2-2.8L61.4,16l0.6,0.7l-3.4,2.6
			L58,18.6l-0.9,0.7L60.7,23.8z M54.9,10.9l-1.7,2.4c-0.3,0.4-0.5,0.7-0.6,1c-0.1,0.2-0.1,0.4-0.1,0.7c0,0.3,0.1,0.6,0.3,0.9
			c0.2,0.3,0.5,0.6,0.9,0.9c0.3,0.2,0.7,0.4,1,0.5c0.3,0.1,0.6,0.1,0.9,0c0.3-0.1,0.5-0.2,0.6-0.3c0.2-0.1,0.4-0.4,0.6-0.7l1.9-2.6
			l0.6,0.5l0.6-0.9l-2.1-1.5l-0.6,0.9l0.5,0.4L56,15.2c-0.3,0.4-0.5,0.6-0.6,0.8c-0.1,0.1-0.3,0.2-0.5,0.2s-0.4-0.1-0.5-0.2
			c-0.2-0.1-0.3-0.3-0.3-0.4c0-0.2,0-0.3,0-0.5c0.1-0.2,0.2-0.4,0.4-0.7l1.7-2.4l0.5,0.4l0.6-0.9l-2.5-1.8l-0.6,0.9L54.9,10.9z
			 M48,13.5l0.4-1l-0.9-0.4l0.6-1.6l1.3,0.5l0.4-1l-1.3-0.5L49,8.1l1.8,0.7l-0.3,0.8l1.1,0.5l0.7-1.9l-5.4-2.1l-0.4,1l0.9,0.3
			l-1.6,4l-0.9-0.3l-0.4,1L48,13.5z M39.7,11.4l0.1-1.1l-0.7-0.1l0.2-1.7L41,8.7l-0.2,1.7l-0.6-0.1l-0.1,1.1l3.1,0.4l0.1-1.1
			l-0.8-0.1L43,6.4l0.8,0.1l0.1-1.1L40.8,5v1.2l0.6,0.1l-0.2,1.4l-1.7-0.2l0.2-1.4l0.7,0.1l0.1-1.1l-3.1-0.4l-0.1,1.1l0.8,0.1
			l-0.5,4.2L36.8,10l-0.1,1.1L39.7,11.4z M33.9,11.5l-0.2-1.1l-1,0.2l-0.8-4.2l1-0.2l0.3,1.5l1.1-0.2l-0.5-2.6l-5.8,1l0.5,2.6
			l1.1-0.2l-0.3-1.5l1-0.2l0.8,4.2l-1,0.2l0.2,1.2L33.9,11.5z M27.9,13l-0.4-1l-0.9,0.4l-1.6-4L25.9,8l-0.4-1l-3.4,1.3l0.4,1
			l0.9-0.4l1.6,4l-0.9,0.4l0.4,1L27.9,13z M18.4,14.7l-0.7-1.9l1.6,1.3L18.4,14.7z M22.2,14.5l-3.6-2.7l0.7-0.5l-0.6-0.9l-3.4,2.4
			l0.6,0.9l0.7-0.5l1.5,4.2l-0.6,0.5l0.6,0.9l2.3-1.7l-0.7-0.9L19,16.7l-0.4-1.1l1.4-1l0.9,0.7l-0.6,0.6l0.6,0.9l2.6-1.8l-0.6-0.9
			L22.2,14.5z M16.4,20.9l-0.8-0.7L15,21l-1.3-1.1l0.9-1.1l-0.8-0.7l-0.9,1.1l-1.1-1l1.3-1.5l0.7,0.6l0.8-0.9l-1.5-1.3l-3.8,4.4
			l0.8,0.7l0.6-0.7l3.2,2.8L13.3,23l0.8,0.7L16.4,20.9z"/>
		<path class="st2" d="M64.9,53.1l-0.5-0.3c0.5,0,0.9-0.3,1.3-0.7c0.3-0.4,0.4-0.9,0.3-1.4s-0.4-0.9-0.9-1.3
			c-0.3-0.2-0.6-0.3-0.9-0.3c-0.3,0-0.6,0-0.9,0.1s-0.6,0.3-1.1,0.6s-0.8,0.4-0.9,0.5c-0.2,0-0.3,0-0.4-0.1s-0.2-0.2-0.2-0.4
			s0-0.3,0.1-0.5s0.3-0.3,0.5-0.4c0.2-0.1,0.5,0,0.8,0.1l0.6-0.9l-1.5-0.9l-0.6,0.9l0.4,0.3c-0.5,0-0.9,0.2-1.2,0.7
			c-0.2,0.4-0.3,0.8-0.3,1.3c0.1,0.5,0.3,0.9,0.8,1.2c0.4,0.3,0.8,0.4,1.1,0.3c0.4-0.1,0.9-0.3,1.6-0.7c0.3-0.2,0.6-0.3,0.8-0.3
			c0.2,0,0.4,0,0.5,0.1c0.2,0.1,0.2,0.2,0.3,0.4c0,0.2,0,0.4-0.1,0.5c-0.1,0.2-0.3,0.3-0.6,0.4c-0.3,0.1-0.6,0-0.9-0.2L62.4,53
			l1.8,1.2L64.9,53.1z M55.3,56l0.3-0.3c0.3-0.3,0.6-0.5,0.9-0.7c0.3-0.1,0.6-0.1,1,0s0.7,0.4,1.1,0.7c0.4,0.4,0.6,0.7,0.7,1.1
			c0.1,0.3,0.1,0.7,0,1s-0.3,0.6-0.7,1L58.3,59L55.3,56z M59.5,59.4c0.4-0.4,0.7-0.7,0.8-0.9c0.2-0.2,0.3-0.5,0.4-0.8s0.2-0.7,0.2-1
			s-0.1-0.7-0.3-1.1c-0.2-0.4-0.4-0.8-0.7-1.1c-0.4-0.4-0.8-0.7-1.3-0.8c-0.5-0.2-0.9-0.2-1.4-0.2s-0.8,0.2-1.2,0.4
			c-0.3,0.2-0.7,0.6-1.2,1l-2.2,2.2l0.8,0.8l0.7-0.7l3,3l-0.7,0.7l0.8,0.8L59.5,59.4z M48.4,60l0.7-0.3c0.3-0.1,0.5-0.2,0.7-0.1
			c0.2,0,0.4,0.2,0.5,0.4c0.2,0.5,0,0.8-0.6,1.2l-0.5,0.3L48.4,60z M53.3,62.3L51.5,61c0.5-0.6,0.6-1.3,0.3-1.9
			c-0.2-0.4-0.5-0.7-1-0.9c-0.5-0.2-1-0.1-1.7,0.2l-3.5,1.8l0.5,1l0.8-0.4l1.9,3.8L48,65l0.5,1l3-1.5l-0.5-1l-0.7,0.4l-0.8-1.5
			l0.7-0.3l2.6,1.9l1.8-0.9l-0.5-1L53.3,62.3z M41.2,63.9l0.3-2l0.8,1.8L41.2,63.9z M44.8,65.4l-2-4l0.9-0.1l-0.2-1.1l-4.2,0.6
			l0.2,1.1l0.8-0.1l-0.6,4.4l-0.8,0.1l0.2,1.1l2.8-0.4l-0.2-1.1L40.8,66l0.2-1.1l1.7-0.3l0.5,1l-0.8,0.1l0.2,1.1l3.1-0.5l-0.2-1.1
			L44.8,65.4z M31.1,66.7l1.3-2.8l0.7,3l1.2,0.1l2.4-5.2l0.7,0.1l0.1-1.1l-2.6-0.3l-0.1,1.1l0.6,0.1l-1.4,3l-0.7-3.2l0.6,0.1
			l0.1-1.1l-2.2-0.3l-0.1,1.1l0.6,0.1l-1.3,3l-0.7-3.2l0.7,0.1l0.1-1.1l-2.9-0.3L28.1,61l0.7,0.1l1.2,5.6L31.1,66.7z M24.7,64.8
			l0.9-1.9l-1.1-0.5l-0.4,0.9l-1.8-0.8L23,61l1.5,0.7l0.5-1L23.5,60l0.6-1.4l1.8,0.8l-0.4,0.9l1.1,0.5l0.9-1.9l-5.2-2.4l-0.5,1
			l0.7,0.3l-1.8,3.9L20,61.4l-0.5,1L24.7,64.8z M16.2,59.5l0.7-0.8l-0.7-0.6l2.8-3.2l0.8,0.7l-1,1.1l0.8,0.7l1.7-2l-4.4-3.8l-1.7,2
			l0.8,0.7l1-1.1l0.7,0.6L14.9,57l-0.7-0.6l-0.7,0.8L16.2,59.5z M8.9,51.2l0.4-0.3c-0.2,0.5-0.1,1,0.3,1.4c0.3,0.4,0.7,0.7,1.2,0.8
			s1,0,1.5-0.4c0.3-0.2,0.5-0.5,0.6-0.7c0.1-0.3,0.2-0.6,0.2-0.9c0-0.3-0.1-0.7-0.2-1.2s-0.2-0.9-0.1-1c0-0.2,0.1-0.3,0.2-0.3
			c0.1-0.1,0.3-0.1,0.4-0.1c0.2,0,0.3,0.1,0.4,0.3s0.2,0.4,0.2,0.6c0,0.2-0.2,0.5-0.4,0.7l0.6,0.9l1.6-1.2l-0.6-0.9l-0.4,0.3
			c0.2-0.5,0.1-0.9-0.2-1.3c-0.3-0.4-0.6-0.6-1.1-0.7c-0.5-0.1-0.9,0-1.4,0.3c-0.4,0.3-0.6,0.6-0.7,1s0,1,0.1,1.8
			c0.1,0.4,0.1,0.7,0.1,0.9s-0.1,0.3-0.3,0.5c-0.2,0.1-0.3,0.1-0.5,0.1s-0.3-0.1-0.5-0.3c-0.1-0.2-0.2-0.4-0.2-0.7s0.2-0.5,0.5-0.8
			L10,49.1l-1.8,1.3L8.9,51.2z"/>
	</g>
	<g>
		<path class="st2" d="M56.1,32.5c-0.2-0.3-0.5-0.3-0.6-0.3s-0.1,0-0.1,0l0,0l0,0h-0.1h-0.1l-0.1-0.1H55C54.8,32,54.7,32,54.6,32
			h-0.3h-0.1h-0.1l0,0H54h-0.1c-0.1,0-0.1,0-0.2,0c-0.7,0.1-1.3,0.2-1.8,0.6c-1,0.4-1.8,1.3-2.1,2.3c0,0.1,0,0.2,0,0.3
			c0,0.5,0.2,0.8,0.6,1c0.2,0.1,0.3,0.1,0.5,0.1c0.3,0,0.5-0.1,0.7-0.2l0,0l0.1-0.1c0.1-0.1,0.2-0.1,0.2-0.3l0,0l0,0
			c-0.1,0-0.1,0-0.1-0.1c0,0-0.1-0.1-0.2-0.1c-0.2-0.1-0.3-0.4-0.3-0.6c0,0,0,0,0-0.1c0,0,0,0,0-0.1s0.2-0.6,0.3-0.6
			c0.1-0.1,0.2-0.1,0.2-0.2c0.1-0.2,0.2-0.4,0.7-0.7c0.1,0,0.2-0.1,0.3-0.1C52.9,33,53,33,53.1,33c0,0,0.1,0,0.2,0l0,0l0,0h0.1h0.1
			c0.1,0,0.3-0.1,0.5-0.1c0.1,0,0.2,0,0.2,0s0.1,0,0.1,0.1c0.1,0,0.1,0.1,0.2,0.1c0.2,0.2,0.5,0.4,0.5,0.9c0,0.1,0,0.2,0,0.3
			c-0.5,1.3-1.1,2-2.2,2.8c-0.2,0.1-0.3,0.2-0.4,0.3c-0.1,0.1-0.1,0.2-0.2,0.2c-0.5,0.4-1,0.7-1.5,1c-0.2,0.1-0.4,0.3-0.7,0.4l0,0
			c-0.1,0.2-0.8,0.6-1.1,0.7l0,0c-0.3,0.2-0.6,0.4-0.9,0.6c-0.4,0.3-0.7,0.5-1.3,0.9s-1,0.8-1.4,1.2c-0.3,0.3-0.6,0.6-0.9,0.8
			l-0.1,0.1c-0.3,0.3-0.5,0.6-0.6,1l0,0l0,0c0,0.2,0.2,0.3,0.4,0.3h0.1c0.3,0,0.5,0,0.8,0c0.5,0,0.9,0,1.3-0.1l0,0
			c0.1-0.1,0.2-0.1,0.4-0.1c0.3,0,0.5,0,0.7,0.1c0.1,0,0.1,0,0.1,0l0,0c0.2,0,0.3,0,0.5,0c0.1,0,0.3,0,0.4,0H49c0.2,0,0.5,0,0.7,0
			h0.1H50c0.4,0,0.9-0.1,1.1-0.3l0,0c0.1-0.1,0.2-0.2,0.2-0.3c0.1-0.1,0.3-0.3,0.3-0.5v-0.1c0.1-0.1,0.2-0.2,0.3-0.2l0,0l0,0
			c0.1-0.2,0.3-0.3,0.4-0.5c0.3-0.4,0.7-0.8,0.7-1.2l0,0l0,0l0,0h-0.1c-0.1,0-0.1,0-0.2,0.1c-0.1,0-0.1,0.1-0.2,0.1l0,0
			c-0.3,0.1-0.5,0.3-0.8,0.5c-0.5,0.3-1,0.7-1.5,0.9c0,0,0,0-0.1,0H50c-0.1,0-0.2,0-0.3-0.1l0,0l0,0c-0.2,0-0.5,0-0.7,0.1
			c-0.2,0-0.5,0.1-0.8,0.1c-0.2,0-0.3,0-0.4-0.1h-1.2l-0.1-0.1v-0.1c0.9-1.2,2-2.1,3.3-2.9h0.1c0.3,0,0.5-0.2,0.7-0.4
			s0.4-0.4,0.6-0.4h0.1l0,0c0.3-0.2,0.6-0.4,0.9-0.6c0.2-0.1,0.4-0.3,0.6-0.4c0.3-0.2,0.6-0.4,0.9-0.6c0.4-0.2,0.8-0.5,1.1-0.8l0,0
			c0.1-0.2,0.2-0.2,0.3-0.3c0.2-0.1,0.3-0.2,0.4-0.4c0.4-0.4,0.6-0.8,0.8-1.2l0,0l0,0l0,0c0,0,0,0,0-0.1s0.1-0.2,0.1-0.3
			c0,0,0,0,0-0.1l0,0l0,0v-0.1v-0.1c0-0.1,0-0.2,0-0.2C56.6,33.3,56.4,32.8,56.1,32.5z"/>
		<path class="st2" d="M43.9,40.7L43.9,40.7c0-0.1,0-0.2,0-0.2c0-0.1,0-0.2,0-0.3s0-0.2,0-0.3s0-0.1,0-0.2l0,0l0,0
			c-0.1-0.1-0.3-0.2-0.3-0.3v-0.1l0,0l0,0c0-0.5-0.3-0.8-0.5-1.1c-0.1-0.1-0.2-0.3-0.3-0.4c0,0-0.1-0.1-0.1-0.2
			c-0.1-0.1-0.2-0.2-0.2-0.3s0-0.1,0.1-0.2c0.3-0.1,0.4-0.2,0.7-0.3c0.3,0,0.6-0.1,0.8-0.2c0.2-0.1,0.4-0.1,0.7-0.2
			c0.1,0,0.3-0.2,0.4-0.3l0,0c0-0.1,0.2-0.1,0.3-0.1s0.3,0,0.4-0.1l0,0c0-0.2,0.1-0.3,0.3-0.3c0.1,0,0.2-0.1,0.3-0.2l0,0
			c0-0.1,0.1-0.1,0.1-0.2c0.2-0.3,0.5-0.7,0.6-1.2c0-0.1,0-0.2,0-0.3c0-0.2-0.1-0.4-0.1-0.5S47,33.1,47,33l0,0
			c-0.4-0.5-0.9-0.7-1.6-0.8l0,0c-0.1-0.1-0.7-0.1-0.8-0.1c-0.2,0-0.4,0-0.6,0c-0.1,0-0.2,0-0.2,0c-0.2,0-0.4,0.1-0.6,0.1l0,0l0,0
			c0,0-0.2,0-0.3,0l0,0c-0.7,0.3-1.2,0.5-1.7,1l0,0l0,0c0,0.2-0.1,0.3-0.3,0.3c-0.1,0-0.1,0.1-0.2,0.1l0,0c-0.1,0.1-0.2,0.3-0.3,0.4
			c-0.2,0.2-0.3,0.4-0.4,0.7c0,0.1,0,0.1,0,0.2c0,0.7,0.4,1.2,0.7,1.6c0.2,0.3,0.4,0.5,0.5,0.8v0.1c0,0.2,0.2,0.4,0.3,0.5
			s0.2,0.2,0.2,0.3c0.1,0.4,0.2,0.7,0.3,1c0.1,0.2,0.2,0.5,0.3,0.9l0,0c0,0.1,0,0.2,0,0.3c0,0.8-0.4,1.5-0.9,1.9l-0.1,0.1
			c-0.3,0.2-0.8,0.8-1.6,0.9l0,0c-0.3,0.2-0.5,0.2-0.7,0.2c-0.1,0-0.1,0-0.2,0c0,0,0,0-0.1,0s-0.1,0-0.2,0c-0.1,0-0.2,0-0.3,0
			c-0.7,0-1.4-0.4-1.7-1c-0.1-0.1-0.1-0.3-0.1-0.5c0-0.6,0.2-1.1,0.3-1.1c0.2-0.1,0.3-0.3,0.3-0.5c0-0.1,0.1-0.2,0.2-0.3
			c0.1,0,0.2-0.2,0.4-0.4c0.2-0.3,0.5-0.6,0.8-0.8l0,0l0,0c0-0.2,0.2-0.3,0.4-0.4c0.1-0.1,0.2-0.1,0.2-0.2c0.1-0.1,0.3-0.1,0.4-0.2
			c0,0,0,0,0.1,0s0.1-0.1,0.2-0.1c0.2-0.1,0.4-0.2,0.5-0.3l0,0c0-0.1-0.1-0.1-0.4-0.1c-0.2,0-0.6,0-0.8,0.1
			c-0.5,0.1-0.8,0.3-1.2,0.5h-0.1c-0.1,0.1-0.3,0.2-0.4,0.2c-0.1,0.1-0.2,0.1-0.3,0.2c-0.6,0.4-1.1,0.8-1.4,1.3
			c-0.4,0.6-0.8,1.3-0.8,2.1c0,0.2,0,0.3,0,0.5l0,0c0,0,0,0.1,0.1,0.1c0.1,0.1,0.1,0.2,0.2,0.4c0.3,0.7,0.8,1,1.8,1.1H37h0.1
			c0.1,0,0.2,0.1,0.2,0.1l0,0l0,0c0,0,0.1,0,0.1,0.1c0,0,0.1,0.1,0.2,0.1l0,0c0,0,0,0,0.1,0s0.2-0.1,0.4-0.1c0.1,0,0.2,0,0.2,0l0,0
			c0.2,0,0.4,0,0.6,0H39c0.1,0,0.1,0,0.2,0c0.3,0,0.6-0.1,0.7-0.2c0.2-0.1,0.4-0.2,0.7-0.2c0.2,0,0.4-0.1,0.6-0.1
			c0.2-0.1,0.4-0.2,0.5-0.3s0.3-0.2,0.4-0.2c0.2,0,0.3-0.2,0.4-0.3c0.1-0.1,0.2-0.2,0.3-0.2s0.2-0.1,0.2-0.2c0,0,0,0,0-0.1v-0.1
			c0-0.1,0-0.2,0.1-0.2C43.7,42.1,43.8,41.4,43.9,40.7L43.9,40.7z M43.7,35.9c-0.4,0.1-0.7,0.2-1,0.3s-0.5,0.2-0.6,0.1
			C42,36.2,42,36,41.9,35.9c-0.2-0.3-0.4-0.6-0.4-1c0-0.1,0-0.2,0-0.2c0-0.4,0.2-0.6,0.4-0.7c0.1-0.1,0.3-0.3,0.4-0.4
			c0.1,0,0.1-0.1,0.1-0.1c0.1-0.1,0.2-0.2,0.4-0.2l0,0c0.1,0,0.2-0.1,0.2-0.1c0.1,0,0.1-0.1,0.2-0.1c0.1,0,0.2-0.1,0.3-0.1
			c0.1-0.1,0.2-0.1,0.4-0.1l0,0c0,0,0,0,0.1,0h0.1h0.1c0.1,0,0.2,0,0.3,0s0.4,0,0.6,0.1c0.4,0.2,0.6,0.5,0.6,0.9
			c-0.1,0.8-0.5,1.5-1.3,1.9c-0.1,0-0.2,0.1-0.2,0.1C44,35.6,43.9,35.7,43.7,35.9z"/>
		<path class="st2" d="M27.3,36.4c0-0.1,0.1-0.2,0.2-0.3c0.2-0.3,0.5-0.7,0.6-0.8c0.1,0,0.1,0,0.1-0.1l0.1-0.1l0,0l0,0
			c0-0.4,0.3-0.5,0.4-0.6l0,0l0,0c0-0.3,0.2-0.4,0.4-0.6c0.1-0.1,0.2-0.2,0.3-0.3l0.6-0.7l0,0c0-0.1,0.1-0.2,0.1-0.2
			c0.1-0.2,0.2-0.3,0.2-0.5c0-0.1,0-0.2-0.1-0.3l0,0c-0.1-0.1-0.3-0.1-0.4-0.1c-0.4,0-0.7,0.1-1,0.3c0,0-0.1,0-0.2,0
			c-0.2,0-0.3,0.1-0.5,0.1c-0.1,0-0.1,0.1-0.2,0.1c0,0-0.1,0-0.1,0.1c-0.2,0.1-0.5,0.2-0.7,0.3l0,0c-0.1,0-0.1,0-0.1,0.1
			c-0.1,0.1-0.2,0.1-0.3,0.1l0,0l0,0c-0.2,0.2-0.5,0.3-0.8,0.4c-0.5,0.2-0.9,0.4-1.2,0.7c0,0.1-0.1,0.2-0.1,0.3c0,0,0,0,0,0.1
			c0,0,0,0,0,0.1l0,0l0,0l0,0c0,0,0.1,0.1,0.2,0.1l0,0c0.3-0.1,0.5-0.2,0.7-0.3c0.3-0.1,0.5-0.3,0.9-0.3c0.1,0,0.2,0,0.2,0l0,0l0,0
			c0.1-0.1,0.3-0.2,0.3-0.2c0.2-0.1,0.4-0.1,0.6-0.2l0,0c0.1,0,0.1,0,0.1,0.1c-0.1,0.1-0.1,0.3-0.2,0.4c-0.1,0.2-0.2,0.4-0.4,0.6
			c-0.2,0.3-0.4,0.6-0.6,0.8c-0.4,0.6-0.9,1.1-1.1,1.8c-0.3,0.4-0.6,0.9-0.9,1.3c-0.3,0.5-0.7,1.1-1.1,1.6c-0.3,0.3-0.5,0.7-0.7,1.1
			c0,0.1-0.1,0.1-0.1,0.2c-0.3,0.3-0.5,0.7-0.8,1.1c-0.4,0.6-0.8,1.2-1.3,1.7l0,0v0.1c0,0.1,0.1,0.2,0.1,0.2l0,0l0,0
			c0.2,0.1,0.5,0.1,0.7,0.1s0.4,0,0.6-0.1c0.1-0.1,0.2-0.1,0.2-0.1c0.2-0.1,0.3-0.1,0.4-0.3l0,0c0.1-0.4,0.4-0.9,0.7-1.2l0,0l0,0
			c0,0,0,0,0-0.1l0,0c0-0.2,0.1-0.3,0.3-0.5c0.1-0.1,0.2-0.2,0.3-0.4c0-0.4,0.1-0.7,0.4-0.8l0,0l0,0c0.2-0.4,0.4-0.8,0.7-1.2
			c0.1-0.2,0.2-0.4,0.4-0.6c0-0.1,0.1-0.1,0.1-0.2c0.1-0.1,0.2-0.2,0.2-0.4c0.3-0.5,0.5-0.9,0.8-1.3C26.8,37.1,27.1,36.8,27.3,36.4z
			"/>
		<path class="st2" d="M35.3,39.5L35.3,39.5C35.3,39.5,35.3,39.4,35.3,39.5C35.3,39.4,35.3,39.4,35.3,39.5c0-0.3,0.1-0.3,0.3-0.4
			c0.1,0,0.1-0.1,0.2-0.1l0,0c0.1-0.2,0.1-0.3,0.2-0.4c0.1-0.1,0.1-0.2,0.2-0.4l0,0c0-0.3,0.1-0.4,0.2-0.5c0.1-0.1,0.2-0.2,0.2-0.4
			c0,0,0-0.1,0-0.2c0.3-0.3,0.4-0.7,0.5-1c0-0.1,0.1-0.3,0.1-0.4l0,0l0,0c-0.1,0-0.1-0.1-0.1-0.1c0-0.1,0.1-0.2,0.2-0.3l0,0l0,0
			c0.1-0.2,0.1-0.5,0.1-0.7v-0.1c0-0.8-0.5-1.8-1.3-2.1h-0.2c-0.3-0.2-0.7-0.3-1-0.3c-0.2,0-0.4,0-0.4,0.1c-1.4,0.1-2.4,0.6-3,1.4
			c-0.3,0.1-0.5,0.4-0.7,0.7c-0.1,0.1-0.2,0.2-0.3,0.3c-0.1,0.3-0.3,0.5-0.4,0.7c-0.3,0.5-0.6,1-0.7,1.7c-0.1,0.1-0.1,0.2-0.2,0.3
			l0,0l0,0c0.1,0.1,0.1,0.2,0.1,0.3s0,0.1,0,0.2c0,0.1,0,0.1,0,0.2c0,0.1,0,0.1,0,0.2c0.2,0.8,0.5,1.2,1.1,1.5c0,0,0,0,0.1,0h0.1
			c0.1,0,0.2,0.1,0.3,0.1l0,0c0.2,0,0.3,0,0.4,0c0.4,0,0.6-0.1,0.8-0.2c0.1,0,0.1-0.1,0.1-0.1l0,0c0-0.3,0.1-0.3,0.1-0.3
			c0.2-0.1,0.3-0.1,0.6-0.3c0.3-0.1,0.9-0.5,0.9-0.7l0.1-0.1c0.2-0.2,0.5-0.5,0.6-1.1l0,0h-0.2l0,0c-0.4,0.3-0.6,0.6-0.8,0.7
			c-0.2,0.2-0.3,0.2-0.3,0.3s-0.9,0.6-1.7,0.6c0,0,0,0-0.1,0s-0.1,0-0.2,0h-0.1c-0.1,0-0.1-0.1-0.2-0.1h-0.1
			c-0.1-0.1-0.2-0.2-0.2-0.3l0,0c0-0.1-0.1-0.1-0.1-0.2l0,0v-0.1c0-0.1,0-0.2,0-0.2c0-0.1,0-0.2,0-0.2c0-0.1,0-0.2,0.1-0.3l0,0v-0.1
			c0-0.1,0-0.1-0.1-0.2l0,0c0.1-0.9,0.9-2.1,1.1-2.2c0.2,0,0.3-0.2,0.4-0.3c0.1-0.1,0.1-0.2,0.2-0.3c0.3-0.1,0.4-0.2,0.6-0.4
			c0.1-0.1,0.1-0.1,0.2-0.2c0.2-0.2,0.4-0.2,0.7-0.2l0,0c0.4-0.2,0.7-0.3,1-0.3c0.1,0,0.2,0,0.3,0c0.4,0.1,0.8,0.5,0.9,0.9
			c0,0.1,0,0.2,0,0.4c0,1.2-0.4,2.2-1,3.3c-0.1,0.4-0.3,0.7-0.5,1c-0.1,0.2-0.2,0.3-0.3,0.5s-0.2,0.3-0.3,0.5
			c-0.2,0.3-0.4,0.6-0.7,0.8l0,0c-0.2,0.2-0.3,0.3-0.3,0.6c0,0.2-0.1,0.2-0.3,0.3c-0.1,0.1-0.2,0.2-0.3,0.4
			c-0.3,0.3-0.6,0.5-0.8,0.8c-0.2,0.2-0.4,0.5-0.7,0.7l0,0c-0.1,0.3-0.4,0.4-0.6,0.6c-0.2,0.1-0.4,0.3-0.6,0.5
			c0,0.2-0.2,0.2-0.4,0.2c-0.1,0-0.3,0-0.4,0.2c-0.2,0.1-0.4,0.3-0.5,0.4c-0.1,0.1-0.2,0.1-0.3,0.2c-0.2,0-0.3,0.1-0.4,0.1
			c-0.3,0.1-0.6,0.2-1.1,0.2h-0.1l-0.1,0.2l0,0c0.1,0.2,0.5,0.3,0.9,0.3h0.1c0.7,0,1.1-0.2,1.4-0.3c0.1,0,0.1-0.1,0.1-0.1l0,0
			c0.8-0.3,1.4-0.6,2-1.1l0,0c0.2-0.3,0.5-0.5,0.7-0.7s0.5-0.3,0.7-0.6c0.2-0.1,0.4-0.3,0.6-0.5c0.1-0.1,0.2-0.2,0.3-0.3
			s0.2-0.2,0.2-0.2c0.1-0.1,0.2-0.2,0.2-0.3c0.5-0.6,0.8-1.1,1.1-1.5C35.1,39.9,35.2,39.7,35.3,39.5L35.3,39.5z"/>
		<path class="st2" d="M49.7,24L49.7,24c-0.2-0.1-0.2,0-0.2,0.1l0,0l0,0c0,0.2,0.1,0.3,0.1,0.4c0,0.1,0,0.1,0,0.1v0.1
			c0,0.2-0.1,0.4-0.2,0.6c0,0.1-0.1,0.2-0.1,0.3c-0.1,0.3-0.1,0.7-0.1,1c0,0.5,0.1,0.8,0.5,1c0,0,0.1,0.1,0.1,0.2
			c0.1,0.2,0.3,0.3,0.5,0.3h0.1c0.4,0,1-0.2,1.4-0.6c0,0,0,0,0-0.1s0.1-0.1,0.1-0.1l0,0l0,0l0,0c0.1,0,0.2-0.2,0.2-0.3
			s0-0.2,0.1-0.2c0.3,0,0.6-0.4,0.7-0.6c0.1-0.1,0.2-0.3,0.2-0.3c0.1,0,0.2-0.1,0.3-0.2c0.1-0.2,0.3-0.4,0.6-0.6l0,0l0,0
			c0-0.1,0.1-0.1,0.1-0.1c0.1,0,0.1-0.1,0.1-0.2c0,0,0,0,0-0.1l0,0h0.1c-0.4,0-0.6,0.2-0.9,0.3c-0.1,0.1-0.2,0.1-0.3,0.2l0,0
			c-0.8,0.7-1.5,1.4-2.6,1.7l0,0c0,0-0.1,0.1-0.3,0.1h-0.1C50,27,50,26.9,50,26.8c0-0.1,0-0.1,0-0.2c0-0.1,0-0.1,0-0.2v-0.1
			c0.1-0.1,0.1-0.2,0.1-0.4c0-0.1,0.1-0.3,0.1-0.3c0.1,0,0.1-0.2,0.2-0.4c0-0.2,0.1-0.5,0.2-0.6c0,0,0.1,0,0.2,0
			c0.1,0,0.3,0,0.6-0.1c0,0,0.1,0,0.2,0c0.1,0,0.2-0.1,0.2-0.1h0.1c0.1,0,0.2,0,0.3-0.1l0.1-0.1c0.5-0.3,1.1-0.5,1.5-1
			c0.2,0,0.2-0.2,0.2-0.3c0-0.1,0.1-0.3,0.2-0.3l0,0c0.3-0.1,0.6-0.8,0.6-1.1v-0.1c-0.1,0-0.1-0.2-0.1-0.4s-0.1-0.4-0.2-0.6
			c-0.1-0.2-0.4-0.4-0.7-0.4c-0.1,0-0.2,0-0.2,0c-0.7,0.4-1.4,0.9-2,1.5l-0.1,0.2l0,0c0,0.1-0.1,0.1-0.2,0.1l0,0l0,0
			c-0.7,0.6-1.2,1.5-1.3,1.9c0,0.1-0.1,0.1-0.1,0.1C49.8,24.1,49.8,24,49.7,24L49.7,24z M52.3,22.7C52.2,22.7,52.2,22.7,52.3,22.7
			c0-0.1,0.1-0.1,0.1-0.2c0,0,0.1,0,0.1-0.1c0.2,0,0.3-0.2,0.4-0.3c0.1-0.1,0.2-0.3,0.4-0.3l0,0l0,0c0.2-0.2,0.7-0.6,0.9-0.6l0,0
			v0.1c0,0.1,0,0.2-0.1,0.2C54,21.6,54,21.7,54,21.9c-0.3,0.5-0.9,1.2-1.1,1.3c-0.1,0.1-0.2,0.1-0.2,0.2c-0.1,0.1-0.2,0.2-0.4,0.2
			h-0.1l0,0c-0.3,0.3-0.5,0.4-0.8,0.4c-0.1,0-0.2,0-0.3,0.1l0,0c0,0,0,0-0.1,0l0,0l0,0l0,0l0,0l0,0l0,0l0,0c0.6-1,0.8-1.2,0.9-1.2
			C52.1,23,52.2,22.9,52.3,22.7L52.3,22.7z"/>
		<path class="st2" d="M36.9,18.6L36.9,18.6c0.1,0.2,0.2,0.3,0.4,0.4l0,0l0,0c0.3-0.1,0.6-0.2,0.9-0.5c0.2-0.2,0.5-0.5,0.5-0.9
			c0-0.1,0-0.1,0-0.2l0,0l0,0c0,0-0.1,0-0.1-0.1c-0.2,0-0.3-0.1-0.4-0.1c0,0,0,0-0.1,0l0,0c-0.1,0-0.2,0.1-0.2,0.1
			c-0.1,0-0.1,0.1-0.2,0.1h-0.2l0,0c-0.4,0.3-0.6,0.6-0.6,0.9C36.9,18.4,36.9,18.4,36.9,18.6C36.9,18.5,36.9,18.5,36.9,18.6z"/>
		<path class="st2" d="M43.1,26.9c0,0.1,0.1,0.2,0.1,0.3c0.1,0.1,0.1,0.2,0.1,0.3l0,0c0,0.1,0.1,0.1,0.1,0.2
			c0.1,0.3,0.2,0.6,0.7,0.6l0,0l0,0h0.1c0.4-0.1,1.4-0.4,1.7-1.1l0,0c0.1,0,0.2-0.1,0.3-0.2c0.1-0.1,0.1-0.1,0.2-0.1l0,0l0,0
			c0.1-0.3,0.4-0.6,0.6-0.9c0.2-0.2,0.3-0.3,0.3-0.4c0,0,0.2-0.2,0.4-0.4c0.3-0.3,0.6-0.5,0.6-0.7c0-0.1-0.1-0.1-0.2-0.1
			c-0.1,0-0.2,0-0.4,0.1l-0.1,0.1c-0.4,0.2-0.8,0.3-1.2,0.7l0,0l0,0c0,0.2-0.2,0.2-0.3,0.3s-0.2,0.1-0.3,0.2c0,0.2-0.5,0.5-1.1,0.9
			c-0.1,0-0.2,0.1-0.3,0.1c0,0,0,0-0.1,0h-0.1c-0.1,0-0.2,0-0.2-0.1c-0.1-0.2-0.1-0.3-0.1-0.6c0-0.6,0.4-1.3,0.7-1.8
			c0.1-0.1,0.1-0.2,0.2-0.3c0.2-0.1,0.3-0.3,0.4-0.5c0.1-0.1,0.1-0.3,0.2-0.4l0,0c0.1-0.2,0.2-0.3,0.4-0.3l0,0
			c0.2-0.1,0.2-0.2,0.2-0.4c0-0.1,0-0.1,0.1-0.2c0.3,0,0.4-0.2,0.6-0.4c0.1-0.2,0.3-0.3,0.5-0.4l0,0l0,0c0,0,0,0,0.1,0h0.1
			c0.1,0,0.2,0,0.2-0.1h0.1c0.2,0,0.3-0.1,0.4-0.1c0.1,0,0.1-0.1,0.2-0.1c0,0,0.1,0,0.2,0c0.1,0.1,0.1,0.1,0.1,0.3
			c0,0.1,0,0.3-0.1,0.4c0,0.1-0.1,0.2-0.1,0.3s0,0.1,0,0.1h0.1c0.3,0,0.6-0.6,0.8-0.8c0.3-0.4,0.5-0.8,0.5-1.3l0,0l0,0
			c-0.1-0.3-0.4-0.3-0.6-0.3c-0.1,0-0.2,0-0.3,0s-0.2,0-0.3,0h-0.1l0,0c-0.1,0-0.1,0-0.2,0c-0.1,0-0.2,0-0.2,0.1
			c-0.2,0-0.2,0.1-0.3,0.1c-0.1,0.1-0.2,0.1-0.4,0.1h-0.1l0,0c-0.2,0.1-0.4,0.2-0.6,0.4c-0.2,0.1-0.3,0.2-0.4,0.2l0,0
			C46.1,20.7,45,22,45,22c-0.8,1-1.5,2.5-1.7,4.2C43.1,26.8,43.1,26.9,43.1,26.9z"/>
		<path class="st2" d="M35.8,25.2L35.8,25.2l-0.1,0.2c-0.3,0.5-0.6,1-0.6,1.7l0,0l0,0l0,0v0.1c0.1,0.2,0.1,0.3,0.4,0.4
			c0.1,0,0.1,0,0.2,0c0.2,0,0.4-0.1,0.5-0.3c0.2-0.5,0.5-0.7,0.8-1c0.1-0.1,0.2-0.2,0.4-0.4l0,0c0-0.1,0.1-0.2,0.2-0.2l0,0l0,0
			c0.3-0.4,0.7-0.7,1-1c0.1-0.1,0.3-0.2,0.4-0.4c0.1-0.1,0.2-0.2,0.3-0.3c0.2-0.1,0.3-0.2,0.4-0.4c0.3-0.1,0.5-0.3,0.7-0.5
			c0.1-0.1,0.3-0.2,0.4-0.3c0.1,0,0.2-0.1,0.3-0.2c0.2-0.1,0.3-0.2,0.5-0.2c-0.1,0.2-0.2,0.4-0.4,0.7c-0.1,0.2-0.3,0.4-0.4,0.6
			c-0.2,0.3-0.4,0.6-0.5,0.8s-0.2,0.5-0.4,0.7l0,0c-0.1,0.3-0.2,0.5-0.3,0.7c-0.2,0.3-0.3,0.5-0.3,0.8c0,0.1,0,0.2,0.1,0.3v0.1
			c0,0.1,0,0.1-0.1,0.1l0,0c-0.1,0.1-0.1,0.2-0.1,0.3v0.2v0.1l0,0l0,0c0,0.1,0,0.1,0,0.2c0,0.2,0.1,0.4,0.2,0.5l0,0
			c0.1,0.1,0.2,0.1,0.3,0.1s0.1,0,0.2-0.1c0,0,0.1,0,0.1-0.1c0.1,0,0.6-0.4,0.6-0.7c0,0,0,0,0-0.1l0.1-0.1c0.2-0.2,0.7-0.6,1.1-1.4
			l0,0l0,0c0,0,0,0-0.1,0l0,0c0,0,0-0.1-0.1-0.1c-0.2,0-0.4,0.2-0.6,0.3c0,0-0.1,0-0.1,0.1c-0.2,0.1-0.3,0.2-0.5,0.2
			c-0.1,0-0.1-0.1-0.1-0.2c0.3-0.8,0.8-1.5,1.2-2.2c0.2-0.3,0.4-0.5,0.5-0.8c0.2-0.1,0.3-0.3,0.4-0.5c0.1-0.2,0.2-0.4,0.4-0.5l0,0
			l0,0v-0.1c0-0.2,0.2-0.3,0.3-0.5c0.1-0.1,0.1-0.1,0.2-0.2l0,0l0,0c0-0.2,0.2-0.4,0.3-0.5c0.2-0.2,0.3-0.3,0.3-0.6
			c0-0.1,0-0.2-0.1-0.3l0,0c-0.1-0.1-0.3-0.1-0.5-0.1c-0.3,0-0.6,0.1-0.9,0.2c-0.3,0.2-0.5,0.4-0.8,0.5c-0.2,0.2-0.5,0.4-0.7,0.5
			l0,0l0,0c0,0.2-0.2,0.3-0.4,0.4c-0.1,0-0.1,0.1-0.2,0.1c-0.2,0.1-0.3,0.3-0.5,0.5s-0.4,0.4-0.7,0.6c-0.2,0.2-0.4,0.4-0.6,0.6
			c-0.1,0.1-0.2,0.1-0.2,0.2c-0.3,0.2-0.5,0.5-0.7,0.7c-0.2,0.1-0.3,0.2-0.5,0.4c-0.1,0.1-0.2,0.2-0.3,0.3l0,0
			c-0.1,0-0.2,0.1-0.2,0.1l0,0c0-0.1,0.1-0.1,0.1-0.2l0.1-0.1c0.6-1.1,1.2-1.9,1.9-2.5l0,0l0,0c0-0.2,0.1-0.2,0.2-0.3
			c0.1,0,0.1-0.1,0.2-0.1l0,0c0.1-0.3,0.2-0.4,0.3-0.5c0,0,0.1,0,0.1-0.1c0.1-0.1,0.3-0.4,0.3-0.6v-0.1c-0.1-0.2-0.3-0.3-0.6-0.3
			l0,0h-0.1c-0.1,0-0.1,0-0.2,0.1h-0.1l0,0h-0.1c-0.3,0.1-0.5,0.2-0.6,0.6c-0.1,0.2-0.3,0.4-0.4,0.6c-0.4,0.6-0.8,1.2-1.1,1.8
			c-0.3,0.2-0.4,0.5-0.6,0.8C36.1,24.8,36,25,35.8,25.2z"/>
		<path class="st2" d="M21.2,27.9c0.2,0.2,0.4,0.2,0.6,0.2s0.4,0,0.5,0.2l0,0c0.2,0.1,0.4,0.1,0.6,0.2c0.1,0,0.2,0,0.2,0
			s0.1,0,0.5,0c0.4,0,1,0,1.5-0.2c0.6-0.1,0.7-0.2,0.8-0.2l0,0H26h0.1c0.3,0,0.5-0.1,0.7-0.3l0,0c0.1,0,0.2-0.1,0.3-0.1
			c0.2,0,0.3-0.1,0.4-0.2c0.9-0.4,1.5-0.6,2.2-1.4c0.2-0.1,0.3-0.2,0.4-0.4c0-0.1,0.1-0.2,0.2-0.3l0,0l0,0c0.4-0.6,0.6-1.2,0.7-1.7
			v-0.1c0-0.1,0-0.2,0-0.2c0-0.1,0-0.2,0-0.3c0-0.1,0-0.1,0-0.2c-0.1-0.4-0.1-0.6-0.3-1c-0.1-0.1-0.1-0.2-0.2-0.3
			c-0.1-0.1-0.1-0.2-0.2-0.3c0-0.2-0.2-0.4-0.3-0.5c-0.1-0.1-0.3-0.3-0.3-0.5l0,0c-0.1-0.2-0.2-0.2-0.4-0.2V20
			c0-0.4-0.3-0.7-0.6-0.9c-0.2-0.1-0.3-0.3-0.5-0.4c-0.1-0.1-0.1-0.2-0.2-0.3c-0.2-0.3-0.4-0.5-0.4-0.9c0-0.2,0-0.3,0.1-0.4
			c0.3-0.5,0.7-0.8,1.2-1l0,0c0.1,0,0.1,0,0.2,0c0.2,0,0.3-0.1,0.4-0.2c0.1-0.1,0.1-0.1,0.3-0.2c0.1,0,0.1,0.1,0.2,0.1
			c0.1,0,0.1,0,0.2-0.1c0,0,0.1-0.1,0.2-0.1c0.1,0,0.3,0,0.4,0c0.1,0,0.3,0,0.4,0c0.3,0,0.5,0,0.8,0.1c0.1,0,0.2,0.1,0.2,0.1
			c0.2,0.1,0.3,0.2,0.3,0.3c0,0,0,0,0,0.1l0,0c0,0.2-0.1,0.3-0.2,0.4c0,0.1-0.1,0.2-0.1,0.2c-0.1,0.1-0.2,0.3-0.3,0.4
			c-0.2,0.3-0.5,0.6-0.5,1l0,0l0,0c0,0.1,0.1,0.1,0.2,0.1c0.1,0,0.2-0.1,0.3-0.1c0.4-0.1,1.1-0.7,1.3-0.8c0.1,0,0.1-0.1,0.2-0.1
			c0.1-0.1,0.2-0.1,0.2-0.3c0-0.1,0.1-0.1,0.2-0.1h0.1l0,0l0.1-0.1c0.3-0.3,0.5-0.5,0.5-1l0,0l0,0c-0.2-0.3-0.4-0.5-0.8-0.6
			c-0.1-0.2-0.5-0.3-0.8-0.3c-0.2,0-0.4,0-0.6-0.1l0,0c-0.3,0-0.5-0.1-0.8-0.1c-0.4,0-0.6,0-0.8,0.1h-0.3h-0.1c-0.1,0-0.2,0-0.3,0
			s-0.1,0-0.2,0c-0.1,0-0.2,0.1-0.3,0.1c-0.2,0-0.4,0.1-0.5,0.2c-0.6,0.1-1.1,0.3-1.6,0.7c-0.4,0.2-0.6,0.5-0.9,0.8
			c-0.1,0.1-0.2,0.3-0.3,0.4C26,17.3,26,17.6,26,17.9c0,0.2,0,0.4,0.1,0.6l0.1,0.1c0.1,0.1,0.1,0.1,0.1,0.2l0,0l0,0
			c0.1,0.1,0.2,0.1,0.2,0.2c0.3,0.3,0.6,0.5,0.9,0.9c0.1,0.2,0.3,0.4,0.4,0.6c0.7,1,1.4,1.9,1.4,3.3c-0.2,1.2-0.9,2-1.7,2.6
			l-0.1,0.1c-0.3,0.2-0.4,0.4-0.9,0.4h-0.1l0,0c-0.2,0.3-0.6,0.4-1,0.5c-0.1,0-0.2,0-0.2,0.1c-0.1,0-0.2,0.1-0.4,0.1
			s-0.6,0.1-1.1,0.1c-1-0.1-1.2-0.3-1.3-0.3l0,0c-0.5-0.2-0.7-0.5-0.9-1.1c0-0.4,0.1-0.6,0.3-0.8l0,0v-0.1c0-0.1,0-0.1,0-0.2v-0.1
			c0,0,0,0,0-0.1l0,0c0.1-0.1,0.1-0.2,0.2-0.3c0.1-0.2,0.3-0.4,0.4-0.5c0.2-0.1,0.4-0.3,0.5-0.4c0.1-0.2,0.3-0.3,0.4-0.4
			c0.4-0.2,0.9-0.4,1.2-0.5c0,0,0,0,0.1,0s0.2,0,0.3,0c0.2,0,0.4,0.1,0.5,0.2v0.1c0.1,0.2,0.2,0.3,0.2,0.6v0.1
			c0,0.3-0.1,0.5-0.2,0.8c-0.1,0.2-0.2,0.4-0.2,0.6c0,0.1,0,0.3,0.1,0.3c0.2,0,1-0.7,1.2-1.2c0.2-0.2,0.7-0.8,0.7-1.3V23
			c-0.1-0.5-0.4-0.6-0.7-0.7c-0.2-0.1-0.4-0.1-0.5-0.1s-0.1,0-0.2,0h-0.1c-0.2,0-0.5,0-0.8,0.1l0,0c-0.1,0-0.2,0.1-0.4,0.1
			c-0.1,0-0.2,0.1-0.3,0.1l-0.1,0.1c-0.8,0.1-1.4,0.6-2,1l0.2,0c-1,0.8-1.9,1.8-1.9,3.1C20.4,27.2,20.9,27.8,21.2,27.9z M29,16.2
			C29,16.2,28.9,16.2,29,16.2C28.9,16.2,29,16.2,29,16.2z M28.4,16.7C28.3,16.7,28.3,16.7,28.4,16.7C28.3,16.7,28.3,16.7,28.4,16.7z
			"/>
		<path class="st2" d="M34.3,22.3c-0.1,0.1-0.1,0.2-0.2,0.3c-0.2,0.2-0.3,0.4-0.3,0.6c-0.3,0.3-0.5,0.7-0.8,1.1
			c-0.2,0.3-0.4,0.6-0.6,0.9l0,0v0.1c0,0.2,0,0.3-0.2,0.4l0,0l0,0c-0.1,0.3-0.2,0.6-0.4,0.9c-0.1,0.2-0.2,0.4-0.3,0.6
			c-0.1,0.3-0.2,0.6-0.2,0.8c0,0.1,0,0.2,0,0.4c0,0.1,0,0.2,0,0.4c0.1,0.3,0.3,0.5,0.5,0.6l0.1,0.1c0.1,0.1,0.4,0.1,0.6,0.2h0.1H33
			h0.1c0.4,0,0.9-0.1,1-0.2c0,0,0.1,0,0.1-0.1c0.2,0,0.5-0.1,0.8-0.5l0.1-0.1c0.1-0.1,0.3-0.2,0.3-0.4v-0.1h-0.2l0,0
			c-0.3,0.2-0.9,0.4-1.3,0.4h-0.1v-0.1l-0.1,0.1c0,0-0.1,0.1-0.2,0.1c-0.1,0-0.1,0-0.2,0c-0.1,0-0.1,0-0.2,0H33
			c-0.2,0-0.7-0.2-0.9-0.4C32,28.3,32,28.1,32,27.9c0-0.1,0-0.3,0.1-0.5c0.2-0.1,0.2-0.3,0.2-0.4v-0.1c0-0.2,0-0.3,0.2-0.3l0,0l0,0
			c0.1-0.6,0.4-1,0.8-1.5c0.2-0.2,0.3-0.4,0.5-0.7c0.1-0.1,0.2-0.2,0.3-0.3c0.2-0.1,0.3-0.3,0.4-0.6l0,0l0,0l-0.1-0.1
			c0-0.1,0.1-0.1,0.2-0.1c0.1,0,0.2-0.1,0.3-0.2c0.1-0.3,0.3-0.5,0.4-0.7c0.1-0.1,0.2-0.3,0.3-0.4l0.1-0.1l0,0l0.1-0.1
			c0.3-0.3,0.7-0.6,0.7-1.1l0,0l0,0c-0.1-0.2-0.2-0.3-0.4-0.3H36c-0.1,0-0.1,0-0.2,0c-0.3,0-0.5,0.1-0.8,0.3l0,0l0,0
			c-0.1,0.3-0.3,0.6-0.5,0.9C34.5,22,34.4,22.2,34.3,22.3z"/>
	</g>
	<g>
		<g>
			<path class="st3" d="M29.1,53.6C29.2,53.6,29.1,53.6,29.1,53.6L29.1,53.6C29,53.5,29.1,53.6,29.1,53.6L29.1,53.6 M29.4,53.8
				C29.4,53.8,29.3,53.8,29.4,53.8C29.3,53.8,29.3,53.8,29.4,53.8c-0.1,0-0.2-0.1-0.2-0.1C29.3,53.8,29.3,53.8,29.4,53.8 M29.2,53.6
				L29.2,53.6C29.3,53.6,29.2,53.5,29.2,53.6 M30.3,54.3C30.3,54.3,30.3,54.3,30.3,54.3c-0.1-0.1-0.1-0.1-0.1-0.2L30,54
				c-0.1,0,0,0,0.1,0H30c0,0,0,0,0-0.1c-0.1-0.1-0.2,0-0.2,0c-0.1,0-0.1-0.1-0.2-0.1c0.1,0.1,0.3,0.1,0.4,0.1h-0.1
				c0.1,0,0.2,0.1,0.2,0C30.1,54.2,30.2,54.3,30.3,54.3L30.3,54.3C30.3,54.4,30.3,54.3,30.3,54.3c0.1,0.1,0.1,0.1,0.1,0.2h0.1l0,0
				C30.5,54.4,30.5,54.3,30.3,54.3C30.4,54.3,30.4,54.4,30.3,54.3C30.4,54.4,30.4,54.4,30.3,54.3C30.4,54.4,30.4,54.3,30.3,54.3
				L30.3,54.3 M29.6,53.8C29.6,53.8,29.5,53.7,29.6,53.8C29.5,53.8,29.5,53.8,29.6,53.8 M30.1,54L30.1,54c-0.1-0.1-0.1,0-0.2,0
				c-0.2-0.1,0,0,0.1,0.1C30,54,30.1,54,30.1,54 M29.7,53.8L29.7,53.8C29.7,53.9,29.8,53.9,29.7,53.8C29.8,53.9,29.8,53.9,29.7,53.8
				 M29.4,53.9C29.4,53.8,29.4,53.9,29.4,53.9c0,0.1-0.1,0-0.2,0C29.3,53.9,29.4,53.9,29.4,53.9S29.5,53.9,29.4,53.9
				C29.5,53.9,29.4,53.9,29.4,53.9 M29,53.6l0.2,0.1C29.1,53.7,29,53.7,29,53.6 M37.4,49.1L37.4,49.1C37.5,49,37.5,49,37.4,49.1
				C37.4,49,37.4,49,37.4,49.1C37.3,49,37.2,49,37.2,49l0,0c0,0-0.2,0-0.1,0C37.2,49,37.2,49,37.4,49.1C37.3,49,37.4,49,37.4,49.1
				c-0.1,0-0.1,0-0.2,0c-0.1,0.1-0.4,0-0.6,0c0.3,0,0.8,0.1,1.1,0.1C37.7,49.1,37.5,49.1,37.4,49.1 M38.2,49.4c0,0.1,0.1,0,0.2,0.1
				c0,0,0,0,0.1,0C38.5,49.4,38.2,49.4,38.2,49.4 M38,49.4C37.9,49.4,37.9,49.3,38,49.4C38,49.3,38,49.4,38,49.4c0.1,0,0.1,0,0.2,0
				l0,0c-0.2,0-0.3-0.1-0.5-0.1c-0.1,0-0.1,0-0.2,0l0,0c0,0-0.1,0-0.2,0c0,0,0.2,0,0.1,0h0.1c0.1,0,0.1,0,0.1,0h0.1c0,0,0,0,0.1,0
				l0,0h-0.1l0,0h-0.1C37.7,49.4,37.8,49.4,38,49.4 M37.9,49.3C37.9,49.3,37.9,49.3,37.9,49.3L37.9,49.3 M29.2,53.8
				c-0.1,0-0.1,0-0.2-0.1C29.1,53.8,29.1,53.9,29.2,53.8c0,0.1,0.1,0.1,0.2,0.1C29.5,53.9,29.3,53.9,29.2,53.8
				C29.2,53.9,29.2,53.8,29.2,53.8 M38.6,49.6C38.7,49.6,38.9,49.6,38.6,49.6C38.8,49.6,38.6,49.5,38.6,49.6 M38.5,49.4L38.5,49.4
				C38.6,49.4,38.4,49.4,38.5,49.4 M29,53.5L29,53.5L29,53.5L29,53.5L29,53.5 M37.2,49.3C37.2,49.3,37.3,49.3,37.2,49.3
				c0.3,0.1,0.5,0.2,0.6,0.2c-0.1-0.1-0.3,0-0.4-0.1C37.3,49.4,37.3,49.3,37.2,49.3 M29.8,50.8c0.1,0,0.2,0,0.4-0.1
				c0,0-0.1,0-0.2,0.1C29.9,50.8,29.9,50.8,29.8,50.8 M30.6,54.3C30.5,54.3,30.6,54.3,30.6,54.3C30.5,54.2,30.6,54.3,30.6,54.3
				C30.6,54.2,30.5,54.2,30.6,54.3c-0.1-0.1-0.2-0.2-0.2-0.1C30.5,54.2,30.5,54.2,30.6,54.3L30.6,54.3
				C30.5,54.3,30.5,54.3,30.6,54.3C30.6,54.3,30.6,54.4,30.6,54.3L30.6,54.3C30.7,54.4,30.6,54.3,30.6,54.3 M36.8,49.3L36.8,49.3
				L36.8,49.3c0.2,0,0.2,0,0.3,0h0.1c-0.1,0-0.2-0.1-0.2-0.1C36.9,49.3,36.9,49.3,36.8,49.3 M46.7,54.1c0.1,0-0.1-0.2-0.1-0.2
				s0,0,0.1,0c0,0,0,0-0.1,0c-0.1-0.1,0-0.1-0.1-0.2c0,0,0,0.1,0.1,0.2C46.6,54.1,46.6,54.1,46.7,54.1 M45.2,52.8L45.2,52.8
				C45.1,52.7,45.1,52.7,45.2,52.8C45.2,52.8,45.1,52.7,45.2,52.8c0,0,0.1,0.1,0.1,0.1c0,0.1,0.1,0.1,0.1,0c0,0-0.1,0-0.1-0.1
				C45.2,52.9,45.2,52.8,45.2,52.8L45.2,52.8 M45.6,52.9c0-0.1-0.2-0.2-0.3-0.3v0.1c0.1,0.1,0.1,0,0.1,0c0.1,0,0,0,0,0.1
				c0,0,0,0.1,0,0c0,0,0,0-0.1,0l0,0c0,0-0.1,0-0.1-0.1l0.1,0.1C45.4,52.9,45.4,52.9,45.6,52.9c-0.1,0.1-0.1,0-0.2,0l0,0
				C45.5,53,45.4,53,45.6,52.9L45.6,52.9C45.5,53.1,45.6,53,45.6,52.9c0.1,0.1,0,0.2,0.1,0.2C45.7,53.1,45.7,53,45.6,52.9
				C45.6,53,45.6,53,45.6,52.9C45.6,52.9,45.6,53,45.6,52.9C45.5,52.9,45.5,52.9,45.6,52.9 M46.4,54C46.4,54.1,46.4,54,46.4,54
				C46.5,54.1,46.5,54.1,46.4,54c0.2,0.1,0.2,0.1,0.2,0.2C46.6,54.1,46.5,54.1,46.4,54C46.4,54,46.4,54,46.4,54 M46.1,53.7
				C46.1,53.8,46.2,53.9,46.1,53.7c0.1,0.1,0.1,0.2,0.2,0.3c-0.1-0.1,0-0.1,0.1,0C46.4,53.9,46.3,53.9,46.1,53.7
				C46.2,53.8,46.2,53.8,46.1,53.7 M44.5,52.3L44.5,52.3C44.6,52.3,44.6,52.2,44.5,52.3C44.5,52.2,44.6,52.3,44.5,52.3 M44.7,52.1
				C44.7,52.1,44.8,52.1,44.7,52.1c0.1,0.1,0.1,0.1,0.1,0.2l0,0C44.8,52.2,44.7,52.1,44.7,52.1 M44.9,52.3c0,0.1,0.1,0.1,0.2,0.2
				c-0.1,0,0.1,0.1,0.2,0.2c0.1,0-0.1-0.1-0.1-0.2C45,52.4,44.9,52.3,44.9,52.3 M44.8,52.3L44.8,52.3C44.8,52.4,44.8,52.4,44.8,52.3
				C44.8,52.4,44.9,52.4,44.8,52.3c0,0.1,0.1,0.1,0.1,0.2c0,0,0.1,0,0.1,0.1l0,0c0,0,0.1,0.1,0.1,0c0,0,0.1,0.1,0.1,0
				c-0.1,0-0.1-0.1-0.2-0.1C44.9,52.4,44.8,52.5,44.8,52.3c0.1,0.1,0.2,0.2,0.2,0.1C44.9,52.3,44.8,52.4,44.8,52.3 M46.6,54.2
				L46.6,54.2c0,0.1,0.2,0.3,0.3,0.4c0.1,0.1,0.1,0,0,0C46.8,54.5,46.7,54.3,46.6,54.2 M44.8,52.5C44.8,52.5,44.8,52.6,44.8,52.5
				C44.8,52.6,44.9,52.6,44.8,52.5c0.1,0,0.2,0.1,0.2,0.1c-0.1,0-0.2-0.1-0.3-0.2c0,0.1,0,0-0.1,0C44.7,52.5,44.7,52.5,44.8,52.5
				 M44.8,52.7C44.7,52.7,44.9,52.8,44.8,52.7c0.2,0.1,0.2,0.2,0.2,0.2C44.9,52.8,44.9,52.7,44.8,52.7
				C44.9,52.8,44.8,52.7,44.8,52.7 M46.2,53.6C46.2,53.7,46.2,53.7,46.2,53.6C46.3,53.7,46.3,53.7,46.2,53.6
				C46.3,53.6,46.4,53.7,46.2,53.6C46.3,53.6,46.3,53.7,46.2,53.6C46.2,53.7,46.2,53.6,46.2,53.6C46.3,53.6,46.2,53.6,46.2,53.6
				L46.2,53.6L46.2,53.6c-0.1-0.1-0.1-0.1-0.1-0.2v0.1C46.1,53.6,46.1,53.6,46.2,53.6 M47.6,55c0,0,0.1,0.1,0.2,0.1
				C47.8,55.1,47.7,54.9,47.6,55C47.7,55,47.6,54.9,47.6,55c0.1-0.1,0.2,0.1,0.2,0.1l0,0v0.1c0,0,0,0,0.1,0c0,0.1,0.1,0.1,0.1,0.1
				c0,0.1,0,0,0.1,0.1l0,0c0,0,0.1,0.1,0.1,0.2v-0.1l0,0v0.1c0,0,0.1,0.1,0.2,0.2c0,0,0-0.1-0.1-0.1c0,0,0,0,0.1,0.1
				c0-0.1-0.2-0.3-0.3-0.4c0,0,0,0-0.1,0c0,0,0,0,0-0.1c0,0,0,0-0.1,0c0,0,0,0,0-0.1C47.9,55.2,47.8,55.1,47.6,55c0,0,0-0.1-0.1-0.2
				c-0.1-0.1-0.2-0.1-0.2-0.2v-0.1c0-0.3-0.2-0.3-0.3-0.5c0,0,0,0-0.1,0c0,0,0.1,0.1,0,0.1c0-0.1-0.1-0.1-0.1-0.2
				c-0.1-0.1-0.2-0.2-0.4-0.3h-0.1c-0.1,0-0.1-0.1-0.2-0.1c0,0.1,0.1,0.1,0.1,0.1c0.1,0.1,0.1,0.1,0.2,0.2l0,0h0.1l0.1,0.1
				c0.1,0.1,0.1,0.1,0.1,0.2c0,0,0-0.1,0,0l0,0l0.1,0.1c0.2,0.1,0.2,0.2,0.4,0.3c0.1,0.1,0.1,0.1,0.1,0.2
				C47.5,54.8,47.5,54.8,47.6,55L47.6,55C47.7,54.9,47.7,54.9,47.6,55 M47.1,54.3L47.1,54.3L47.1,54.3C47,54.2,47.1,54.2,47.1,54.3
				C47.1,54.2,47,54.2,47.1,54.3 M47.2,54.4C47.1,54.3,47.2,54.3,47.2,54.4L47.2,54.4C47.2,54.3,47.2,54.2,47.2,54.4
				C47.2,54.3,47.2,54.4,47.2,54.4 M47.3,54.5C47.3,54.5,47.2,54.5,47.3,54.5C47.2,54.4,47.2,54.4,47.3,54.5
				C47.3,54.4,47.3,54.4,47.3,54.5 M48.1,55.2C48.1,55.3,48.1,55.3,48.1,55.2C48.2,55.3,48.2,55.3,48.1,55.2
				C48.1,55.3,48.1,55.3,48.1,55.2 M47.6,54.7C47.6,54.6,47.4,54.5,47.6,54.7C47.5,54.6,47.7,54.7,47.6,54.7 M47.6,54.8
				c-0.1,0-0.2-0.2-0.2-0.2C47.5,54.7,47.5,54.7,47.6,54.8 M38.8,49.6C38.9,49.6,38.8,49.7,38.8,49.6C38.9,49.6,38.8,49.6,38.8,49.6
				C38.8,49.5,38.8,49.6,38.8,49.6 M46.7,54.2C46.8,54.3,46.8,54.2,46.7,54.2C46.8,54.2,46.7,54.2,46.7,54.2
				C46.7,54.1,46.8,54.2,46.7,54.2 M46.9,54.2C47,54.2,46.9,54.2,46.9,54.2c-0.1-0.1-0.1-0.1-0.1-0.2C46.8,54.1,46.9,54.1,46.9,54.2
				 M47.1,54.8L47.1,54.8C47.2,54.8,47.2,54.8,47.1,54.8L47.1,54.8C47.2,54.9,47.2,54.9,47.1,54.8c0.1,0.1,0.2,0.1,0.2,0.2
				c0,0,0,0-0.1,0c0.1,0,0.1,0.1,0.2,0.2c0,0-0.1-0.1,0-0.1h-0.1l0,0C47.3,54.9,47.2,54.9,47.1,54.8C47.2,54.8,47.1,54.8,47.1,54.8
				 M31,54.4L31,54.4C30.9,54.4,30.9,54.4,31,54.4 M47.1,54.6c0.1,0.1,0.2,0.1,0.1,0.2c0.1,0.1,0.1,0,0.1,0.1c0.1,0.1,0,0.1,0.1,0.2
				c0,0,0-0.1-0.1-0.2C47.3,54.7,47.1,54.6,47.1,54.6 M47.1,54.5c0.1-0.1-0.1-0.2-0.2-0.3c0,0.1,0,0-0.1,0
				C46.8,54.4,47,54.4,47.1,54.5 M47.3,54.6L47.3,54.6C47.4,54.7,47.3,54.6,47.3,54.6c-0.1-0.1-0.2-0.2-0.3-0.3
				C47,54.3,47.2,54.5,47.3,54.6 M40.5,50.2c-0.1,0-0.2-0.1-0.2,0C40.4,50.2,40.5,50.1,40.5,50.2L40.5,50.2 M40.4,50.2
				C40.3,50.2,40.5,50.3,40.4,50.2C40.5,50.2,40.4,50.2,40.4,50.2 M41.1,50.5c0,0-0.2-0.2-0.3-0.1l-0.1-0.1l0,0l0,0
				C40.7,50.4,41,50.4,41.1,50.5C41.1,50.5,41.1,50.5,41.1,50.5 M40.3,50.1c-0.1,0-0.1-0.1-0.2-0.1C40,50,40.2,50.1,40.3,50.1
				C40.2,50.1,40.4,50.1,40.3,50.1C40.4,50,40.4,50.1,40.3,50.1C40.4,50,40.3,50,40.3,50.1C40.2,50,40.3,50.1,40.3,50.1 M40.9,50.2
				c-0.1,0-0.2-0.1-0.4-0.1c0,0.1,0.1,0.1,0.2,0.2c0.1,0-0.1,0-0.1-0.1C40.7,50.2,40.8,50.3,40.9,50.2 M45.2,53.1
				C45.2,53.1,45.3,53.1,45.2,53.1C45.2,53.1,45.3,53.2,45.2,53.1L45.2,53.1z M39.9,49.9c0.1,0,0.1,0,0.2,0.1c0,0-0.1,0-0.1-0.1
				C40,49.9,39.9,49.8,39.9,49.9 M39,49.8c0,0,0.2,0.1,0.3,0.1c0,0,0,0-0.1,0C39.1,49.8,39,49.8,39,49.8 M41.1,50.4
				C41.2,50.5,41.1,50.5,41.1,50.4C41.3,50.5,41.2,50.4,41.1,50.4C41.1,50.4,41,50.3,41.1,50.4C41.1,50.3,41.2,50.4,41.1,50.4
				 M39.4,49.9c0,0,0.2,0.1,0.3,0.1C39.6,49.9,39.5,49.9,39.4,49.9 M39.6,49.9C39.7,49.9,39.7,49.9,39.6,49.9
				C39.8,49.9,39.7,49.9,39.6,49.9C39.7,49.8,39.7,49.8,39.6,49.9 M39.1,49.6C39.1,49.6,39.1,49.6,39.1,49.6c-0.1,0.1,0.1,0,0.2,0.1
				c0,0,0,0,0.1,0s0,0,0,0.1h0.1c0,0-0.1-0.1,0-0.1l-0.1-0.1c0,0,0,0-0.1-0.1c0,0,0,0,0.1,0l0,0C39.1,49.7,39.1,49.6,39.1,49.6
				s-0.1-0.1-0.2-0.1c0,0,0,0,0,0.1C39,49.6,39,49.6,39.1,49.6 M39.9,50.1c0.1,0,0.1,0,0.2,0.1h0.1c0,0,0,0,0.1,0
				c0.2,0.1,0.4,0.2,0.6,0.3c0-0.1-0.1-0.1-0.2-0.1c-0.1,0-0.1-0.1-0.1-0.1l0,0h-0.1c-0.2-0.1-0.4-0.1-0.5-0.2H39.9 M45.4,53.2
				C45.3,53.2,45.5,53.3,45.4,53.2C45.5,53.3,45.4,53.3,45.4,53.2 M45.8,53.2C45.8,53.2,45.7,53.2,45.8,53.2L45.8,53.2
				c0,0,0.1,0.1,0.1,0.2c0.1,0.1,0.1,0.1,0.1,0.1h0.1C46.1,53.4,46,53.4,45.8,53.2C45.9,53.3,45.9,53.2,45.8,53.2 M45.5,53.2
				C45.5,53.2,45.4,53.1,45.5,53.2C45.5,53.1,45.5,53.1,45.5,53.2C45.5,53.1,45.4,53.2,45.5,53.2 M45.4,53.1
				C45.3,53.1,45.5,53.1,45.4,53.1C45.4,53,45.4,53.1,45.4,53.1L45.4,53.1 M45.6,53C45.7,53.1,45.7,53,45.6,53
				C45.8,53.1,45.7,52.9,45.6,53 M42.1,51.2C42.2,51.3,42.2,51.2,42.1,51.2C42.3,51.2,42.1,51.3,42.1,51.2S42.1,51.2,42.1,51.2
				 M44.2,52.7c0.1,0.1,0.2,0.2,0.3,0.3s0.1,0.1,0.2,0.2l-0.1-0.1L44.5,53l0,0l-0.1-0.1C44.4,52.8,44.4,52.8,44.2,52.7 M45.9,53.3
				C45.9,53.3,45.9,53.2,45.9,53.3C45.8,53.2,45.8,53.3,45.9,53.3 M45.9,53.6C45.9,53.6,46,53.6,45.9,53.6c0.1,0-0.1-0.1-0.2-0.3
				l0,0c-0.1,0-0.1-0.1-0.2-0.2c-0.1-0.1-0.1,0-0.1,0c0,0.1,0.1,0.1,0.2,0.2v0.1l0,0C45.8,53.5,46,53.5,45.9,53.6 M45.4,53.5
				c0,0.1,0,0.1,0.1,0.2c0,0,0.1,0.2,0.2,0.1C45.6,53.7,45.5,53.6,45.4,53.5 M42.2,53.6c-0.1,0-0.3,0.1-0.4,0.2
				C41.9,53.8,42.1,53.7,42.2,53.6 M37.5,48.4c0,0,0.1,0,0.2,0C37.6,48.4,37.5,48.4,37.5,48.4 M37.6,48.5c-0.1,0-0.2,0-0.2,0
				S37.6,48.6,37.6,48.5 M37.6,48.4L37.6,48.4L37.6,48.4 M36.1,48.4c0,0-0.1,0-0.2,0C35.9,48.4,36,48.4,36.1,48.4 M37.7,48.3
				c0.2,0,0.3,0,0.4,0.1c0-0.1,0.1,0,0.1,0c-0.1,0-0.2,0-0.2,0l0,0h-0.1c0,0,0,0,0-0.1C37.8,48.3,37.8,48.3,37.7,48.3L37.7,48.3
				L37.7,48.3C37.6,48.3,37.8,48.4,37.7,48.3C37.6,48.3,37.7,48.3,37.7,48.3C37.6,48.2,37.7,48.2,37.7,48.3 M38.2,48.6
				c0-0.1-0.2-0.1-0.3-0.1C37.9,48.6,38.1,48.6,38.2,48.6 M35.6,48.2C35.6,48.2,35.6,48.3,35.6,48.2C35.5,48.2,35.5,48.2,35.6,48.2
				c-0.2,0-0.2,0-0.3,0c0.1,0,0,0,0.1,0.1c0.1,0,0,0,0-0.1C35.5,48.3,35.5,48.3,35.6,48.2c0,0,0.1,0,0.2,0
				C35.8,48.2,35.7,48.2,35.6,48.2L35.6,48.2 M38.1,48.4c0,0,0.1,0,0.2,0C38.3,48.4,38.2,48.4,38.1,48.4 M37.9,48.2L37.9,48.2
				C37.8,48.2,37.8,48.2,37.9,48.2 M35.2,48.2c0,0-0.1,0-0.2,0C35,48.2,35.1,48.2,35.2,48.2 M34.4,48.3
				C34.5,48.2,34.5,48.2,34.4,48.3C34.5,48.2,34.4,48.2,34.4,48.3C34.4,48.2,34.4,48.2,34.4,48.3 M38.3,48.7
				c0.3,0.1,0.4,0.1,0.8,0.2c0.1,0-0.1,0-0.1-0.1C38.7,48.7,38.4,48.7,38.3,48.7C38.2,48.6,38.2,48.7,38.3,48.7 M33.4,48.3
				C33.3,48.4,33.3,48.4,33.4,48.3C33.4,48.4,33.4,48.4,33.4,48.3 M32.2,48.4C32.1,48.4,32.1,48.4,32.2,48.4
				C32.2,48.5,32.2,48.4,32.2,48.4 M33.2,48.2c-0.2,0-0.3,0-0.5,0.1c-0.1,0-0.1,0-0.2,0l0,0c-0.1,0-0.2,0-0.3,0c0,0.1,0,0.1-0.1,0.1
				c0.1,0,0.2-0.1,0.3-0.1c0,0,0.2,0.1,0.2,0h-0.1h0.1c0,0,0.1,0,0.2,0l0,0h0.1l0,0H33C33.1,48.3,33.1,48.3,33.2,48.2
				C33.2,48.3,33.1,48.2,33.2,48.2 M33.1,48.3c-0.1,0-0.2,0.1-0.2,0C33,48.3,33.1,48.2,33.1,48.3 M35.3,48.4c0,0,0.1,0,0.2,0
				C35.4,48.4,35.3,48.4,35.3,48.4 M35.2,48.3c0.1,0,0.2,0,0.3,0C35.5,48.3,35.3,48.3,35.2,48.3 M31.8,48.9c-0.1,0-0.1,0-0.2,0
				C31.6,49,31.8,48.9,31.8,48.9 M32.7,48.7c-0.1,0-0.2,0-0.3,0.1c-0.1,0-0.5,0.1-0.3,0.1C32.2,48.8,32.5,48.7,32.7,48.7 M26.6,52.6
				C26.7,52.6,26.6,52.6,26.6,52.6c-0.1-0.1-0.1-0.1-0.2-0.1C26.5,52.5,26.5,52.5,26.6,52.6L26.6,52.6 M26.9,52.8
				c-0.1,0-0.1-0.1-0.2-0.1C26.7,52.7,26.9,52.8,26.9,52.8 M27.1,52.8C27.2,52.8,27.2,52.7,27.1,52.8C27.2,52.7,27.1,52.7,27.1,52.8
				C27.1,52.7,27.2,52.7,27.1,52.8 M39.2,48.9c0.1,0,0.3,0.1,0.4,0.1C39.5,48.9,39.3,48.9,39.2,48.9 M32.2,48.5c0-0.1-0.3-0.1-0.4,0
				l0,0c-0.1,0-0.2,0.1-0.2,0.1l0,0c-0.1,0-0.2,0-0.3,0.1h-0.1c-0.1,0.1-0.2,0.1-0.3,0.1s0,0.1-0.1,0.1s0.1-0.1,0-0.1
				s-0.1,0-0.1,0.1c-0.2,0-0.4,0.2-0.5,0.2s-0.1,0-0.1,0.1c-0.1,0-0.2,0-0.3,0.1c0,0-0.1,0-0.2,0c0,0,0,0,0.1,0c0,0.1-0.2,0-0.2,0.1
				l0,0c0,0,0,0-0.1,0c0,0-0.1,0-0.1,0.1c0,0-0.1,0-0.1,0.1l-0.1,0.1H29c0,0,0,0-0.1,0c0,0,0,0-0.1,0s-0.1,0.1-0.2,0.1
				c0,0,0,0,0.1,0c-0.1,0-0.2,0.1-0.3,0.2h-0.1c0,0,0,0-0.1,0.1l0,0c0,0-0.1,0.1-0.2,0.1h0.1c-0.1,0.1,0.1,0,0,0.1c0,0,0,0-0.1,0
				s0,0,0,0s0,0-0.1,0.1h-0.1c0,0-0.1,0.1-0.1,0c-0.1,0,0,0-0.1,0.1c0,0,0,0-0.1,0c-0.1,0.1-0.1,0.1-0.3,0.2c0,0-0.1,0.1-0.2,0.1
				l0,0c0,0-0.1,0.1-0.2,0.1c0,0,0,0-0.1,0c-0.1,0.1-0.1,0-0.2,0.1c0,0-0.1,0.1-0.2,0.1c-0.1,0-0.1,0.1-0.2,0.1
				c-0.1,0.1-0.2,0.1-0.3,0.2c-0.1,0.1-0.2,0.1-0.3,0.2l-0.3,0.2C25.1,51.9,25,51.9,25,52c-0.1,0.1-0.1,0-0.1,0.1
				c-0.2,0.2-0.5,0.4-0.6,0.5c0.1,0.1,0.2,0.1,0.3,0.2c0-0.1-0.1-0.1-0.2-0.2c0,0,0.1-0.1,0.2-0.1c0.1,0,0,0.1-0.1,0.1l0,0l0.1,0.1
				c0.1,0.1,0.1,0.1,0.1,0.1c0.2,0.1,0.4,0.3,0.4,0.4c0.1,0.1,0.3,0.2,0.4,0.3c0.1,0.1,0.2,0.2,0.3,0.2c0.1,0.1,0.2,0.2,0.4,0.3
				c0.1,0,0.2,0.1,0.2,0.1l0.1,0.1h0.1c0,0.1,0.2,0.1,0.4,0.2c0.1,0.1,0.2,0.2,0.3,0.2c0.1,0.1,0.3,0.2,0.4,0.2
				c0.1,0.1,0.3,0.1,0.3,0.2c0.1,0,0.1,0.1,0.2,0.1c0,0,0,0,0.1,0c0.1,0.1,0.3,0.2,0.4,0.2c0.1,0,0.2,0.1,0.2,0.1l0.1,0.1
				c0.1,0,0.1,0,0.2,0.1c0.1,0,0.1,0.1,0.2,0.1l0,0c0.1,0,0.1,0,0.2,0.1c0.1,0,0.1,0,0.3,0c0.1,0-0.1-0.1,0-0.2c0,0,0.1,0,0.2,0.1
				c0,0,0,0,0,0.1c0.1,0,0.1,0,0.1,0c0.1,0,0.1,0.1,0.1,0.1l0,0c0.1,0,0.1,0,0.2,0.1l0,0c0.1,0,0.2,0.1,0.2,0.1l0,0
				c0.1,0,0.2,0.1,0.3,0.1c0,0,0,0,0.1,0s0.1,0.1,0.1,0.1s0,0,0.1,0c0,0,0,0,0.1,0c0,0-0.1,0,0,0.1c0.1,0,0,0,0,0c0.1,0,0.1,0,0.1,0
				c0.1,0,0.1-0.1,0.2,0h-0.1c0,0,0,0.1-0.1,0.1c0.1,0,0.1,0,0.2,0.1c0,0-0.1,0-0.1-0.1c0.1,0,0.3,0.1,0.3,0.1c0.1,0,0.2,0.1,0.2,0
				c0.1,0,0.1,0,0.1,0.1l0,0c0,0,0.2,0,0.1-0.1c0,0,0.1,0,0.2,0h-0.1c0,0-0.1,0.1,0.1,0.1c0.1,0,0,0,0-0.1c0.1,0,0.1,0.1,0.2,0
				c0.1,0,0,0,0,0.1c0.1,0,0.2,0,0.3,0s0-0.1,0.1-0.1h0.1h-0.1h0.1c0,0-0.1,0-0.2,0c0,0.1,0.2,0,0.3,0.1l0,0c0.2,0,0.2,0,0.2,0l0,0
				l-0.1,0.1c0.1,0,0.1,0,0.1-0.1c0.1,0,0.1,0,0.1,0.1c0,0,0,0,0.1,0s0,0,0.2,0H34c0.1,0,0,0,0,0.1h-0.1h0.2c0.1,0,0.2,0,0.3,0
				c-0.1,0-0.3,0-0.2,0.1c0.1,0,0.1,0,0.1,0s0,0,0.1,0c0,0,0,0,0,0.1c-0.1,0-0.1,0-0.1,0h0.2c0,0,0,0,0-0.1c0.1,0,0.3,0,0.3,0
				s0,0-0.1,0.1c0.1,0,0.3-0.1,0.4,0c0.1,0,0,0,0.1,0s0.1,0,0.1,0c0.1,0,0.2,0,0.3,0c0,0,0,0,0.1,0c0,0,0,0,0.1,0.1l0,0
				c0,0-0.1-0.1,0-0.1s0,0,0,0.1c0.1,0,0.2,0,0.2,0c0.1,0,0.2-0.1,0.3-0.1s0,0.1,0.1,0c0.1,0,0,0,0,0h0.1c0.1,0,0,0,0.1,0.1
				c0.1,0,0.2,0,0.3,0s0,0,0-0.1c0,0,0.2,0,0.3,0c0,0,0-0.1-0.1-0.1h0.1c0.1,0,0,0.1,0,0.1c0.1,0,0.1,0,0.2,0l0,0
				c0.2,0,0.3-0.1,0.5-0.1l0,0c0.1,0,0.2,0,0.3-0.1l0,0h0.1c0,0,0,0,0.1,0c0,0-0.1,0,0,0.1c0.1,0,0-0.1,0.2-0.1l0,0
				c0.1,0,0.2,0,0.2,0l0,0c0.1-0.1,0.2-0.1,0.4-0.1h-0.1c0-0.1,0.3,0,0.1,0c0,0,0.1,0,0.2,0c0,0,0,0,0-0.1l0,0
				c0.1,0,0.2-0.1,0.3-0.1s0-0.1,0.1-0.1c0,0,0,0-0.1,0.1c0,0,0.1,0,0.2-0.1c0,0,0,0.1,0.1,0c0.1,0,0,0,0-0.1c0.1,0,0.2,0,0.3-0.1
				l0,0c0,0,0,0,0.1,0s0.2-0.1,0.3-0.1c0,0,0.1,0,0.2-0.1c0.1,0,0.1,0,0.2-0.1c0,0,0.1,0,0.1-0.1l0,0c0,0,0.1-0.1,0.2-0.1
				c0.1,0,0.1-0.1,0.3-0.1h0.1c0,0,0,0,0.1-0.1c0.1,0,0.1,0,0.1-0.1h0.1c0.3-0.2,0.7-0.3,1-0.5c0,0,0,0,0-0.1
				c0.2-0.1,0.5-0.2,0.7-0.3c0.1,0,0,0,0.1,0v-0.1v0.1c0.1,0,0.1-0.1,0.1-0.1h0.1c0.2-0.1,0.2-0.1,0.4-0.2c-0.1,0-0.1,0-0.2-0.1h0.1
				c0.1,0,0-0.1,0-0.1c0.1-0.1,0.2-0.2,0.3-0.2c0,0,0,0,0-0.1c0,0,0,0,0.1,0s0.1-0.1,0.1-0.1s0-0.1,0.1-0.1s-0.2,0.1,0,0.1l0.1-0.1
				c0.1,0,0.1,0,0.1,0s0,0,0.1-0.1c0.2-0.1,0.4-0.3,0.4-0.3l0,0c0.1-0.1,0.3-0.2,0.4-0.3l0.1-0.1h0.1c0,0,0,0,0-0.1l0.1-0.1
				c0,0,0.1,0,0.1-0.1c0,0,0,0.1-0.1,0.1c0,0.1,0.1-0.1,0.2-0.1c-0.1,0,0-0.1-0.1,0c0,0,0.1,0,0.1-0.1c0,0,0,0.1,0,0
				c0.1-0.1,0,0,0-0.1c0,0,0,0,0.1,0l0.1-0.1c0.1-0.1,0.2-0.2,0.2-0.3c0,0,0-0.1-0.1-0.1c0.1-0.1,0.2-0.3,0.3-0.3l0,0
				c0.2-0.1,0.3-0.4,0.4-0.4c0.1-0.1,0.2-0.2,0.2-0.2c0-0.1,0.1-0.1,0.1-0.1l0.1-0.1h0.1c0.1-0.1,0.2-0.2,0.2-0.3
				c0.1-0.1,0.2-0.2,0.3-0.3s0.1-0.1,0.2-0.2c0.1-0.1,0.1-0.2,0.2-0.2c0,0,0,0-0.1-0.1c0,0.1-0.1,0-0.1,0.1l0.1-0.1
				c-0.1,0-0.1,0-0.1-0.1h0.1c0,0,0.1-0.1,0.2-0.2c0.1-0.1,0.1-0.1,0.1-0.2c0.1,0,0.2-0.2,0.3-0.4c0,0,0.1,0,0.1-0.1
				c0.1-0.1,0.2-0.3,0.2-0.4c-0.1,0,0-0.1,0-0.1c0.1-0.1,0-0.2,0-0.3c-0.1,0,0,0,0-0.1c-0.1,0,0-0.1-0.1-0.1c0,0,0,0,0,0.1v-0.1
				c-0.1,0,0,0-0.1,0c0,0,0,0,0-0.1c0,0,0,0-0.1,0l0,0c0,0,0,0-0.1,0l0,0c0,0-0.1,0-0.1,0.1s-0.1,0.1-0.1,0.1l0,0
				c0,0.1-0.2,0.3-0.1,0.4L49,48.3c-0.1,0,0-0.1-0.1-0.2c-0.1,0.1-0.1-0.1-0.1,0l-0.1,0.1c0,0,0-0.1-0.1-0.1
				c-0.1,0.1-0.1,0.1-0.1,0.2v0.1c-0.1,0.1,0,0-0.1,0l0.1-0.2l0,0c-0.1,0.1-0.1,0.2-0.1,0.2s0.1-0.1,0-0.1c-0.1,0.2-0.3,0.4-0.5,0.6
				c0,0,0,0-0.1,0c0,0,0-0.1-0.1-0.1c-0.1,0.1-0.1,0.1-0.2,0.2v-0.1c0-0.1,0,0-0.1,0c-0.1,0.1-0.3,0.3-0.3,0.4c0,0-0.1,0-0.2,0.1
				c0,0,0.1-0.1,0.1,0l0,0l-0.1,0.1c-0.1,0.1-0.2,0.2-0.3,0.3c0.1-0.1,0,0.1-0.1,0.1c-0.1,0.1-0.2,0.2-0.3,0.3
				c-0.3,0.2-0.5,0.6-0.8,0.7l0,0l0,0c-0.1,0-0.1,0-0.1,0.1l-0.1,0.1c0,0-0.1,0-0.1,0.1v0.1c0,0-0.1,0-0.2,0.1c0,0,0,0,0.1,0
				l-0.1,0.1c0,0,0,0,0,0.1c-0.1,0.1-0.3,0.2-0.4,0.3c0,0,0,0-0.1,0c0,0.1-0.2,0.2-0.3,0.2l0,0c-0.1,0-0.1,0.1-0.1,0.1
				c-0.1,0.1,0,0,0.1,0c-0.1,0.1-0.1,0-0.2,0.1c-0.1,0.1-0.2,0.2-0.3,0.2c0,0,0,0.1-0.1,0.1c-0.3,0.2-0.7,0.4-1,0.6
				c-0.1,0-0.1,0-0.2,0.1c-0.1,0.1-0.1,0.1-0.2,0.2l0,0c-0.1,0-0.2,0-0.3,0.1l0.1-0.1c0.1,0,0.1,0,0.2,0c0,0,0,0-0.1,0.1
				c0.1,0,0.1,0.1,0.1,0.1c0.1,0,0.2-0.1,0.3-0.1l0.1-0.1h0.1c0,0,0,0-0.1,0.1c0.1,0,0.2-0.1,0.2-0.2c0,0,0,0,0-0.1
				c0.1,0,0.1,0,0.1-0.1l0,0c0,0-0.2,0.1-0.1,0.1c0.1-0.1,0.2-0.1,0.2-0.2c0.1,0,0,0,0.1,0c-0.1,0-0.1,0-0.2,0.1c0,0,0,0,0.1,0
				c0,0,0,0,0,0.1c-0.1,0,0-0.1,0-0.1s0,0-0.1,0s-0.1,0.1-0.1,0.1h0.1c0,0.1-0.1,0.1-0.2,0.1c-0.1,0-0.1,0.1-0.1,0.1s0-0.1-0.1,0
				v0.1h-0.1c-0.2,0.1-0.5,0.3-0.7,0.4c0,0,0,0-0.1,0c0,0,0,0,0.1-0.1c-0.1,0,0-0.1,0-0.1l0,0l0,0c0,0,0.1,0.1,0,0.1
				c0,0,0.1-0.1,0-0.1c-0.1,0.1-0.1,0.1-0.2,0.1c0,0,0.1,0,0.1-0.1c0.1,0,0.1-0.1,0.2-0.1c0,0-0.1,0,0-0.1c-0.1,0-0.2,0-0.2,0
				c-0.1,0,0,0-0.1,0.1c-0.1,0-0.1,0-0.2,0.1c0,0,0,0-0.1,0s-0.1,0-0.2,0.1c-0.1,0.1-0.4,0.2-0.6,0.2c0,0-0.1,0.1-0.1,0
				c-0.1,0,0,0-0.1,0.1c0,0,0,0-0.1,0s0,0.1-0.1,0.1s-0.1,0-0.2,0.1l0,0c-0.1,0.1-0.2,0.1-0.3,0.1c0,0,0,0-0.1,0s-0.3,0.1-0.6,0.2
				c-0.2,0.1-0.5,0.1-0.7,0.2c-0.1,0-0.1,0-0.2,0c-0.2,0-0.3,0.1-0.4,0.1c0.1,0,0.1-0.1-0.1,0c0,0-0.1,0-0.2,0
				c-0.2,0-0.3,0.1-0.4,0.1c0,0,0,0-0.1,0c0,0-0.1,0-0.2,0c-0.1,0-0.1,0-0.1,0c-0.1,0-0.1,0-0.2,0H36h-0.1c0,0,0,0-0.1,0
				s-0.1,0-0.2,0c-0.1,0-0.3,0-0.4,0c0,0,0,0-0.1,0l0,0H35l0,0c0,0-0.1,0,0,0c-0.1,0-0.1,0-0.1,0s-0.1,0-0.2,0h-0.1
				c-0.1,0-0.3,0-0.5,0c-0.1,0-0.1,0-0.2,0c0,0,0,0-0.1,0s-0.1,0-0.2,0h-0.1h-0.1h-0.1c0,0,0,0-0.1,0c0,0,0,0-0.1,0H33
				c-0.1,0-0.2-0.1-0.4-0.1c0,0-0.2-0.1-0.3-0.1h-0.1c-0.2-0.1-0.5-0.2-0.7-0.2h-0.1c0,0,0,0,0.1,0c0,0-0.3-0.1-0.3,0
				c0,0-0.1,0-0.1-0.1c0,0-0.1-0.1-0.2-0.1c0,0,0,0,0.1,0c0,0-0.1,0,0,0c0,0,0,0-0.1,0c0,0,0,0,0,0.1c-0.1,0-0.1,0-0.1,0
				c0,0.1-0.1,0-0.1,0s0.1,0,0.2-0.1l-0.1-0.1c0,0,0,0-0.1,0s0-0.1,0,0c-0.1-0.1-0.2,0-0.2,0l-0.1-0.1h-0.1c-0.1,0-0.2,0-0.2,0
				c0.1,0,0.1,0,0.1,0h0.1c0,0.1-0.1,0-0.1,0c0.1,0,0.1,0,0.1,0h-0.1c-0.1,0-0.1-0.1-0.2-0.1c0,0.1,0.1,0.2,0.1,0.2s0.1,0,0.2,0.1
				c0,0,0,0,0-0.1c0.1,0,0,0.1,0.1,0.1s0,0,0,0c0.1,0,0,0,0.1,0s0.1,0,0.2,0c0.1,0-0.1,0,0,0.1h0.1c0.1,0,0,0-0.1,0
				c0.1,0,0.2,0,0.2,0.1c-0.1,0-0.1,0-0.1-0.1c0,0-0.1,0-0.1,0.1c-0.1,0-0.1-0.1-0.2-0.1c-0.1,0,0,0-0.1,0c0,0-0.1,0-0.1-0.1
				c0,0-0.1,0-0.2,0c-0.1,0,0.1,0,0,0c-0.1-0.1-0.3-0.1-0.3-0.1s-0.1,0-0.2,0c0,0.1,0.1,0,0.2,0.1c-0.1,0-0.2,0-0.3,0
				c-0.1-0.1,0.1,0,0.1,0s-0.2-0.1-0.1-0.1h-0.1c0,0-0.1-0.1-0.2-0.1c0,0,0.1,0,0.1,0.1c-0.1,0-0.1,0-0.2,0c-0.1,0,0-0.1,0-0.1
				c-0.1,0-0.2-0.1-0.2-0.1c0,0.1,0.1,0,0.1,0.1c-0.1,0-0.1-0.1-0.2-0.1l0,0l0.5,0c-0.1,0,0.2,0.1,0.1,0.1c-0.1,0-0.2-0.1-0.2-0.1
				c0.1,0-0.1-0.1-0.2-0.1c-0.1,0,0.1,0.1,0.1,0.1c-0.1,0-0.2-0.1-0.2-0.1c-0.1,0-0.2-0.1-0.3-0.1l0.2,0.1c0,0-0.1,0-0.1-0.1
				c-0.1,0-0.2-0.1-0.2-0.1c-0.1,0-0.2-0.1-0.4-0.2l0,0c-0.1,0-0.1,0-0.1,0c-0.1-0.1-0.2-0.1-0.4-0.2c-0.1,0,0,0,0,0.1
				c0,0,0,0-0.1,0c0,0,0-0.1,0,0c0-0.1-0.1-0.1-0.2-0.2l0,0c0-0.1-0.1-0.1-0.2-0.1c0,0,0,0.1-0.1,0c0,0,0,0,0.1,0c0,0,0,0-0.1,0
				c-0.1-0.1,0.1,0,0-0.1c-0.1,0-0.1,0-0.2-0.1l0,0c-0.1-0.1-0.1-0.1-0.2-0.2h-0.1c0,0,0,0-0.1,0c0-0.1,0.1,0,0.1,0
				c-0.1-0.1-0.1,0-0.2-0.1c0,0,0,0,0.1,0c0,0-0.1,0-0.1-0.1l-0.1-0.1l-0.1-0.1l0,0c-0.1,0,0-0.1-0.1-0.1s0,0,0,0
				c-0.1-0.1,0,0-0.1-0.1l0,0l0,0c0.1,0,0.1,0.1,0.2,0.1c0,0,0,0-0.1,0l0,0l0,0l0,0l0,0c0,0,0-0.1,0.1-0.1s0,0,0.1,0l0.1-0.1h-0.1
				c0,0,0,0,0.1-0.1s0-0.1,0.1-0.1c0,0-0.1,0.1,0.1,0c0,0-0.1,0.1-0.2,0.1c0.1,0,0.1-0.1,0.2-0.1c0.1,0,0.1-0.1,0.2-0.1h-0.1
				c0.1-0.1,0.1-0.1,0.1,0l0.1-0.1h-0.1c0.1-0.1,0.1-0.1,0.2-0.1l0,0c0.1-0.1,0.1-0.1,0.2-0.1c0.1,0,0.1-0.1,0.2-0.1
				c0,0,0.1,0,0.2-0.1l-0.1,0.1c0.1,0,0.2-0.1,0.2-0.1s0,0-0.1,0c0.1-0.1,0,0,0-0.1c0.1-0.1,0,0,0.1,0s0-0.1,0.1-0.1
				c0,0,0,0.1,0.1,0c0-0.1,0.2-0.1,0.1-0.1c0.1,0,0.2-0.1,0.3-0.2c0.1,0-0.1,0.1-0.1,0.1s0.1,0,0.2-0.1c0.1,0,0.1,0,0.1,0
				c0-0.1-0.1,0-0.1,0s0-0.1,0.1-0.1c0,0-0.1,0,0-0.1c0,0,0,0.1,0.1,0c0,0-0.1,0.1,0,0.1s0,0,0,0c0.1,0,0.1-0.1,0.3-0.1
				c0-0.1-0.1,0.1-0.1,0s0.1,0,0.1-0.1l0,0h0.1c0.1,0,0.2,0,0.2-0.1c0.1,0,0.3-0.1,0.4-0.2c0.1,0,0.1,0,0.2-0.1c0,0,0,0,0.1,0
				c0.3-0.1,0.5-0.2,0.7-0.3c0,0,0,0,0.1,0s0,0,0.1-0.1c0-0.1-0.1,0-0.1,0s-0.1,0.1-0.2,0.1c0,0,0.1,0,0.1-0.1l0,0
				c0,0,0.1,0,0.1-0.1c0,0-0.1,0,0,0.1c0,0,0.2,0,0.1,0c0,0,0.2,0,0.2-0.1c0.1,0,0.3-0.1,0.5-0.2c0.2-0.1,0.5-0.1,0.7-0.2
				c0.1,0,0,0,0.1-0.1c0.1,0,0.1,0,0.1,0s0,0,0.1,0c0-0.1,0,0-0.1,0c0,0,0,0-0.1,0c0,0-0.1,0.1-0.1,0c0,0,0,0,0.1,0
				c0,0,0-0.1,0.1-0.1c0,0-0.1,0-0.1,0.1c0.1,0,0.2-0.1,0.3-0.1c0,0-0.2,0-0.2,0.1s0.1,0,0.1,0.1c0.2,0,0.4-0.1,0.6-0.2
				c0.1,0,0.3,0,0.5-0.1c0,0,0,0.1-0.1,0.1h0.1h-0.1c-0.1,0-0.2,0-0.3,0.1c0,0,0,0-0.1,0s-0.1,0-0.2,0.1c-0.1,0,0,0,0,0
				c-0.2,0.1-0.3,0.1-0.5,0.1c0.1,0-0.1,0.1-0.1,0.1c-0.1,0,0-0.1-0.1,0c0,0,0,0,0.1,0s0,0-0.1,0c0,0-0.1,0.1-0.2,0.1
				c0,0,0,0,0.1-0.1h-0.1c-0.1,0-0.3,0-0.4,0.1c0,0,0,0,0.1,0c0,0.1-0.1,0-0.2,0c-0.2,0.1-0.2,0.1-0.4,0.2c0,0,0.1-0.1,0.2-0.1
				c-0.2,0-0.4,0.1-0.6,0.2h-0.1l0,0h-0.1c-0.1,0-0.1,0.1-0.2,0.1l0,0c-0.2,0.1-0.4,0.1-0.5,0.2l0,0c-0.1,0-0.3,0.1-0.3,0.2
				c-0.1,0-0.1,0-0.1,0c-0.2,0.1-0.4,0.2-0.6,0.4c0,0.1-0.1,0.1,0,0.2c-0.2,0.1-0.3,0.1-0.4,0.2c0,0,0,0-0.1,0s-0.1,0-0.1,0.1
				c-0.1,0,0,0,0-0.1c0.1-0.1,0.1,0,0.2-0.1c-0.1,0-0.1,0-0.2,0.1l0,0l0,0c0,0,0,0,0,0.1H28v0.1h-0.1l-0.1,0.1c-0.1,0,0-0.1-0.1,0
				c-0.1,0-0.1,0.1,0,0.1c-0.1,0-0.1,0.1-0.2,0.1c0,0,0.1,0,0.1-0.1c0,0,0,0-0.1,0h-0.1c0,0,0,0-0.1,0s-0.2,0.1-0.2,0.2
				c-0.1,0-0.1,0.1-0.1,0.1h-0.1c0,0,0,0,0.1-0.1c0,0,0.1,0,0.1-0.1c-0.1,0-0.1,0-0.2,0.1l-0.1,0.1h0.1c-0.1,0-0.1,0-0.2,0.1
				c0,0,0,0-0.1,0.1c-0.1,0,0.1-0.1,0,0l-0.1,0.1l0,0h0.1l0,0c0,0,0.1,0,0,0c0.1,0,0.1,0,0.2,0h-0.1c0.1,0,0.1,0.1,0.2,0.1l0.1,0.1
				l0,0c0-0.1,0.1,0,0.1,0s0.1,0.1,0,0.1c0,0,0,0,0.1,0c0,0-0.1,0,0,0s0.1,0.1,0.2,0.1l0.1,0.1l0.1,0.1c0,0,0,0,0.1,0
				s0.1,0.1,0.2,0.1H28c0.1,0,0.2,0.1,0.2,0.2c0.2,0.1,0.4,0.2,0.6,0.2c0-0.1,0-0.1,0.1-0.1c0,0,0,0-0.1-0.1c0.1,0,0-0.1,0.1-0.1
				c-0.1,0,0-0.1-0.1-0.1c0,0-0.1,0,0-0.1c-0.2-0.1-0.5-0.2-0.7-0.3H28c-0.1,0-0.1-0.1-0.2-0.1c0,0,0,0-0.1,0s-0.1-0.1-0.1-0.1l0,0
				c0,0,0,0-0.1,0l0,0l0,0h-0.1l0,0c0,0,0,0-0.1,0l0,0c-0.1,0-0.1-0.1-0.2-0.1H27h0.1l0.1-0.1c0,0,0,0-0.1,0h0.1c0,0-0.1,0,0,0
				c0,0,0,0,0.1,0l0,0c0,0,0,0-0.1,0l0,0c0,0,0,0,0.1,0c0,0,0,0-0.1,0l0,0h0.1l0,0c0,0,0,0-0.1,0c0,0,0,0,0.1,0V52c0,0,0.1,0,0,0
				l0,0l0,0l0,0l0,0l0,0c0,0,0.2-0.1,0.1-0.1c0.1,0,0.1,0,0.1,0l0,0h0.1c0.1,0,0.1-0.1,0.1-0.1l0.2-0.1c0,0,0,0-0.1,0
				c0.1,0,0.2-0.2,0.4-0.2c0-0.1,0-0.1,0.1-0.2c0.1,0,0.1,0,0.1,0c0,0.1,0.1,0,0,0.1c0,0,0.1-0.1,0.1,0c0.3-0.1,0.6-0.3,0.8-0.4
				c0,0-0.1,0-0.2,0.1c-0.1,0-0.2,0.1-0.2,0.1l0.1-0.1c0.1,0,0.1,0,0.2,0l0,0c0.1,0,0.2-0.1,0.2-0.1s0,0,0.1,0l0.2-0.1
				c0,0,0,0,0-0.1c0.1,0,0,0,0.1,0s0.1-0.1,0.1,0c0.1-0.1,0.3-0.1,0.4-0.2c-0.1,0-0.2,0.1-0.4,0.1h-0.1c0.1,0,0.1,0,0.1,0
				c0.1-0.1,0.1,0,0.3-0.1l0,0c0.2-0.1,0.4-0.1,0.6-0.2c0,0-0.1,0,0-0.1c0.1,0,0,0.1,0.1,0c0,0-0.1-0.1-0.1,0c0-0.1,0.1-0.1,0.1,0
				c0,0,0.1,0,0,0c0.2-0.1,0.5-0.2,0.8-0.2c0.3-0.1,0.5-0.1,0.8-0.2l0,0c0.1,0,0.1,0,0.3,0c0,0-0.1,0,0,0s0.1,0,0.1,0
				c0.1,0-0.1,0-0.1,0c0.1,0,0.2-0.1,0.2-0.1c0,0.1,0.1,0.1,0.2,0.1c0.1,0,0.1,0,0.1-0.1c0.1,0,0.2,0,0.5,0c0,0,0,0,0-0.1
				c0,0,0,0,0.1,0s0.2,0,0.4,0s0.4-0.1,0.6-0.1c0.1,0,0.2,0,0.2,0s0,0,0.1,0s0.1,0,0.1,0c0.2,0.1,0.4,0,0.7,0c0.1,0,0,0,0-0.1
				c0.1,0,0.1,0.1,0.2,0.1c0,0-0.1,0,0-0.1c0.1,0,0.1,0.1,0.2,0h-0.1c0.1,0,0.1,0.1,0.2,0c0,0,0,0-0.1,0h0.1h0.1
				c0.1,0,0.1,0.1,0.2,0.1v-0.1h-0.1c0-0.1,0.1,0,0.2,0c0,0,0,0,0-0.1c0,0,0.1,0,0.1,0.1c0.1,0,0.1,0,0.1,0c-0.1,0-0.4-0.1-0.5,0
				c-0.1,0,0,0,0,0c-0.1,0-0.2,0-0.3,0l0,0c-0.1,0-0.2,0-0.3,0s-0.3,0-0.4,0c0,0-0.1,0-0.2,0c0-0.1,0.1,0,0.1-0.1s0,0-0.1,0
				s0,0,0-0.1c0.2,0,0.2,0,0.3,0.1c0.3,0,0.5,0,0.7,0c-0.1,0,0-0.1-0.1-0.1h0.1c0,0,0,0-0.1,0c0,0,0.1,0,0.2,0v-0.1
				c0.1,0,0,0.1,0.1,0.1c0,0,0,0,0-0.1l0,0h0.1c0.1,0,0.1,0,0.1-0.1c0.1,0,0.1,0.1,0.2,0.1c0.1,0,0.1,0,0.2,0c0.1,0,0.1,0.1,0.1,0.1
				c0.1,0,0.2,0.1,0.2,0.1c0.1,0,0.1,0,0.1,0s0,0-0.1,0c0,0,0.1,0,0.1-0.1c0.1,0,0.1,0,0.2,0c0,0-0.1,0,0-0.1c0,0,0.1,0,0,0
				c0.1,0,0.1,0,0.2,0.1c0,0,0,0,0,0.1c0,0-0.1,0-0.2,0c0,0.1-0.1,0-0.1,0.1c0.3,0,0.8,0.2,1,0.2c0-0.1-0.1,0-0.1,0
				c-0.2,0-0.5-0.1-0.7-0.2c0.1,0,0.2,0,0.2,0c0.1,0,0,0.1,0.1,0.1s0,0,0.1,0s0.1,0,0.1,0s0,0,0.1,0l0,0c0.1,0,0.2,0,0.3,0.1
				c0,0,0,0,0.1,0s0,0,0,0.1c0.1,0,0.1,0,0.1,0c0.1,0,0,0,0,0.1c0.2,0.1,0.3,0.1,0.5,0.2c0,0,0,0,0.1,0c0,0,0.1,0,0.1,0.1
				c0,0,0.1,0,0.1,0.1h0.1c0.1,0.1,0.4,0.1,0.5,0.2v-0.1c-0.1,0-0.1,0-0.2-0.1c0,0,0-0.1-0.1-0.1c0.1,0,0.1,0.1,0.2,0.1
				c0,0,0.2,0.1,0.2,0c0,0,0,0,0,0.1c0.1,0,0.1,0,0.1,0h-0.1c0,0,0.1,0.1,0.2,0.1c0.1,0,0.1,0.1,0.2,0.1H41l0,0c0,0,0.1,0,0.1,0.1
				c0,0,0,0,0.1,0s0.1,0.1,0.1,0.1s0,0-0.1-0.1h0.1l0.1,0.1c0,0,0.1,0,0.1,0.1c0,0-0.1-0.1-0.2-0.1l0.1,0.1c0,0-0.1,0-0.2,0
				c-0.1-0.1-0.1-0.1-0.2-0.1c0,0,0.1,0,0.1,0.1l0,0c-0.1,0,0.1,0.1-0.1,0c0,0.1,0.2,0.1,0.2,0.1c-0.1,0-0.1,0-0.3-0.1
				c-0.1,0,0,0,0-0.1c-0.1,0-0.1,0-0.1,0l-0.1-0.1c0.1,0.1,0.2,0.1,0.4,0.2c0,0-0.1,0,0-0.1c0.1,0,0,0.1,0.1,0.1l0,0
				c0.1,0.1,0.1,0.1,0.1,0.2c0.1,0,0.1,0,0.1,0c0.1,0,0.1,0.1,0.2,0.1c0,0,0,0,0-0.1c0.1,0,0.2,0.1,0.3,0.1c0.1,0.1,0,0.1-0.1,0.1
				c0,0,0.1,0,0.1,0.1c0-0.1,0.1,0,0.1-0.1c0.1,0.1,0.1,0.2,0.3,0.2c0.1,0,0.1,0,0.1,0l0,0c0,0-0.1,0,0,0.1c0,0,0,0,0.1,0
				c0.1,0.1,0.1,0.1,0.2,0.2c0.1,0,0.1,0,0.2,0.1c0,0,0,0-0.1,0c0,0.1,0.3,0.2,0.4,0.3h0.1l0,0c0.1,0.1,0.2,0.2,0.3,0.2h0.1h-0.1
				c0,0,0,0,0.1,0l0.1,0.1c0-0.1-0.1-0.1-0.2-0.2c0,0,0-0.1-0.1-0.1c0,0.1-0.2-0.1-0.2-0.1V52c-0.1,0-0.1,0-0.1,0
				c0-0.1-0.1,0-0.2-0.1c0-0.1,0.2,0,0.1-0.1c-0.1,0-0.1,0-0.2,0c-0.1,0-0.1-0.1,0-0.1l0,0c-0.1-0.1-0.1,0-0.2-0.1c0,0,0-0.1,0,0
				c0-0.1-0.1,0-0.1-0.1l0,0l0.1,0.1c0.1,0.1,0.1,0,0.2,0.1c0,0,0,0,0-0.1l0,0c0,0,0,0,0.1,0c0,0,0,0.1,0.1,0.1c0,0,0,0,0,0.1
				c0.1,0.1,0.1,0,0.2,0c0.1,0,0,0.1,0.1,0.1s0.1,0,0.1,0c0,0.1,0.1,0.2,0.2,0.2c0-0.1,0.1,0,0.1,0.1c0.1,0.1,0,0.1,0.1,0.1
				c0,0,0,0,0-0.1l0.1,0.1c0,0,0,0-0.1,0s-0.1-0.1-0.1,0l-0.2-0.1c0,0.1,0.1,0.1,0.2,0.2c0.1,0.1,0.2,0.1,0.3,0.2c0,0,0,0,0.1-0.1
				c0.1,0.1,0.1,0.1,0.2,0.2v-0.1c0.1,0,0.1,0.1,0.1,0.1c0.1,0.1,0.1,0,0.1,0.1c0,0,0,0-0.1,0c0,0.1,0.1,0,0.1,0.1
				c0.1,0.1,0,0.1,0,0.1c0.1,0.1,0-0.1,0.1,0c0,0,0.1,0.1,0,0.1c0.1,0,0.1,0.1,0.1,0.1s0.2,0.1,0.2,0.2l0,0c0.1,0,0,0.1,0,0.1
				c0.1,0,0,0.1,0.1,0.1v-0.1c-0.4-0.3-0.5-0.5-0.8-0.7l0,0c-0.1-0.1-0.1-0.1-0.2-0.2c0,0,0,0-0.1,0l0,0c0,0,0,0-0.1,0
				c0,0.1,0.1,0.1,0.2,0.2c-0.1,0-0.2-0.1-0.4-0.2l0,0c-0.1-0.1,0-0.1,0-0.1c0.1,0.1,0,0.1,0.1,0.1c0-0.1,0-0.2,0.1-0.1
				c-0.2-0.1-0.3-0.3-0.6-0.4c0-0.1-0.2-0.2-0.3-0.2c0,0,0-0.1-0.1-0.1s-0.1,0-0.1,0c-0.1-0.1-0.1-0.1-0.2-0.1l0,0l0.1,0.1
				c0.2,0,0-0.2-0.1-0.2l0,0l-0.1-0.1c-0.1-0.1-0.4-0.2-0.5-0.4c-0.1-0.1-0.3-0.1-0.4-0.2c-0.1,0-0.1-0.1-0.2-0.1
				c-0.1-0.1-0.2-0.1-0.2-0.1s0.1,0,0.2,0c0.1,0.1,0.2,0.1,0.3,0.1c0,0.1,0.1,0.1,0.1,0.2c0,0,0,0-0.1,0c0.1,0.1,0.1,0,0.1-0.1
				c0,0,0.1,0.1,0.2,0.1c0,0-0.1,0,0,0.1L41.9,51v0.1c0.2,0.1,0.3,0.2,0.6,0.3c0.1,0-0.1-0.1-0.1-0.1s0.1,0,0.1,0.1
				c0.1,0,0,0.1,0.1,0.1c0-0.1,0.1,0,0.1,0s0,0.1,0,0c0.1,0,0.1,0,0.2,0.1h-0.1c0.1,0,0.1,0,0.1,0l0,0h-0.1c0,0,0.1,0,0.1,0.1
				c0,0,0,0.1,0.1,0.1c0.1,0.1,0.2,0.1,0.3,0.2c0-0.1-0.1-0.1-0.2-0.1c0,0,0.1,0,0.1,0.1h0.1c0.1,0.1-0.1,0-0.1,0.1
				c0.1,0.1,0.1,0,0.2,0c0.1,0.1,0.1,0.1,0.2,0.1c0,0,0,0,0,0.1c0.1,0.1,0.1,0,0.2,0.1c0-0.1,0.1,0,0.1-0.1c-0.1,0-0.1-0.1-0.2-0.2
				h0.1c0,0,0,0,0-0.1h-0.1c0,0,0-0.1-0.1-0.1c0,0,0,0,0,0.1c-0.1,0-0.1,0,0,0.1L43.5,52c0,0-0.1,0-0.1,0.1c-0.1,0,0-0.1,0-0.1h0.1
				l-0.1-0.1c0,0,0-0.1-0.1-0.1c0,0.1,0,0.1-0.1,0c-0.1,0,0,0.1,0,0.1s0-0.1-0.1-0.1c0,0,0,0-0.1,0c0,0,0,0.1-0.1,0.1
				c0,0,0-0.1-0.1-0.1s0.1,0.1,0,0.1s0-0.1-0.1-0.1c0,0,0,0-0.1,0c0,0,0,0,0-0.1c0,0,0,0.1,0.1,0.1c0-0.1,0.1,0,0.1,0l0,0h0.1
				c0,0,0-0.1-0.1-0.1c0,0,0,0,0,0.1c-0.1,0-0.1-0.1-0.1-0.1s0.1,0,0.2,0.1c0,0,0-0.1-0.1-0.1c0.1,0,0.1,0,0.1-0.1c0,0,0,0,0.1,0
				s0,0.1,0.1,0.1c0-0.1-0.2-0.2-0.3-0.2c-0.1-0.1-0.1-0.1-0.2-0.1l0.1,0.1c-0.1,0-0.1-0.1-0.1-0.1h-0.1c0,0,0-0.1-0.1-0.1h-0.1
				c-0.1,0-0.1-0.1-0.2-0.1c0,0.1,0.1,0.1,0.2,0.2c0,0-0.1,0-0.2-0.1c-0.1,0,0,0,0-0.1c0,0-0.1,0-0.1-0.1L41.9,51l0.1,0.1
				c-0.1-0.1-0.2-0.1-0.3-0.2c0,0,0-0.1-0.1-0.1c-0.1-0.1-0.2-0.1-0.3-0.2c-0.2-0.1-0.3-0.2-0.5-0.2l0,0l-0.1-0.1c0,0.1,0,0-0.2-0.1
				l0,0c-0.1,0-0.2-0.1-0.3-0.1s0-0.1-0.1-0.1c0,0,0,0.1,0.1,0.1c0,0-0.1,0-0.2,0c0,0,0,0,0.1-0.1c-1.1-0.5-2.3-0.8-3.4-1
				c-0.2,0-0.4-0.1-0.5-0.1c0,0,0,0-0.1,0h-0.4c-0.1,0-0.2,0-0.2,0c-0.1,0-0.5,0-0.7,0c-0.1,0-0.3,0-0.4,0c-0.1,0-0.2,0-0.3,0
				c0,0,0.1,0,0,0c-0.2,0-0.3,0-0.6,0c0,0,0,0,0.1,0c-0.1,0-0.1,0-0.1,0c-0.1,0,0,0.1,0,0.1c-0.1,0-0.1,0-0.2,0c-0.1,0-0.1,0-0.2,0
				H33c-0.1,0-0.2,0-0.3,0h-0.1h-0.1c-0.1,0-0.3,0-0.4,0H32h-0.1c0,0,0,0-0.1,0c0,0,0,0-0.1,0s-0.3,0.1-0.4,0.1h-0.1c0,0,0,0-0.1,0
				s-0.2,0-0.2,0c-0.1,0-0.1,0-0.2,0c0,0,0,0-0.1,0c-0.2,0-0.4,0.1-0.6,0.1c0,0,0,0-0.1,0c-0.2,0-0.3,0.1-0.4,0.1c0,0,0,0-0.1,0.1
				c-0.1,0-0.2,0.1-0.4,0.1c0,0,0,0,0,0.1l0,0c-0.1,0.1-0.3,0.1-0.4,0.2c-0.1,0-0.1,0-0.2,0.1c0,0-0.1,0.1,0,0.1c-0.1,0,0,0-0.1,0
				s-0.1,0.1-0.2,0.1c0,0,0,0-0.1,0c-0.1,0.1-0.3,0.1-0.4,0.2l-0.1,0.1c-0.1,0.1-0.4,0.2-0.5,0.3c0,0,0,0-0.1,0
				c-0.1,0.1-0.2,0.1-0.4,0.2c-0.1,0-0.1,0-0.2,0.1v-0.1h0.1c0,0,0,0,0.1-0.1h0.1l0.1-0.1c0.1,0,0.1-0.1,0.2-0.1c0,0,0-0.1,0.1-0.1
				c0,0,0.1,0,0.2-0.1c0.1,0,0.1,0,0.2-0.1c0.1,0,0.2-0.1,0.3-0.2l0,0c0.1,0,0.2-0.1,0.1-0.1l0,0c0,0-0.1,0-0.1,0.1
				c0.1,0,0.2-0.1,0.3-0.2h0.1c0,0,0,0-0.1,0c0,0,0,0-0.1,0l0,0c0,0,0,0,0.1,0C27.9,50,27.8,50,27.8,50c-0.1,0,0.2-0.1,0.1-0.1
				c0.1,0,0.2,0,0.3-0.1c0.1,0-0.1,0.1-0.1,0.1c0.1,0,0.2-0.1,0.2-0.1s-0.2,0.1-0.1,0c0,0,0,0,0.1,0c-0.1-0.1,0.1-0.1,0.2-0.1
				l-0.1,0.1c0,0,0.1,0,0.2-0.1c-0.1,0,0-0.1,0.1-0.1c0,0-0.1,0.1,0,0.1s0-0.1,0.1-0.1s0,0,0,0c0.2-0.1,0.6-0.2,0.9-0.3
				c0,0,0.1-0.1,0.2,0c0.1-0.1,0.4-0.1,0.5-0.2c-0.1,0-0.2,0-0.3,0.1c-0.1,0-0.3,0.1-0.4,0.1c0,0,0.1-0.1,0-0.1
				c0.1,0,0.1-0.1,0.2-0.1c0,0,0,0-0.1,0.1c0.1,0,0.1-0.1,0.2-0.1c0,0-0.1,0-0.1,0.1c0.3-0.1,0.6-0.2,1-0.3c0.3-0.1,0.7-0.2,1-0.2
				H32c0.1,0,0.1,0,0.2,0c0.1,0,0.2-0.1,0.2-0.1s0.1,0,0.1-0.1l0,0c0.5,0,0.9-0.1,1.3-0.1l0,0c0.1,0,0.2,0,0.3,0H34
				c0.1,0,0.2,0,0.3,0c0-0.1-0.1,0-0.1,0c-0.1,0-0.1,0-0.2,0c0,0,0,0-0.1,0c0,0,0,0,0-0.1c-0.1,0-0.1-0.1-0.1-0.1c0-0.1,0.2,0,0.2,0
				h-0.1l0,0c-0.1,0-0.2,0-0.3,0v0.1c0,0-0.1,0.1-0.1,0c-0.1,0,0.1,0,0.1,0.1c-0.1,0-0.1,0-0.1,0c-0.1,0-0.1,0-0.2,0
				c0,0.1,0.2,0,0.2,0c0.1,0,0.2-0.1,0.3,0c0,0.1-0.2,0-0.1,0.1c-0.1,0-0.2,0-0.3,0h-0.1c-0.1,0-0.3,0-0.5,0.1c-0.1,0-0.2,0-0.3,0
				s-0.1,0-0.2,0l0,0c-0.1,0-0.1,0-0.1,0c-0.1,0-0.2,0-0.3,0c0,0,0,0,0.1,0c-0.1,0-0.2,0-0.2,0c-0.1,0-0.1,0.1-0.2,0.1l0,0
				c-0.1,0-0.1,0.1-0.2,0.1c0,0,0,0-0.1,0l0,0c-0.1,0-0.1,0-0.2,0.1C32.2,48.6,32.3,48.5,32.2,48.5C32.2,48.6,32.2,48.6,32.2,48.5
				C32.1,48.6,32.1,48.6,32.2,48.5c-0.1,0.1-0.1,0-0.2,0.1l0,0c0,0-0.1,0,0,0h-0.1C31.9,48.6,32.1,48.6,32.2,48.5L32.2,48.5
				L32.2,48.5z M34.8,48.1L34.8,48.1L34.8,48.1L34.8,48.1z M34.8,48.2L34.8,48.2C34.8,48.2,34.8,48.1,34.8,48.2
				C34.9,48.2,34.8,48.2,34.8,48.2 M32.9,48.5C33,48.5,32.9,48.4,32.9,48.5C33,48.4,33,48.4,32.9,48.5C33,48.5,32.9,48.5,32.9,48.5
				 M44.1,51.8L44.1,51.8C44.1,51.9,44.1,51.9,44.1,51.8C44.1,51.9,44,51.9,44.1,51.8L44.1,51.8z M43.1,51.2L43.1,51.2
				C43.1,51.1,43,51.1,43.1,51.2C43.1,51.1,43.1,51.1,43.1,51.2 M43.2,51.1C43.2,51,43.2,51,43.2,51.1C43.2,51,43.3,51.1,43.2,51.1
				 M43.5,51.4C43.5,51.4,43.5,51.3,43.5,51.4C43.5,51.4,43.6,51.4,43.5,51.4C43.6,51.4,43.6,51.4,43.5,51.4 M43.5,51.5
				C43.4,51.5,43.5,51.5,43.5,51.5C43.4,51.5,43.4,51.5,43.5,51.5C43.4,51.4,43.4,51.4,43.5,51.5 M43.4,51.3
				C43.4,51.2,43.4,51.2,43.4,51.3C43.5,51.2,43.5,51.2,43.4,51.3C43.5,51.3,43.5,51.3,43.4,51.3 M42.9,51.2c0.1,0,0.1,0.1,0.2,0.1
				c0,0,0,0,0.1,0l0,0c0.1,0,0.1,0,0.2,0c0,0,0,0.1,0.1,0.1c0,0.1-0.1,0.1-0.2,0c0,0,0,0,0.1,0h0.1c-0.1,0-0.1,0-0.1,0
				C43.1,51.3,43,51.2,42.9,51.2 M42.8,51.4C42.9,51.4,42.9,51.5,42.8,51.4C42.8,51.4,42.8,51.4,42.8,51.4L42.8,51.4z M42.3,51.2
				C42.3,51.2,42.5,51.3,42.3,51.2C42.4,51.3,42.2,51.3,42.3,51.2 M42.1,51c0.1,0.1,0.2,0.1,0.3,0.1c0,0.1-0.1,0-0.1,0
				C42.2,51,42.1,51,42.1,51 M41.8,50.8c0.1,0,0.1,0.1,0.2,0.1C42,51,41.9,50.9,41.8,50.8 M41.7,50.9C41.8,51,41.9,51,42,51
				C41.8,51,41.7,51,41.7,50.9 M42.8,50.8L42.8,50.8L42.8,50.8C42.8,50.9,42.8,50.9,42.8,50.8 M42.6,51c0-0.1,0.1,0.1,0.2,0.1
				c0-0.1,0,0,0.1,0C42.9,51.2,42.7,51.1,42.6,51 M42.7,51C42.8,51,42.8,51,42.7,51c0.1,0,0.2,0,0.2,0.1
				C42.8,51.1,42.8,51.1,42.7,51C42.7,51,42.6,50.9,42.7,51 M42.7,50.8c-0.1,0-0.1,0.1-0.2,0h0.1c0,0,0,0,0-0.1S42.6,50.6,42.7,50.8
				C42.6,50.7,42.7,50.7,42.7,50.8 M42.2,50.6C42.1,50.7,42.4,50.7,42.2,50.6c0.2,0.1,0.2,0.2,0.2,0.2c0.1,0,0.2,0,0.3,0.1l0,0
				c-0.1-0.1-0.2-0.1-0.1,0C42.5,50.8,42.4,50.8,42.2,50.6C42.3,50.6,42,50.5,42.2,50.6 M42,50.3c0.1,0.1,0.1,0.1,0.2,0.2
				c0.1,0,0.2,0.1,0.3,0.1c0,0,0,0-0.1,0l-0.1-0.1c0.1,0,0.1,0.1,0.1,0s-0.1-0.1-0.2-0.1c0.1,0.1,0,0.1,0.1,0.1h0.1h-0.1
				c0,0,0.1,0.1,0,0s0-0.1-0.1-0.2c0.1,0,0-0.1,0-0.1v-0.1c0,0.1-0.2-0.1-0.2,0V50.3C42,50.4,42.1,50.4,42,50.3
				C42.1,50.3,42,50.3,42,50.3 M41.8,50.4C41.7,50.4,41.7,50.4,41.8,50.4C41.7,50.3,41.9,50.4,41.8,50.4 M41.8,50.2
				C41.9,50.3,41.8,50.3,41.8,50.2c0.1,0.1,0.2,0.1,0.2,0.2C41.8,50.4,41.8,50.3,41.8,50.2C41.8,50.3,41.7,50.3,41.8,50.2
				 M41.6,50.1C41.6,50.1,41.7,50.1,41.6,50.1L41.6,50.1C41.7,50.2,41.6,50.1,41.6,50.1 M41.5,50.1C41.4,50.1,41.5,50.1,41.5,50.1
				c-0.1,0-0.1,0-0.2-0.1C41.3,49.9,41.4,50,41.5,50.1c-0.2-0.1-0.2-0.1-0.2-0.2c0.1,0,0.1,0,0.1,0c0.1,0.1,0.1,0.1,0.2,0.2l0,0
				C41.7,50.2,41.5,50.1,41.5,50.1L41.5,50.1L41.5,50.1 M41.2,50L41.2,50C41.3,50.1,41.2,50,41.2,50c0.1,0.1,0.2,0.1,0.2,0.1l0,0
				C41.3,50.2,41.2,50.1,41.2,50C41.3,50.1,41.2,50,41.2,50 M41.1,49.9C41.1,49.9,41,50,41.1,49.9C41,49.9,41,49.9,41.1,49.9
				c-0.1,0-0.2,0-0.2-0.1C41,49.9,41.1,49.9,41.1,49.9C41.2,49.9,41.3,50,41.1,49.9L41.1,49.9z M41.1,50.1L40.9,50
				C41,50,41.1,50.1,41.1,50.1 M40.9,50.1C41,50.1,40.9,50.1,40.9,50.1c0.1,0.1,0.1,0,0.2,0.1l0,0C41,50.1,40.9,50.2,40.9,50.1
				C40.9,50.1,41,50.1,40.9,50.1 M40.8,49.9C40.8,49.8,41,49.9,40.8,49.9C40.8,49.8,40.9,49.9,40.8,49.9 M40.6,49.9
				c0.1,0,0.1,0,0.2,0C40.8,50,40.7,50,40.6,49.9 M40.4,49.8c0.1,0,0.2,0,0.2,0.1C40.6,49.9,40.4,49.8,40.4,49.8 M40.4,49.6
				C40.5,49.6,40.5,49.6,40.4,49.6C40.5,49.7,40.4,49.7,40.4,49.6 M40.4,49.5c0.1,0,0.2,0.1,0.3,0.1c0,0.1-0.1,0-0.1,0l0,0
				c0,0,0.1-0.1,0-0.1C40.5,49.6,40.4,49.6,40.4,49.5 M39.5,49.2C39.4,49.2,39.4,49.2,39.5,49.2C39.4,49.2,39.5,49.2,39.5,49.2
				 M40.2,49.8L40.2,49.8C40.3,49.8,40.3,49.8,40.2,49.8L40.2,49.8L40.2,49.8 M40.3,49.5L40.3,49.5C40.3,49.5,40.4,49.5,40.3,49.5
				L40.3,49.5z M39.8,49.6c0.1,0,0.1,0.1,0.2,0.1l-0.1-0.1c0.1,0,0.1,0.1,0.1,0.1S39.9,49.7,39.8,49.6
				C39.9,49.7,39.8,49.7,39.8,49.6 M40,49.5C39.7,49.4,40.1,49.5,40,49.5L40,49.5 M39.7,49.4L39.7,49.4
				C39.7,49.3,39.5,49.3,39.7,49.4c0-0.1,0.1,0,0.1,0C39.9,49.4,39.7,49.3,39.7,49.4C39.8,49.4,39.8,49.4,39.7,49.4
				c0.1-0.1,0.4,0,0.4,0.1c-0.1,0-0.2-0.1-0.2-0.1c-0.1,0,0.1,0.1,0,0.1S39.8,49.4,39.7,49.4 M39.3,49.4
				C39.4,49.4,39.4,49.4,39.3,49.4L39.3,49.4c0.1,0,0.1,0,0.2,0v-0.1h0.1l0,0c0.1,0.1,0.1,0,0.2,0v0.1c-0.1,0-0.1,0-0.2-0.1l0,0
				C39.4,49.5,39.4,49.6,39.3,49.4C39.3,49.5,39.2,49.5,39.3,49.4 M39.3,49.4C39.4,49.4,39.4,49.4,39.3,49.4c0.1-0.1,0.2,0,0.2-0.1
				c0.1,0,0.1,0.1,0,0.1l0,0l0,0c0,0,0.2,0,0.2,0.1c-0.1,0-0.1,0-0.2-0.1C39.4,49.4,39.3,49.4,39.3,49.4
				C39.2,49.3,39.3,49.4,39.3,49.4 M39.1,49.2L39.1,49.2L39.1,49.2C39,49.1,39,49.1,39.1,49.2c0.1-0.1,0.1,0,0.3,0h-0.1l0,0
				c0,0,0,0-0.1,0l0,0H39.1 M38.8,49.2c0.1,0,0.2,0,0.2,0C39,49.4,38.9,49.3,38.8,49.2 M38.8,49.2C38.8,49.2,38.7,49.2,38.8,49.2
				C38.7,49.2,38.7,49.2,38.8,49.2h-0.2C38.6,49.1,38.7,49.2,38.8,49.2c-0.2,0-0.1-0.1-0.2-0.1h-0.1C38.5,49,38.7,49.1,38.8,49.2
				C38.8,49.1,38.8,49.1,38.8,49.2C38.8,49,38.8,49,38.8,49.2C38.9,49.1,38.7,49,38.8,49.2L38.8,49.2C38.9,49.2,38.8,49.1,38.8,49.2
				C38.7,49.2,38.8,49.2,38.8,49.2L38.8,49.2 M38.4,49.1C38.5,49.1,38.4,49.2,38.4,49.1c0.2,0.1,0.3,0.1,0.4,0.1l0,0
				C38.6,49.2,38.5,49.2,38.4,49.1L38.4,49.1z M37.7,49L37.7,49C37.8,49,37.8,49,37.7,49C37.8,49.1,37.7,49,37.7,49 M37.5,48.9
				L37.5,48.9L37.5,48.9 M36.9,48.7C37,48.7,37,48.7,36.9,48.7C37,48.8,36.9,48.8,36.9,48.7 M36.9,48.8c0.1,0,0.2,0,0.2,0
				C37.1,48.9,36.9,48.9,36.9,48.8 M36.4,49C36.5,49,36.4,48.9,36.4,49L36.4,49C36.5,49,36.4,49,36.4,49 M36.2,48.9
				c0.1,0,0.2,0,0.2,0.1C36.4,49,36.3,49,36.2,48.9C36.3,49,36.3,49,36.2,48.9C36.2,49,36.2,48.9,36.2,48.9 M35.9,49
				C35.9,48.9,36,49,35.9,49c0.2,0,0.3,0,0.3,0C36.1,49,36,49,35.9,49 M35.7,48.8L35.7,48.8L35.7,48.8 M37,49.2c0.1,0,0.1,0,0.2,0
				C37.2,49.3,37.1,49.2,37,49.2 M36.8,49.2c0.1,0,0.1,0,0.2,0c-0.1,0-0.1,0,0,0.1C36.8,49.2,36.8,49.2,36.8,49.2 M36.5,49.3
				C36.5,49.2,36.5,49.2,36.5,49.3C36.6,49.3,36.5,49.3,36.5,49.3 M36.4,49.2C36.5,49.2,36.3,49.1,36.4,49.2
				C36.5,49.2,36.4,49.2,36.4,49.2 M35.7,49.1C35.7,49.1,35.7,49.2,35.7,49.1C35.6,49.1,35.6,49.1,35.7,49.1
				C35.6,49.1,35.7,49.1,35.7,49.1 M35.6,49.3C35.6,49.3,35.5,49.3,35.6,49.3L35.6,49.3C35.7,49.2,35.6,49.2,35.6,49.3
				c0.1-0.1,0.2-0.1,0.4-0.1c0.1,0,0.1,0,0.1-0.1c-0.1,0-0.2,0-0.2-0.1c0,0,0.2,0,0.2,0.1c0,0-0.1,0,0,0h0.1h-0.1h0.1l0,0
				c0,0,0.1,0,0,0.1c0.1,0,0.1,0,0.1,0l0.1,0.1h-0.1c0,0,0.1,0,0-0.1h-0.1c0,0,0.1,0,0,0s-0.1,0-0.2,0h-0.1c0.1,0,0.1,0,0.2,0
				c-0.1,0-0.1,0-0.2,0h-0.2c0,0,0.2,0,0.1,0C35.7,49.3,35.7,49.3,35.6,49.3 M35.1,49c0,0,0.1-0.1,0.2-0.1l0,0c0,0,0.1,0,0.2,0
				c0,0,0,0,0-0.1c0.1,0,0.1,0,0.2,0c0,0,0,0,0,0.1C35.4,49,35.3,49,35.1,49 M34.4,49c0.1,0,0.2,0,0.2,0h-0.1l0,0l0,0v0.1
				c0-0.1,0.1,0,0.2,0l0,0c0.1,0,0.3-0.1,0.3,0c-0.1,0-0.2,0-0.1,0.1c-0.1,0-0.2,0-0.2,0C34.7,49,34.5,49.1,34.4,49 M33.9,49.5
				C34,49.5,34,49.5,33.9,49.5C34,49.5,34,49.5,33.9,49.5L33.9,49.5z M33.8,49.2L33.8,49.2L33.8,49.2 M33.7,49.1
				C33.9,49.1,33.7,49.1,33.7,49.1C33.8,49,33.9,49,34,49s0,0,0,0.1c0.1,0,0.1-0.1,0.2-0.1c0,0,0.1,0,0.1,0.1c-0.1,0-0.2,0-0.1,0
				c-0.1,0-0.1,0.1-0.2,0.1C33.9,49,33.8,49.1,33.7,49.1 M33.7,49C33.7,49.1,33.7,49.1,33.7,49C33.6,49,33.7,49.1,33.7,49
				C33.5,49.1,33.6,49,33.7,49 M28.4,53.1C28.4,53.1,28.5,53.1,28.4,53.1C28.4,53.1,28.5,53.2,28.4,53.1L28.4,53.1 M27.3,52.8
				C27.4,52.8,27.4,52.8,27.3,52.8C27.4,52.9,27.3,52.9,27.3,52.8 M27.2,52.3L27.2,52.3C27.2,52.4,27.1,52.3,27.2,52.3 M27.2,52.2
				C27.2,52.2,27.2,52.3,27.2,52.2C27.1,52.3,27.2,52.2,27.2,52.2 M28.5,51.4C28.4,51.4,28.4,51.4,28.5,51.4L28.5,51.4
				C28.5,51.3,28.5,51.4,28.5,51.4 M29.3,50.6C29.2,50.6,29.3,50.7,29.3,50.6C29.2,50.7,29.3,50.6,29.3,50.6L29.3,50.6 M29.8,50.8
				C29.7,50.8,29.7,50.8,29.8,50.8C29.7,50.8,29.7,50.8,29.8,50.8C29.7,50.7,29.7,50.8,29.8,50.8C29.8,50.7,29.7,50.7,29.8,50.8
				 M31,50.2C30.9,50.2,30.9,50.2,31,50.2C31,50.2,31,50.2,31,50.2 M31.5,49.8L31.5,49.8C31.4,49.8,31.5,49.7,31.5,49.8 M31.8,49.9
				C31.7,49.9,31.7,49.9,31.8,49.9L31.8,49.9 M32.1,49.8c-0.1,0-0.2,0-0.2,0C32,49.8,32.1,49.7,32.1,49.8 M32.6,49.5
				c0,0-0.1,0.1-0.2,0.1C32.4,49.5,32.5,49.5,32.6,49.5 M33.1,49.6c-0.1,0.1-0.2,0-0.2,0.1c0,0,0,0,0.1,0
				C33,49.6,33.1,49.6,33.1,49.6 M33.4,49.2c-0.1,0-0.2,0-0.2,0C33.2,49.1,33.3,49.1,33.4,49.2C33.3,49.1,33.4,49.2,33.4,49.2
				 M32.8,49.2c0,0,0.1,0,0.2-0.1c0,0,0,0,0.1,0c0,0,0,0,0.1-0.1c0,0-0.1,0,0,0.1c0.1,0,0.1,0,0.2,0C33.1,49.2,32.9,49.2,32.8,49.2
				 M31.5,49.6C31.6,49.6,31.6,49.5,31.5,49.6C31.6,49.6,31.6,49.6,31.5,49.6C31.7,49.5,31.5,49.6,31.5,49.6 M31.1,49.7
				C31.2,49.7,31.2,49.7,31.1,49.7C31.2,49.7,31.2,49.7,31.1,49.7L31.1,49.7z M30.9,49.7C30.9,49.7,30.9,49.6,30.9,49.7
				C31.1,49.7,31,49.7,30.9,49.7C31,49.7,31.1,49.7,30.9,49.7L30.9,49.7z M29.4,50.3C29.5,50.3,29.5,50.3,29.4,50.3
				C29.5,50.3,29.5,50.3,29.4,50.3L29.4,50.3z M30.7,54.6C30.7,54.5,30.7,54.5,30.7,54.6C30.7,54.5,30.7,54.4,30.7,54.6
				C30.7,54.5,30.8,54.6,30.7,54.6 M31.2,54.7C31.2,54.7,31.2,54.8,31.2,54.7C31.1,54.7,31.1,54.7,31.2,54.7
				C31.1,54.7,31.2,54.7,31.2,54.7 M42.8,53.6C42.7,53.6,42.7,53.7,42.8,53.6C42.7,53.6,42.8,53.5,42.8,53.6 M43.1,53.3
				C43.1,53.3,43,53.3,43.1,53.3c-0.1,0.1-0.1,0.1-0.2,0.1C42.9,53.4,43,53.3,43.1,53.3C43,53.3,43,53.3,43.1,53.3
				C43,53.3,43.1,53.2,43.1,53.3 M43.5,53.1L43.5,53.1C43.4,53.2,43.4,53.2,43.5,53.1 M48.7,48.2C48.7,48.1,48.8,48.1,48.7,48.2
				L48.7,48.2z M48.3,48.7C48.3,48.7,48.3,48.6,48.3,48.7C48.4,48.6,48.3,48.6,48.3,48.7 M48.9,49.5C48.9,49.5,48.8,49.5,48.9,49.5
				C48.9,49.4,48.9,49.4,48.9,49.5L48.9,49.5 M48.5,50.1C48.5,50.1,48.5,50,48.5,50.1C48.5,50,48.4,50,48.5,50.1L48.5,50.1
				C48.5,50,48.6,49.9,48.5,50.1C48.5,50,48.5,50,48.5,50.1 M47.5,49.3c0.1,0,0.1-0.2,0.2-0.2C47.7,49.2,47.6,49.2,47.5,49.3
				C47.6,49.3,47.6,49.3,47.5,49.3C47.6,49.3,47.5,49.4,47.5,49.3 M48.3,50.2L48.3,50.2C48.4,50.2,48.3,50.2,48.3,50.2L48.3,50.2
				 M48,50.4C48,50.4,48.1,50.3,48,50.4C48.1,50.4,48,50.5,48,50.4 M46.2,50.7C46.2,50.7,46.2,50.8,46.2,50.7
				C46.1,50.8,46.2,50.7,46.2,50.7 M45.1,52.2L45.1,52.2L45.1,52.2C45.1,52.3,45.1,52.3,45.1,52.2 M42.5,54c0.1,0,0.2-0.1,0.2-0.1
				C42.6,53.9,42.5,54,42.5,54 M42.3,54.2C42.3,54.2,42.3,54.1,42.3,54.2L42.3,54.2 M42,54.1c0,0-0.1,0.1-0.2,0.1
				C41.9,54.2,41.9,54.1,42,54.1 M41.2,54.6C41.3,54.6,41.2,54.6,41.2,54.6c0.1-0.1,0.2-0.1,0.3-0.1c0,0,0,0,0.1-0.1
				c0.1,0,0.3-0.1,0.4-0.2c0,0,0.1-0.1,0.1,0H42l-0.1,0.1h-0.1c-0.1,0-0.1,0.1-0.2,0.1c0,0,0,0-0.1,0C41.4,54.6,41.2,54.7,41.2,54.6
				 M38.3,55.5c0.1,0,0.1-0.1,0.2-0.1c0.1,0,0.1,0,0.1,0l0,0l0,0c0.1,0,0.2,0,0.2,0C38.7,55.4,38.6,55.4,38.3,55.5
				C38.5,55.5,38.4,55.6,38.3,55.5 M34.9,55.3C35,55.3,35,55.3,34.9,55.3C35.1,55.3,34.9,55.3,34.9,55.3 M35.4,55.4
				C35.3,55.4,35.3,55.3,35.4,55.4C35.3,55.4,35.4,55.3,35.4,55.4 M35.2,55.4C35.3,55.4,35.2,55.4,35.2,55.4
				C35.5,55.4,35.3,55.5,35.2,55.4 M38.3,55.5C38.3,55.5,38.2,55.5,38.3,55.5C38.3,55.6,38.3,55.6,38.3,55.5
				C38.2,55.6,38.1,55.5,38.3,55.5 M37,56.3h0.2C37.1,56.3,37,56.4,37,56.3 M36.3,56.4c0.1,0,0.1,0,0.2,0c0,0,0.1,0,0,0.1
				C36.4,56.4,36.3,56.4,36.3,56.4 M34.8,56.3L34.8,56.3C34.9,56.4,34.8,56.4,34.8,56.3 M34.9,55.6c0.1,0,0.1,0,0.2,0
				c0-0.1,0.1,0,0.1,0c0.1,0,0.1,0,0.1,0c0,0.1,0.1,0,0.1,0.1h0.1c-0.1,0-0.1,0-0.1,0h0.1c0,0,0.2,0.1,0.2,0l0,0c0,0,0.1-0.1,0.2,0
				h-0.1c0.1,0,0.2,0,0.3,0l0,0h0.2l0,0h0.1l0,0c0.1,0,0,0,0,0.1c0.1,0,0,0.1,0.2,0.1c0,0,0,0,0.1,0h0.1c0.1,0,0.3,0,0.5-0.1
				c0,0,0,0,0.1,0c0.3,0,0.4,0,0.7-0.1c0,0.1-0.2,0.1-0.3,0.1s-0.3,0.1-0.4,0.1c0,0,0,0-0.1,0c-0.2,0.1-0.3,0-0.5,0c0,0,0.1,0,0,0
				h-0.1c-0.2,0-0.4,0-0.4,0c-0.1,0-0.2,0-0.3,0c0-0.1-0.1,0-0.2,0c0,0,0.1,0,0.1,0.1c-0.1,0-0.1,0-0.2,0c0-0.1,0.1,0,0.1,0
				s-0.1,0-0.2,0l0,0c0,0,0,0-0.1,0s-0.2,0-0.2,0s0,0,0,0.1c-0.1,0-0.1,0-0.1,0c-0.2,0-0.3,0-0.3,0l0,0c0,0,0-0.1-0.1-0.1
				s-0.1,0.1-0.1,0c0.1,0,0.2,0,0.2,0s-0.1,0-0.2,0c-0.1,0,0,0-0.1,0s0.1-0.1,0.2,0C34.8,55.6,35,55.6,34.9,55.6 M33.8,55.5
				L33.8,55.5C33.7,55.4,33.8,55.4,33.8,55.5 M33.1,55.1c0.1,0,0.2,0,0.2,0S33.2,55.2,33.1,55.1C33.2,55.1,33.2,55.1,33.1,55.1
				C33.2,55.1,33.1,55.1,33.1,55.1 M32.9,55.2L32.9,55.2C33,55.2,33,55.2,32.9,55.2 M32.9,55.2C32.9,55.1,33,55.2,32.9,55.2
				C33,55.3,32.9,55.2,32.9,55.2 M32.7,56c0.1,0,0.1,0,0.2,0.1C32.7,56,32.7,56,32.7,56 M32.6,56.1L32.6,56.1
				C32.5,56,32.5,56,32.6,56.1 M32.3,55.9C32.4,55.9,32.4,55.9,32.3,55.9C32.3,56,32.2,55.9,32.3,55.9 M32.1,55.2
				C32.2,55.2,32.1,55.2,32.1,55.2c0.1,0.1,0.4,0.1,0.4,0.2c-0.1,0-0.2-0.1-0.2,0c0,0,0.1,0,0,0C32.3,55.3,32.1,55.3,32.1,55.2
				 M31.9,55.8C32,55.8,32,55.8,31.9,55.8C32.1,55.9,32,55.9,31.9,55.8C32,55.9,31.9,55.9,31.9,55.8 M31.4,55c0.1,0.1,0.2,0,0.2,0.1
				C31.6,55,31.5,55.1,31.4,55L31.4,55L31.4,55 M31.1,55C31.2,55,31.2,55,31.1,55L31.1,55 M29.9,54.5C29.9,54.6,29.9,54.5,29.9,54.5
				c0.1,0,0.2,0.1,0.2,0c0,0-0.1,0-0.1-0.1c0.1,0,0.1,0,0.2,0.1c0,0,0,0.1-0.1,0.1C30,54.6,29.9,54.6,29.9,54.5 M28.6,53.8
				C28.6,53.9,28.6,53.8,28.6,53.8C28.7,53.9,28.7,53.9,28.6,53.8C28.6,53.9,28.6,53.9,28.6,53.8 M28.3,53.7
				C28.4,53.7,28.4,53.7,28.3,53.7L28.3,53.7c0.2,0.1,0.2,0,0.3,0.1C28.5,53.9,28.4,53.8,28.3,53.7L28.3,53.7
				C28.3,53.7,28.2,53.7,28.3,53.7C28.1,53.6,28.2,53.6,28.3,53.7 M25.4,51.7c-0.1,0.1-0.1,0.1-0.3,0.2l0,0
				C25.3,51.9,25.3,51.8,25.4,51.7 M25.5,51.7C25.6,51.7,25.5,51.7,25.5,51.7L25.5,51.7C25.6,51.6,25.5,51.7,25.5,51.7 M25.9,51.4
				l-0.2,0.1C25.8,51.4,25.8,51.4,25.9,51.4 M26.9,51.2c-0.1,0-0.2,0.1-0.2,0.1C26.8,51.2,26.8,51.2,26.9,51.2 M26.7,50.8
				c-0.1,0.1-0.1,0.1-0.2,0.1C26.6,50.9,26.7,50.8,26.7,50.8 M28.5,50.2C28.4,50.2,28.4,50.3,28.5,50.2
				C28.4,50.3,28.4,50.3,28.5,50.2C28.4,50.3,28.5,50.2,28.5,50.2 M28.6,50.1C28.6,50.1,28.6,50.2,28.6,50.1c-0.1,0-0.1,0.1-0.2,0.1
				C28.4,50.1,28.6,50.1,28.6,50.1 M29.5,49.4l-0.2,0.1C29.4,49.5,29.4,49.4,29.5,49.4 M30.4,49.1L30.4,49.1
				C30.3,49.1,30.3,49,30.4,49.1C30.4,49,30.4,49,30.4,49.1C30.5,49,30.4,49.1,30.4,49.1 M30.6,49L30.6,49C30.5,49,30.5,49,30.6,49
				 M30.7,49.2c-0.1,0-0.3,0.1-0.3,0.1s0,0,0.1,0C30.5,49.2,30.7,49.2,30.7,49.2 M31.5,48.8C31.6,48.8,31.6,48.8,31.5,48.8
				C31.5,48.9,31.6,48.9,31.5,48.8L31.5,48.8z M31.3,48.8C31.2,48.8,31.2,48.8,31.3,48.8C31.2,48.8,31.2,48.7,31.3,48.8
				C31.2,48.8,31.3,48.8,31.3,48.8 M31.7,48.7c-0.1,0-0.2,0.1-0.2,0C31.6,48.7,31.7,48.6,31.7,48.7 M31.7,48.7
				c0,0.1-0.2,0.1-0.3,0.1h-0.1C31.5,48.7,31.5,48.7,31.7,48.7 M36.4,55.6c0,0,0.1,0,0.2,0C36.5,55.6,36.5,55.6,36.4,55.6
				C36.5,55.6,36.5,55.6,36.4,55.6C36.5,55.6,36.4,55.6,36.4,55.6 M43.2,51.5L43.2,51.5C43.1,51.4,43.1,51.4,43.2,51.5 M27.9,53.4
				c0-0.1-0.2-0.2-0.3-0.2c0,0,0,0,0.1,0C27.7,53.3,27.9,53.4,27.9,53.4 M27.1,51.6c0.1,0,0.1-0.1,0.2-0.1
				C27.2,51.5,27.1,51.6,27.1,51.6 M41.6,49.7c0-0.1-0.2-0.1-0.3-0.2c-0.1,0-0.2-0.1-0.2-0.1C41.3,49.6,41.5,49.7,41.6,49.7
				 M44,51.6C43.9,51.6,43.9,51.6,44,51.6c-0.1-0.1-0.1,0-0.2,0C43.9,51.7,43.9,51.7,44,51.6 M42.1,49.9c0-0.1-0.2-0.1-0.3-0.2
				C41.9,49.8,42,49.9,42.1,49.9 M40,49.1c0.1,0,0.3,0.1,0.4,0.1c-0.2-0.1-0.4-0.1-0.7-0.3C39.6,49,39.9,49.1,40,49.1 M44.1,51.7
				l-0.2-0.1C44,51.6,44.1,51.7,44.1,51.7 M44.7,52.1L44.7,52.1C44.6,52.1,44.6,52.1,44.7,52.1 M44.4,51.9c-0.1-0.1-0.1-0.1-0.2-0.1
				C44.2,51.8,44.2,51.8,44.4,51.9C44.3,51.8,44.3,51.8,44.4,51.9 M42.3,50.8C42.2,50.8,42.2,50.7,42.3,50.8
				c-0.2-0.1-0.2-0.2-0.3-0.2l0,0C42,50.6,42.1,50.7,42.3,50.8C42.1,50.8,42.2,50.9,42.3,50.8 M40.4,54.4c-0.2,0-0.3,0.1-0.5,0.2
				C40,54.5,40.2,54.5,40.4,54.4L40.4,54.4 M30.2,55.6l0.2,0.1C30.4,55.6,30.2,55.5,30.2,55.6 M44.9,53.4
				C44.9,53.4,45,53.4,44.9,53.4l0.2-0.2C45.1,53.3,45.1,53.3,44.9,53.4 M31.4,56c0.1,0,0.2,0,0.3,0.1c0.1,0,0.2,0.1,0.3,0
				C31.8,56.1,31.5,55.9,31.4,56 M37.8,56.3c-0.1,0.1,0.2,0,0.2,0s0,0,0.1,0C38.1,56.3,37.9,56.3,37.8,56.3 M33,56.2
				C33.1,56.2,33.1,56.2,33,56.2C33,56.2,33,56.2,33,56.2 M31.2,55.8C31.2,55.8,31.3,55.8,31.2,55.8c0.1,0.1,0.3,0.2,0.3,0.1
				C31.4,55.9,31.4,55.9,31.2,55.8 M30.5,55.6c0.1,0,0.1,0,0.2,0C30.7,55.6,30.5,55.5,30.5,55.6 M31.3,55.8c0.1,0,0.2,0.1,0.2,0
				C31.5,55.8,31.3,55.7,31.3,55.8 M31.7,55.8C31.7,55.9,31.6,55.8,31.7,55.8C31.7,55.9,31.7,55.9,31.7,55.8
				C31.8,55.9,31.7,55.8,31.7,55.8 M41.5,54c-0.1,0-0.2,0.1-0.3,0.1c-0.2,0.1-0.4,0.2-0.5,0.2s-0.2,0-0.2,0.1
				c0.2-0.1,0.4-0.1,0.6-0.2C41.1,54.1,41.3,54,41.5,54 M39.5,54.7c0,0-0.2,0-0.2,0.1C39.4,54.8,39.5,54.7,39.5,54.7 M38.2,55.1
				c0,0-0.1,0-0.2,0C38,55.1,38.1,55.1,38.2,55.1 M39.3,54.8c0-0.1-0.3,0-0.3,0.1C39,54.9,39.2,54.8,39.3,54.8 M43.1,53.1
				c-0.1,0-0.1,0.1-0.2,0.1C42.9,53.2,43,53.1,43.1,53.1 M44.7,52C44.7,52,44.6,52,44.7,52c-0.3,0.2-0.5,0.4-0.7,0.5
				c0.1,0,0.1-0.1,0.2-0.1C44.3,52.3,44.5,52.2,44.7,52 M41.7,53.8c0,0-0.3,0.1-0.2,0.1C41.6,53.9,41.6,53.9,41.7,53.8 M42.8,53.3
				C42.8,53.3,42.7,53.3,42.8,53.3C42.7,53.4,42.8,53.3,42.8,53.3 M28,54.6c0,0.1,0.2,0.1,0.3,0.2C28.3,54.7,28.1,54.7,28,54.6
				 M35.7,48.2c0,0-0.1,0-0.2,0c0,0,0,0,0.1,0c0,0,0,0-0.1,0C35.5,48.1,35.6,48.2,35.7,48.2 M36.3,48.1c0-0.1-0.1,0-0.2,0H36.3
				 M35.4,48c-0.1,0-0.2,0-0.2,0C35.3,48,35.5,48,35.4,48 M36.1,48h-0.2c-0.1,0-0.1,0-0.1,0C35.8,48.1,36,48,36.1,48 M35.5,48.1
				L35.5,48.1L35.5,48.1c-0.1,0-0.1,0-0.2,0c0,0-0.1-0.1-0.2,0h0.1c0,0,0.1,0.1,0,0.1h0.1l0,0C35.3,48.1,35.4,48.1,35.5,48.1
				L35.5,48.1 M34,48.2c-0.1,0-0.2,0-0.3,0c0,0,0,0-0.1,0C33.7,48.3,33.9,48.2,34,48.2C34,48.2,33.9,48.2,34,48.2
				c-0.2,0.1-0.5,0.1-0.5,0.2c0.1,0,0.1-0.1,0.2-0.1c0,0,0.1,0,0,0c0.2,0,0.4-0.1,0.6-0.1L34,48.2c0.1,0,0.2-0.1,0.2,0
				C34.4,48.2,34.2,48.2,34,48.2C34,48.3,34.1,48.3,34,48.2c0,0.1,0,0.1-0.1,0.1C33.9,48.3,34,48.3,34,48.2C34,48.3,34,48.2,34,48.2
				S34.1,48.2,34,48.2L34,48.2 M34.3,48.1L34.3,48.1C34.3,48.2,34.2,48.1,34.3,48.1C34.2,48.1,34.2,48.1,34.3,48.1
				C34.2,48.1,34.1,48.1,34.3,48.1c-0.1-0.1-0.1,0-0.2,0h0.1c0,0-0.1,0-0.2,0c0,0,0,0,0.1,0s0.2,0.1,0.4,0l0,0c0.1,0,0.1,0.1,0.2,0
				c0,0,0-0.1,0.1-0.1c0-0.1-0.2,0-0.3,0c0,0,0,0,0,0.1C34.3,48.1,34.3,48.1,34.3,48.1 M36.4,48.2C36.4,48.2,36.3,48.2,36.4,48.2
				c-0.1,0-0.2,0-0.3,0s-0.2,0-0.2,0c0.1,0,0.1,0,0.1,0l0,0c-0.1,0-0.1,0-0.3,0c0,0.1,0.1,0,0.1,0h0.1c0.1,0,0.3,0,0.4,0
				C36.4,48.3,36.3,48.3,36.4,48.2c-0.1,0.1-0.3,0.1-0.4,0.1c0,0,0.1-0.1,0.2-0.1c0,0,0,0-0.1,0C36.2,48.3,36.3,48.2,36.4,48.2
				 M33.6,48.2c-0.1,0-0.1,0-0.3,0.1c0.1,0,0-0.1-0.1,0c0,0.1-0.1,0-0.1,0.1c0,0,0.1,0,0,0c0,0,0.1,0,0.2,0h-0.1l0,0h0.2
				c0,0,0,0.1,0.1,0C33.6,48.2,33.4,48.2,33.6,48.2 M37.2,48.2c0.1,0,0.1,0,0.2,0C37.4,48.1,37.2,48.1,37.2,48.2 M37.2,48.2
				C37.1,48.2,37.1,48.2,37.2,48.2c-0.2-0.1-0.3-0.1-0.3-0.1C37,48.1,37.1,48.1,37.2,48.2c-0.1-0.1-0.1-0.1-0.2-0.1
				C37.1,48.2,37.2,48.2,37.2,48.2 M49.8,56.8L49.8,56.8C49.8,56.7,49.8,56.7,49.8,56.8c0-0.2-0.1-0.3-0.2-0.4
				c-0.1-0.1-0.2-0.3-0.3-0.4c0,0-0.1,0-0.1-0.1c-0.2-0.2-0.3-0.4-0.4-0.6l-0.1-0.1v-0.1L48.6,55c-0.1-0.1-0.2-0.3-0.4-0.5
				c0,0,0,0-0.1,0c-0.1-0.1,0,0,0,0c-0.1-0.2-0.2-0.2-0.2-0.3s-0.1,0-0.1-0.1c0,0,0-0.1-0.1-0.1c0.1,0,0-0.1,0-0.1h0.1
				c0,0,0,0,0,0.1s0.1,0,0.1,0.1l0,0c0.1,0.1,0,0.1,0,0.2c0,0,0,0,0-0.1c0.1,0.1,0.1,0.1,0.1,0.2c0,0.1,0,0.1,0.1,0.2
				c0,0,0-0.1-0.1-0.1h0.1l0,0c0,0,0,0,0,0.1c0,0,0,0.1,0.1,0.1v-0.1c0,0,0,0,0-0.1c0.1,0,0.1,0.1,0.2,0.2l-0.1-0.1
				c-0.1,0,0,0.1,0,0.1c0.1,0.1,0,0,0.1,0c0,0,0.1,0,0.2,0.1c0,0,0-0.1-0.1-0.1c0-0.1,0.1,0,0.1,0c0-0.1-0.1-0.1-0.1-0.1
				s0-0.1-0.1-0.1c-0.1-0.1-0.2-0.2-0.3-0.3c0,0,0-0.1-0.1-0.1c-0.1-0.1-0.3-0.3-0.4-0.4c-0.1-0.1-0.1-0.1-0.2-0.1
				c-0.3-0.3-0.6-0.6-1-0.9h-0.1c-0.1,0-0.1-0.1-0.2-0.2c-0.1-0.1-0.1-0.1-0.2-0.1c-0.1-0.1-0.1,0-0.1-0.1c-0.1-0.1-0.2-0.2-0.3-0.3
				c0,0,0,0,0,0.1c-0.1,0-0.2-0.2-0.1-0.2c-0.1,0-0.2-0.1-0.2-0.1c-0.1-0.1-0.3-0.2-0.3-0.3h-0.1c0,0,0,0-0.1-0.1s-0.3-0.2-0.4-0.2
				l-0.1-0.1l0,0c-0.1-0.1-0.2-0.2-0.3-0.2l0,0c-0.1,0-0.1-0.1-0.2-0.1c-0.1,0,0,0-0.1-0.1c-0.1,0-0.2-0.1-0.3-0.1s-0.2-0.1-0.2-0.1
				L43,50.4c-0.2-0.1-0.3-0.2-0.5-0.3c-0.1-0.1-0.2-0.2-0.4-0.2c0,0,0,0-0.1-0.1c0,0,0,0-0.1,0s-0.1-0.1-0.2-0.1
				c-0.1-0.1-0.3-0.1-0.4-0.2c0,0,0,0-0.1,0h-0.1L41,49.4c0,0,0,0-0.1,0c0,0,0,0-0.1-0.1c-0.2-0.1-0.4-0.2-0.6-0.2c0,0,0,0-0.1,0
				S39.9,49,39.8,49c-0.1-0.1-0.2-0.1-0.4-0.2c0,0,0.1,0,0.1,0.1c-0.1,0-0.1,0-0.1-0.1c-0.1,0-0.2,0-0.3-0.1c-0.1,0,0,0-0.1-0.1
				c-0.3-0.1-0.5-0.1-0.7-0.2c-0.1,0-0.1,0-0.1-0.1c0.4-0.1,0.3-0.1,0.1-0.1c0,0-0.1,0-0.2,0H38h-0.1c-0.2,0-0.4,0-0.6-0.1
				c0,0,0.1,0,0.2,0c0,0,0.2,0.1,0.2,0c0.1,0,0.1,0.1,0.2,0.1c0,0,0,0,0.1,0c0,0,0.1,0.1,0.2,0c0,0.1-0.1,0-0.1,0.1
				c0.2,0,0.2,0,0.4,0.1c0,0.1-0.1,0-0.1,0.1c0.2,0,0.3,0.1,0.4,0.1c0.1,0,0,0,0,0c0.1,0,0.1,0,0.1,0c0.1,0,0,0,0-0.1
				c0.2,0.1,0.3,0.1,0.5,0.1c0,0,0,0-0.1,0c0.1,0,0.3,0.1,0.5,0.1c0.1,0,0,0.1,0.1,0.1c0,0,0.1,0,0.2,0l0,0c0.1,0,0.1,0,0.1,0.1
				c0,0-0.1,0-0.2-0.1c0,0,0,0.1-0.1,0l0,0H40c-0.3-0.1-0.5-0.1-0.7-0.2c-0.2-0.1-0.4-0.1-0.7-0.2l0,0c-0.2,0-0.3-0.1-0.4-0.1l0,0
				c-0.1,0-0.1,0-0.1,0c-0.1,0-0.1,0,0-0.1c0,0,0,0-0.1,0l0.1,0.1c0.1,0,0.1,0,0.2,0c0,0-0.1,0-0.1-0.1c0.1,0,0.2,0,0.1,0.1
				c0.1,0,0.1,0.1,0.2,0c0,0,0,0-0.1,0c0,0,0.2,0,0.1,0.1c0.1,0,0.3,0,0.4,0.1c0.1,0,0.1,0,0.2,0l0,0c0.2,0,0.5,0.2,0.7,0.2
				c0,0-0.1,0-0.1-0.1c0.1,0,0.2,0.1,0.2,0.1c0.3,0.1,0.5,0.2,0.8,0.3c0,0,0.1,0,0,0c0.1,0,0.1,0,0.1,0.1c0.2,0.1,0.4,0.1,0.6,0.2
				c0.1,0,0.2,0.1,0.3,0.1s0.1,0,0.2,0.1l0.1,0.1h0.1c0,0,0.2,0.1,0.3,0.2l0,0c0.1,0,0.1,0,0.2,0.1c0.1,0,0.1,0,0.1,0.1
				c0.1,0,0.1,0,0.2,0.1c0,0,0,0-0.1,0c0,0.1,0.1,0.1,0.1,0.1c0.3,0.2,0.5,0.3,0.8,0.5c0.1,0.1,0.3,0.2,0.4,0.3h0.1
				c0.1,0.1,0.2,0.2,0.2,0.1l0.2,0.2c0,0,0-0.1-0.1-0.1l0.1,0.1c0,0,0.1,0,0.2,0.1l0,0c0.1,0.1,0.2,0.2,0.4,0.3
				c0.1,0,0.2,0.1,0.3,0.2c0,0-0.1-0.1-0.1,0c0.1,0.1,0.1,0.1,0.2,0.2c0.1,0.1,0.2,0.1,0.2,0.2c0,0,0,0,0-0.1c0.1,0,0.1,0.1,0.1,0.1
				s0.1,0.1,0.1,0c0.1,0.1,0.3,0.3,0.4,0.4c0-0.1,0.1,0,0.1,0.1c0,0-0.1-0.1-0.1,0c0.2,0.2,0.4,0.4,0.5,0.5l0,0v0.1
				c0.1,0.1,0.2,0.2,0.2,0.2c0.1,0.1,0.3,0.3,0.4,0.4l0.1,0.1c0.1,0.2,0.4,0.4,0.6,0.6c0.1,0.1,0.1,0.1,0.1,0.2
				c0.1,0.1,0.2,0.2,0.3,0.4c0.1,0.2,0.2,0.3,0.3,0.5c0,0,0,0,0.1,0.1V56c0,0.1,0.1,0.1,0.1,0.2c0.2,0.2,0.2,0.3,0.4,0.5
				c0,0,0,0,0-0.1l-0.1-0.2c0,0,0,0,0-0.1c0,0,0,0,0,0.1s0,0,0.1,0C49.7,56.7,49.7,56.7,49.8,56.8C49.7,56.8,49.8,56.8,49.8,56.8
				 M39.5,48.8c0,0-0.1,0-0.2,0C39.4,48.8,39.5,48.8,39.5,48.8 M38.5,48.4c-0.1,0-0.1,0-0.2,0C38.3,48.3,38.5,48.3,38.5,48.4
				C38.4,48.3,38.5,48.3,38.5,48.4 M38.8,48.3h-0.2C38.6,48.3,38.7,48.2,38.8,48.3 M39.6,48.5c-0.1,0-0.2,0-0.2-0.1
				C39.5,48.5,39.6,48.5,39.6,48.5 M40.2,49L40,48.9C40,49,40.2,49,40.2,49 M41.9,49.5c-0.1,0-0.1,0-0.2-0.1
				C41.8,49.4,41.9,49.4,41.9,49.5 M42.6,49.9C42.5,49.9,42.5,49.8,42.6,49.9L42.6,49.9C42.7,50,42.6,49.9,42.6,49.9 M45.1,51.7
				C45,51.7,45,51.6,45.1,51.7C45.1,51.6,45.1,51.6,45.1,51.7 M45.1,51.8c-0.1-0.1-0.3-0.1-0.3-0.2c0.1,0,0,0,0.1,0.1
				C45,51.8,45.2,51.8,45.1,51.8 M45.5,52.2C45.4,52.2,45.4,52.1,45.5,52.2C45.5,52.1,45.5,52.2,45.5,52.2 M45.6,52.2
				C45.7,52.2,45.7,52.2,45.6,52.2C45.7,52.4,45.6,52.3,45.6,52.2 M46.6,52.7L46.6,52.7C46.6,52.6,46.7,52.7,46.6,52.7 M46.9,53
				c-0.1-0.1-0.1,0-0.2-0.1C46.7,52.9,46.8,52.9,46.9,53C46.9,52.9,46.8,52.9,46.9,53L46.9,53 M47.6,53.5L47.6,53.5
				C47.6,53.6,47.5,53.5,47.6,53.5 M47.6,53.7C47.5,53.6,47.5,53.6,47.6,53.7C47.5,53.6,47.5,53.6,47.6,53.7L47.6,53.7 M48.6,54.6
				c0.1,0,0.1,0,0.2,0.1C48.7,54.7,48.6,54.6,48.6,54.6L48.6,54.6C48.6,54.6,48.5,54.6,48.6,54.6C48.5,54.6,48.5,54.6,48.6,54.6
				C48.5,54.5,48.5,54.6,48.6,54.6 M48.5,54.4L48.5,54.4C48.4,54.3,48.5,54.4,48.5,54.4 M48.3,54.3c0.1,0,0.1,0.1,0.2,0.1v0.1
				C48.4,54.5,48.3,54.4,48.3,54.3 M48.2,54.1C48.3,54.1,48.2,54.2,48.2,54.1l0.2,0.2C48.3,54.3,48.2,54.1,48.2,54.1 M47.9,53.8
				C47.9,53.9,48,53.9,47.9,53.8C47.9,53.9,47.9,53.8,47.9,53.8 M49.3,56.1C49.2,56.1,49.2,56.1,49.3,56.1
				C49.2,56,49.2,56,49.3,56.1C49.3,56,49.2,56,49.3,56.1 M49.4,56.4L49.4,56.4L49.4,56.4c-0.1-0.1-0.1-0.1-0.2-0.1
				C49.3,56.2,49.3,56.3,49.4,56.4L49.4,56.4 M36.8,48.3c-0.1,0-0.1,0-0.3-0.1c-0.1,0-0.1,0-0.2,0.1c0.1,0.1,0.2,0.1,0.3,0.1
				c0,0-0.1-0.1-0.2-0.1c0,0,0,0,0.1,0C36.5,48.4,36.8,48.5,36.8,48.3C36.9,48.3,36.8,48.4,36.8,48.3c0.1,0,0.3,0.1,0.4,0.1v0.1
				c-0.1,0-0.1,0-0.2,0c-0.1,0.1,0.2,0.1,0.3,0.1s0.1,0,0.2,0c0,0-0.1,0-0.1-0.1c0,0,0,0-0.1,0l0,0h0.1c0-0.1-0.1-0.1-0.2-0.1
				C37,48.3,36.9,48.3,36.8,48.3 M36.8,48.1L36.8,48.1C36.8,48.1,36.7,48.1,36.8,48.1C36.8,48.2,36.8,48.1,36.8,48.1 M37.3,48.2
				c0.1,0,0.1,0,0.2,0C37.4,48.2,37.2,48.2,37.3,48.2"/>
		</g>
		<g>
			<path class="st3" d="M45.5,52.5c0.2,0.1,0.3,0,0.5,0.2c0,0,0.1,0.1,0.2,0.2c0.1,0,0.2,0.2,0.3,0.3s0.1,0.1,0.2,0.2
				c0.4,0.5,0.7,0.8,0.9,1.2l-0.1-0.1c-0.1,0,0,0.1,0.1,0.2c0,0.1,0,0.3,0.1,0.3c0-0.1,0-0.3-0.1-0.4c0.2,0.1,0.2,0.3,0.3,0.4
				c-0.1,0,0,0.1-0.1,0c0,0.1,0.1,0.2,0.1,0.2c0.1,0,0-0.2,0.1-0.2l0.1,0.2c-0.2-0.2-0.1,0.1,0,0.2c0,0,0-0.1-0.1-0.1
				c0-0.1,0.2,0.2,0.3,0.3v0.1c0.1,0.1,0.2,0.3,0.2,0.4c-0.2-0.2-0.3-0.4-0.5-0.4c0,0,0,0,0-0.1c-0.1-0.1,0,0-0.1,0
				c-0.1-0.1-0.1-0.2-0.2-0.3c0-0.1,0.1,0.1,0.1,0.1c0.1,0-0.1-0.3-0.2-0.3c-0.1-0.1,0-0.1-0.1-0.2l-0.1-0.1l0.1,0.1V55
				c0,0.1,0.2,0.1,0.2,0.3c-0.3-0.3-0.5-0.6-0.8-0.9c0.1,0,0.2,0,0.2-0.1c-0.1-0.1-0.1-0.1-0.2-0.2c-0.1-0.1,0,0.1-0.1,0.1L46.7,54
				c-0.1,0.1,0,0.1,0.1,0.3c-0.1-0.1-0.3-0.3-0.5-0.5h0.1c-0.1-0.1-0.1-0.1-0.2-0.2c0,0,0,0,0,0.1c-0.2-0.1-0.4-0.4-0.6-0.6
				c0.1,0,0.1,0,0-0.1c0-0.1-0.2-0.1-0.1,0c0,0-0.1-0.1-0.2-0.2C45.5,52.7,45.6,52.6,45.5,52.5"/>
			<path class="st3" d="M47.7,55c0.1,0.2,0.1,0.3-0.2,0.3c0.2,0.3,0.3,0,0.4,0.1c0,0.1,0.4,0.6,0.6,0.5c-0.1-0.2-0.2-0.1-0.3-0.2
				C48.1,55.4,48.1,55.1,47.7,55"/>
			<path class="st3" d="M46.3,53.8c0.2,0.3,0.3,0.3,0.4,0.4c0.1,0.1,0.3,0.4,0.4,0.3c0.1-0.1-0.2-0.3-0.2-0.3
				C46.7,54.1,46.6,53.9,46.3,53.8"/>
			<path class="st3" d="M46.7,53.8c0.1,0,0-0.2-0.1-0.3C46.4,53.5,46.5,53.7,46.7,53.8"/>
			<path class="st3" d="M46,53.5c0.1,0.2,0.2,0.2,0.3,0.2C46.2,53.6,46.2,53.6,46,53.5L46,53.5z"/>
			<path class="st3" d="M45.7,53.4c0.1,0,0.4,0,0.2-0.2C45.8,53.1,45.5,53.2,45.7,53.4"/>
			<path class="st3" d="M44.8,52.7C44.7,52.6,44.7,52.6,44.8,52.7c0.2,0,0.1-0.1,0-0.3C44.6,52.4,44.9,52.6,44.8,52.7"/>
			<path class="st3" d="M26,52.5c0.1-0.2,0.1-0.3,0.3-0.5c0,0,0.1-0.1,0.2-0.1c0.1,0,0.2-0.2,0.4-0.2c0.1-0.1,0.1-0.1,0.2-0.2
				c0.6-0.3,0.9-0.5,1.3-0.7l-0.1,0.1c0,0.1,0.1,0,0.2-0.1c0,0.1,0.3,0,0.3-0.1c-0.1,0-0.3,0-0.4,0c0.1-0.1,0.3-0.1,0.5-0.2
				c-0.1,0.1,0.1,0-0.1,0.1c0.1,0,0.2,0,0.2-0.1s-0.2,0-0.1-0.1l0.2-0.1c-0.3,0.2,0.1,0.1,0.2,0h-0.1c-0.1,0,0.2-0.1,0.3-0.2h0.1
				c0.1-0.1,0.3-0.1,0.5-0.1c-0.2,0.1-0.5,0.2-0.5,0.4c0,0,0,0-0.1,0c-0.1,0.1,0,0,0,0.1c-0.2,0-0.2,0.1-0.3,0.2
				c0-0.1,0.1-0.1,0.2-0.1c0-0.1-0.3,0.1-0.3,0.1c-0.1,0.1-0.1,0-0.2,0.1l-0.1,0.1c0,0.1,0.1-0.1,0.1-0.1c0.1,0,0.1,0,0.1,0
				c0.1,0,0.2-0.1,0.3-0.1c-0.3,0.2-0.7,0.4-1.1,0.6c0-0.1,0-0.2,0-0.2c-0.1,0-0.1,0.1-0.2,0.1c-0.1,0.1,0.1,0,0.1,0.1l-0.2,0.1
				c0,0.1,0.1,0,0.3-0.1c-0.1,0.1-0.4,0.3-0.6,0.4v-0.1c-0.1,0-0.1,0.1-0.2,0.1c0,0,0,0,0.1,0c-0.2,0.2-0.5,0.3-0.7,0.5
				c0-0.1,0-0.1-0.1,0c-0.1,0-0.1,0.2-0.1,0.1c0,0.1-0.2,0.1-0.2,0.1C26.1,52.6,26.1,52.5,26,52.5"/>
			<path class="st3" d="M31.6,55.1c-0.2,0-0.4,0.1-0.7,0c0,0-0.2-0.1-0.3-0.1s-0.4-0.1-0.5-0.2c-0.1-0.1-0.2-0.1-0.3-0.1
				c-0.7-0.5-1.2-0.7-1.6-1c0.1,0,0.1,0,0.2,0.1c0-0.1-0.1-0.1-0.2-0.2c0-0.1-0.2-0.3-0.3-0.3c0.1,0.1,0.1,0.3,0.3,0.4
				c-0.2-0.1-0.3-0.2-0.6-0.4c0.2,0-0.1-0.2,0.2,0c0-0.1-0.2-0.2-0.3-0.2c-0.1,0.1,0.1,0.2,0,0.2l-0.2-0.2c0.3,0.2,0.1-0.2-0.1-0.2
				l0.1,0.1c0.1,0.1-0.3-0.2-0.4-0.2c0,0-0.1-0.1,0-0.1c-0.2-0.1-0.3-0.3-0.4-0.4c0.3,0.1,0.6,0.3,0.8,0.2v0.1
				c0.2,0.1,0-0.1,0.1-0.1c0.2,0.1,0.3,0.1,0.4,0.2c0,0.1-0.1,0-0.2-0.1c-0.2,0.1,0.3,0.3,0.4,0.3c0.2,0.1,0,0.1,0.2,0.2
				c0.1,0,0.1,0,0.2,0c0.1,0-0.2-0.1-0.1-0.1c-0.1,0,0-0.1-0.1-0.1c-0.1-0.1-0.3-0.1-0.4-0.3c0.4,0.3,0.9,0.5,1.4,0.8
				c-0.2,0-0.2,0.1-0.2,0.2c0.1,0.1,0.2,0.1,0.3,0.2c0.2,0.1-0.1-0.1,0.1-0.1l0.2,0.2c0.1-0.1-0.1-0.2-0.3-0.3
				c0.2,0,0.6,0.3,0.8,0.4H30c0.1,0.1,0.2,0.1,0.3,0.1c0,0,0-0.1-0.1-0.1c0.3,0.1,0.7,0.3,1,0.5c-0.1,0-0.1,0,0,0.1s0.3,0,0.2,0
				c0.1,0,0.2,0.1,0.3,0.2C31.6,54.8,31.5,55,31.6,55.1"/>
			<path class="st3" d="M39,48.8c0.2,0,0.3-0.1,0.5-0.1c0,0,0.1,0.1,0.2,0.1c0.1,0,0.3,0,0.4,0.1c0.1,0,0.2,0,0.2,0
				c0.6,0.3,1,0.4,1.3,0.7c0,0-0.1,0-0.2,0c0,0.1,0.1,0.1,0.2,0.1c0,0.1,0.1,0.2,0.2,0.2c-0.1-0.1-0.1-0.2-0.3-0.3
				c0.2,0,0.3,0.2,0.5,0.2c-0.1,0,0.1,0.1-0.1,0c0,0.1,0.2,0.1,0.2,0.1c0-0.1-0.1-0.1,0-0.2l0.2,0.1c-0.3-0.1-0.1,0.1,0.1,0.2
				l-0.1-0.1c-0.1-0.1,0.2,0.1,0.3,0.1c0,0,0.1,0.1,0,0.1c0.2,0,0.3,0.2,0.4,0.3c-0.2-0.1-0.5-0.2-0.6-0.1c0,0,0,0,0-0.1
				c-0.1-0.1,0,0.1-0.1,0.1c-0.1-0.1-0.2-0.1-0.3-0.2c0-0.1,0.1,0,0.2,0.1c0.1-0.1-0.2-0.2-0.3-0.2c-0.1-0.1,0-0.1-0.2-0.2
				c-0.1,0-0.1,0-0.2,0l0.1,0.1c0,0,0,0.1,0.1,0.1s0.2,0.1,0.3,0.2c-0.4-0.2-0.7-0.4-1.1-0.5c0.1,0,0.2-0.1,0.2-0.2
				c-0.1-0.1-0.1,0-0.3-0.1c-0.1,0,0.1,0.1,0,0.1l-0.2-0.1c-0.1,0.1,0.1,0.1,0.2,0.2c-0.2,0-0.4-0.2-0.7-0.2h0.1
				c-0.1-0.1-0.1,0-0.2-0.1c0,0,0,0,0,0.1c-0.2,0-0.5-0.2-0.8-0.3c0.1,0,0.1,0,0-0.1s-0.2,0-0.1,0c0,0-0.2-0.1-0.3-0.1
				C39,49,39.1,48.9,39,48.8"/>
			<path class="st3" d="M35,48.6c0.2-0.1,0.3-0.2,0.5-0.2h0.2c0.1,0,0.3,0,0.4,0c0.1,0,0.2,0,0.3,0c0.6,0.1,1.1,0.1,1.5,0.2
				c0,0-0.1,0-0.2,0c0,0.1,0.1,0,0.2,0.1c0,0.1,0.2,0.2,0.3,0.1c-0.1-0.1-0.2-0.2-0.3-0.2c0.2,0,0.3,0.1,0.5,0.1
				c-0.1,0.1,0.1,0.1-0.1,0.1c0,0,0.2,0.1,0.3,0.1c0-0.1-0.1-0.1-0.1-0.2h0.2c-0.3,0,0,0.1,0.1,0.1h-0.1c-0.1-0.1,0.2,0,0.4,0
				c0,0,0.1,0,0.1,0.1c0.2,0,0.3,0.1,0.4,0.2c-0.2,0-0.5-0.1-0.6,0.1c0,0,0,0-0.1-0.1c-0.1,0,0,0.1,0,0.1c-0.2,0-0.2,0-0.4,0
				c0-0.1,0.1,0,0.2,0c0.1-0.1-0.3-0.1-0.3-0.1c-0.1,0-0.1-0.1-0.2-0.1c-0.1,0-0.1,0-0.2,0h0.1c0.1,0,0,0.1,0.1,0.1s0.2,0,0.3,0.1
				c-0.4,0-0.8-0.1-1.2-0.2c0.1-0.1,0.1-0.1,0.1-0.2c-0.1,0-0.1,0-0.3,0c-0.1,0,0.1,0.1,0,0.1h-0.2c0,0.1,0.1,0.1,0.3,0.1
				c-0.1,0.1-0.5,0-0.7,0c0,0,0.1,0,0.1-0.1c-0.1,0-0.2,0-0.2,0s0,0,0.1,0.1c-0.2,0-0.5,0-0.8,0c0.1,0,0.1,0,0-0.1
				c-0.1,0-0.2,0.1-0.1,0.1c0,0-0.2,0-0.3,0C35.1,48.8,35.1,48.7,35,48.6"/>
			<path class="st3" d="M31.2,49c0.1-0.1,0.2-0.2,0.4-0.3h0.2c0.1,0,0.3-0.1,0.4-0.1c0.1,0,0.2-0.1,0.2-0.1c0.6,0,1.1-0.1,1.5-0.1
				c0,0-0.1,0-0.1,0.1s0.1,0,0.2,0c0,0.1,0.2,0.1,0.3,0.1c-0.1-0.1-0.2-0.1-0.4-0.1c0.2-0.1,0.3,0,0.5,0c-0.1,0.1,0.1,0.1-0.1,0.1
				c0.1,0,0.2,0,0.3,0c0-0.1-0.2-0.1-0.1-0.2h0.2c-0.3,0,0,0.1,0.2,0.1h-0.1c-0.1,0,0.2,0,0.4-0.1c0,0,0.1,0,0.1,0.1
				c0.1-0.1,0.3,0,0.5,0.1c-0.2,0-0.5,0.1-0.6,0.2c0,0,0,0-0.1,0s0,0,0,0.1c-0.2,0-0.2,0-0.4,0c0-0.1,0.1,0,0.2-0.1
				c0.1-0.1-0.3,0-0.4,0c-0.1,0-0.1-0.1-0.3,0c-0.1,0-0.1,0-0.2,0.1c0,0.1,0.1,0,0.1,0c0.1,0,0.1,0,0.1,0c0.1,0,0.2,0,0.4,0
				c-0.4,0-0.8,0.1-1.2,0.1c0.1-0.1,0.1-0.2,0.1-0.2c-0.1,0-0.1,0-0.3,0c-0.1,0,0.1,0,0,0.1H33c0,0.1,0.1,0.1,0.3,0
				C33.2,49,32.8,49,32.6,49c0,0,0.1,0,0.1-0.1c-0.1,0-0.1,0-0.2,0.1c0,0,0,0,0.1,0c-0.2,0.1-0.5,0.1-0.8,0.2c0.1,0,0.1-0.1,0-0.1
				s-0.2,0.1-0.1,0.1c0,0-0.2,0-0.3,0C31.3,49.1,31.3,49,31.2,49"/>
			<path class="st3" d="M27.5,50.9c0.1-0.1,0.1-0.3,0.3-0.4c0,0,0.1-0.1,0.2-0.1c0.1,0,0.2-0.2,0.4-0.2c0.1-0.1,0.1-0.1,0.2-0.2
				c0.6-0.2,1-0.5,1.4-0.6l-0.1,0.1c0,0.1,0.1,0,0.2-0.1c0,0.1,0.3,0,0.3,0c-0.1,0-0.3,0-0.4,0c0.2-0.1,0.3-0.1,0.5-0.2
				c-0.1,0.1,0.1,0-0.1,0.1c0.1,0,0.2,0,0.2-0.1s-0.2,0-0.1-0.1l0.2-0.1c-0.3,0.1,0.1,0.1,0.2,0h-0.1c-0.1,0,0.2-0.1,0.3-0.2h0.1
				c0.1-0.1,0.3-0.1,0.5-0.1c-0.2,0.1-0.5,0.2-0.5,0.4c0,0,0,0-0.1,0c-0.1,0.1,0,0,0,0.1c-0.2,0-0.2,0.1-0.3,0.1
				c0-0.1,0.1-0.1,0.2-0.1c0-0.1-0.3,0.1-0.3,0.1c-0.1,0.1-0.1,0-0.3,0l-0.1,0.1c0,0.1,0.1-0.1,0.1,0c0.1,0,0.1,0,0.1,0
				c0.1,0,0.2-0.1,0.3-0.1c-0.4,0.2-0.7,0.3-1.1,0.5c0-0.1,0-0.2,0-0.2c-0.1,0-0.1,0.1-0.2,0.1c-0.1,0.1,0.1,0,0.1,0.1l-0.2,0.1
				c0,0.1,0.1,0,0.3,0c-0.1,0.1-0.4,0.2-0.6,0.3v-0.1c-0.1,0-0.1,0.1-0.2,0.1c0,0,0,0,0.1,0c-0.2,0.1-0.5,0.3-0.7,0.4
				c0-0.1,0-0.1,0-0.1c-0.1,0-0.2,0.2-0.1,0.1c0,0.1-0.2,0.1-0.2,0.1C27.6,51.1,27.6,50.9,27.5,50.9"/>
			<path class="st3" d="M41.8,49.6c0.2,0,0.3,0,0.5,0c0,0,0.1,0.1,0.2,0.1c0.1,0,0.3,0.1,0.4,0.2C43,50,43.1,50,43.1,50
				c0.5,0.4,0.9,0.6,1.1,1c0,0-0.1,0-0.1-0.1c0,0.1,0.1,0.1,0.1,0.2c0,0.1,0.1,0.2,0.2,0.3c0-0.1-0.1-0.2-0.2-0.3
				c0.2,0.1,0.2,0.2,0.4,0.3c-0.1,0,0,0.1-0.1,0c0,0.1,0.1,0.2,0.2,0.2c0.1,0-0.1-0.1,0-0.2l0.2,0.1c-0.2-0.2-0.1,0.1,0.1,0.2
				l-0.1-0.1c0-0.1,0.2,0.2,0.3,0.2c0,0,0.1,0.1,0,0.1c0.1,0.1,0.2,0.2,0.3,0.4c-0.2-0.1-0.4-0.3-0.6-0.3c0,0,0,0,0-0.1
				c-0.1-0.1,0,0.1-0.1,0s-0.2-0.1-0.3-0.2c0-0.1,0.1,0,0.2,0.1c0.1,0-0.2-0.2-0.3-0.2c-0.1-0.1,0-0.1-0.2-0.2c-0.1,0-0.1,0-0.2-0.1
				l0.1,0.1c0,0,0,0.1,0.1,0.1s0.2,0.1,0.3,0.2c-0.3-0.2-0.6-0.5-1-0.8c0.1,0,0.2-0.1,0.2-0.1c-0.1-0.1-0.1-0.1-0.2-0.2
				c-0.1-0.1,0.1,0.1-0.1,0.1l-0.2-0.1c-0.1,0.1,0,0.1,0.2,0.2c-0.2,0-0.4-0.3-0.6-0.4h0.1c-0.1-0.1-0.1-0.1-0.2-0.1c0,0,0,0,0,0.1
				c-0.2-0.1-0.5-0.3-0.7-0.5c0.1,0,0.1,0,0-0.1s-0.2-0.1-0.1,0C41.9,49.8,41.7,49.7,41.8,49.6C41.8,49.8,41.9,49.8,41.8,49.6"/>
			<path class="st3" d="M43.9,51c0.2,0,0.3,0,0.5,0c0,0,0.1,0.1,0.2,0.1c0.1,0,0.3,0.1,0.4,0.2c0.1,0.1,0.2,0.1,0.2,0.1
				c0.5,0.4,0.9,0.6,1.1,0.9c0,0-0.1,0-0.1-0.1c0,0.1,0.1,0.1,0.2,0.2c0,0.1,0.1,0.2,0.2,0.3c0-0.1-0.1-0.2-0.2-0.3
				c0.2,0.1,0.2,0.2,0.4,0.3c-0.1,0,0,0.1-0.1,0c0,0.1,0.1,0.2,0.2,0.2c0.1,0-0.1-0.1,0-0.2l0.2,0.1c-0.2-0.2-0.1,0.1,0.1,0.2
				l-0.1-0.1c0-0.1,0.2,0.2,0.3,0.2c0,0,0.1,0.1,0,0.1c0.2,0.1,0.2,0.2,0.3,0.4c-0.2-0.1-0.4-0.3-0.6-0.3c0,0,0,0,0-0.1
				c-0.1-0.1,0,0.1-0.1,0s-0.2-0.1-0.3-0.2c0-0.1,0.1,0,0.2,0.1c0.1,0-0.2-0.2-0.3-0.2c-0.1-0.1,0-0.1-0.2-0.2c-0.1,0-0.1,0-0.2-0.1
				l0.1,0.1c0,0,0,0.1,0.1,0.1s0.2,0.1,0.3,0.2c-0.3-0.2-0.6-0.5-1-0.7c0.1,0,0.2-0.1,0.2-0.1c-0.1-0.1-0.1-0.1-0.2-0.2
				c-0.1-0.1,0.1,0.1-0.1,0.1L45.4,52c-0.1,0.1,0,0.1,0.2,0.2c-0.2,0-0.4-0.3-0.6-0.4h0.1c-0.1-0.1-0.1-0.1-0.2-0.1c0,0,0,0,0,0.1
				c-0.2-0.1-0.5-0.3-0.7-0.4c0.1,0,0.1,0,0-0.1s-0.2-0.1-0.1,0C44.1,51.3,43.9,51.2,43.9,51C43.8,51.2,43.9,51.1,43.9,51"/>
		</g>
		<path class="st2" d="M47.7,54.3c0.1,0.2,0.2,0.4,0.4,0.7c0.4,0.7-0.4-0.2-0.8-0.9c-0.2-0.4-0.4-0.7-0.6-0.9
			C46.5,52.8,47.5,53.9,47.7,54.3L47.7,54.3z"/>
		<path class="st2" d="M48.8,55.5c0.1,0.2,0.2,0.4,0.4,0.7c0.5,0.6-0.4-0.2-0.9-0.8c-0.3-0.4-0.5-0.7-0.6-0.9
			C47.5,54.1,48.6,55.1,48.8,55.5L48.8,55.5z"/>
	</g>
</g>
</svg>
