<?xml version="1.0" encoding="utf-8"?>
<!-- Generator: Adobe Illustrator 25.2.0, SVG Export Plug-In . SVG Version: 6.00 Build 0)  -->
<svg version="1.1" xmlns="http://www.w3.org/2000/svg" xmlns:xlink="http://www.w3.org/1999/xlink" x="0px" y="0px"
	 viewBox="0 0 122.3 122.3" style="enable-background:new 0 0 122.3 122.3;" xml:space="preserve">
<style type="text/css">
	.st0{display:none;}
	.st1{display:inline;fill:#E4E5E5;}
	.st2{display:inline;fill:#FFFFFF;}
	.st3{display:inline;}
	.st4{fill:none;stroke:#0762AC;stroke-width:2;stroke-linecap:round;stroke-linejoin:round;stroke-miterlimit:10;}
	.st5{fill:#0762AC;}
	.st6{display:inline;fill:none;}
	.st7{display:inline;fill:#0762AC;}
	.st8{fill:#FFFFFF;stroke:#0762AC;stroke-width:2;stroke-linecap:round;stroke-linejoin:round;stroke-miterlimit:10;}
	.st9{fill:#E4E5E5;}
	.st10{fill:#FFFFFF;}
	.st11{fill:none;}
</style>
<g id="Layer_1" class="st0">
	<circle class="st1" cx="79" cy="64.1" r="35.8"/>
	<path class="st2" d="M96,51.4c-0.6-1.5-2.2-4.5-6.6-5c-5.8-0.7-8.5,0-8.5,0s-1.1-2.9-5.1-5.8c-7.5-5.4-16.3,0.7-16.3,0.7
		s-5.4-4.8-12.3-2c-6.8,2.7-6.8,7.8-6.8,7.8s-5.1-2.7-10.9-0.3c-2.6,1.1-3.2,2.9-3.1,4.7h-4.1v5.7H26c3.3,7,11.3,19,27.8,22.2h-5.7
		v4.3h26.3v-4.3H71c16.2-3.2,23.2-15.2,25.9-22.2h3.3v-5.7H96C96,51.5,96,51.4,96,51.4z"/>
	<g class="st3">
		<g>
			<path class="st4" d="M89.5,46.8c-5.8-0.7-8.5,0-8.5,0s-1.1-2.9-5.1-5.8c-7.5-5.4-16.3,0.7-16.3,0.7s-5.4-4.8-12.3-2
				c-6.8,2.7-6.8,7.8-6.8,7.8s-5.1-2.7-10.9-0.3c-2.6,1.1-3.2,2.9-3.1,4.7h69.6C95.5,50.3,93.9,47.3,89.5,46.8z"/>
			<path class="st4" d="M26.2,57.4c3.3,7,11.3,19,27.8,22.2h17.2c16.2-3.2,23.2-15.2,25.9-22.2H26.2z"/>
			<polygon class="st4" points="100.4,51.7 96.1,51.7 26.5,51.7 22.5,51.7 22.5,57.4 26.2,57.4 97.1,57.4 100.4,57.4 			"/>
			<polygon class="st4" points="48.3,79.6 48.3,84 74.6,84 74.6,79.6 71.2,79.6 54,79.6 			"/>
		</g>
		<path class="st4" d="M62.3,45c0,0,4.2-3.2,9.8-1c3.9,1.5,5.5,5.4,5.5,5.4"/>
	</g>
	<g class="st3">
		<circle class="st5" cx="97.7" cy="75.2" r="1.9"/>
		<g>
			<path class="st5" d="M89.9,87.9c-2.6,0-4.8-2.1-4.8-4.8c0-2.7,2.1-4.8,4.8-4.8c2.6,0,4.8,2.1,4.8,4.8
				C94.7,85.8,92.5,87.9,89.9,87.9z M89.9,80.2c-1.6,0-2.9,1.3-2.9,2.9c0,1.6,1.3,2.9,2.9,2.9s2.9-1.3,2.9-2.9
				C92.8,81.5,91.5,80.2,89.9,80.2z"/>
		</g>
	</g>
	<rect x="19.4" y="27.7" class="st6" width="97.8" height="86.2"/>
</g>
<g id="Layer_2" class="st0">
	<ellipse class="st1" cx="46.4" cy="47.1" rx="35.8" ry="35.8"/>
	<circle class="st7" cx="35.1" cy="36.5" r="1.9"/>
	<g class="st3">
		<path class="st5" d="M25.5,47.6c-2.6,0-4.8-2.1-4.8-4.8s2.1-4.8,4.8-4.8s4.8,2.1,4.8,4.8C30.3,45.5,28.1,47.6,25.5,47.6z
			 M25.5,39.9c-1.6,0-2.9,1.3-2.9,2.9s1.3,2.9,2.9,2.9s2.9-1.3,2.9-2.9S27.1,39.9,25.5,39.9z"/>
	</g>
	<polygon class="st2" points="29,53.5 60.7,32 94,53.8 91.7,58.6 87.9,57.6 88.6,87.2 91.3,86.5 92,91.3 31,90.2 31,85.8 34.1,85.5 
		34.1,60.6 35.1,56.9 31.4,58.6 	"/>
	<g class="st3">
		<path class="st8" d="M88.6,86.3v-29 M65.1,86.3V63h12.6v23.3 M34.1,57.7v28.6 M57.6,77.9H42V63h15.6C57.6,63,57.6,77.9,57.6,77.9z
			"/>
		<rect x="42" y="63" class="st8" width="15.6" height="14.9"/>
		<polygon class="st8" points="86.9,55.9 91.9,59.2 95.3,54.1 61.3,31.4 27.4,53.6 30.8,59.5 36.7,55.5 61.4,39 		"/>
		<polygon class="st8" points="65.3,86.5 34.7,86.5 30.5,86.5 30.5,90.8 92.2,90.8 92.2,86.5 88,86.5 78.7,86.5 		"/>
	</g>
</g>
<g id="Layer_3">
	<circle class="st9" cx="85.4" cy="55.5" r="35.8"/>
	<circle class="st5" cx="112.4" cy="52.1" r="1.9"/>
	<g>
		<path class="st5" d="M108.1,48.2c-2.6,0-4.8-2.1-4.8-4.8c0-2.6,2.1-4.8,4.8-4.8s4.8,2.1,4.8,4.8C112.9,46,110.8,48.2,108.1,48.2z
			 M108.1,40.5c-1.6,0-2.9,1.3-2.9,2.9c0,1.6,1.3,2.9,2.9,2.9s2.9-1.3,2.9-2.9C111,41.8,109.7,40.5,108.1,40.5z"/>
	</g>
	<path class="st10" d="M52.6,82.3c0,0-0.3,5.4,2.1,7.4c0,0,2.6,2.4,10,1.5c0,0,5.4-1.6,5.2-6.6l0.3-8.4l8.6-2c0,0-0.1,3.1,4.5,3.8
		c0,0,2.7-0.6,3.5-3.3c0,0,1.7,2.2,4.7,0.6c0,0,2.4-1.3,0.3-9.8l6.7-0.8c0,0-1.5,4.5,2.1,5c0,0,0.6,0.3,1.3-1.3c0,0,2.4,2.2,3.6-0.3
		c0,0,0.6-2.4,0-4.2l-34.4,3.6l-5.4-0.4l-1.9,5.4l-49.4-0.3l-0.1,9.5h2.8c0,0-1.5,7.9,4,9.1c0,0,7,1.1,8.8-3.3s0.7-6.1,0.7-6.1
		L52.6,82.3z"/>
	<path class="st10" d="M106.4,54.1L80.5,32.6l-37.1-0.7l0.7,6.5l-8.9,0.3l-3.7,11.9L25,51.3l-1,8.5c-9.9,3.1-9.5,13.3-9.5,13.3V82
		l50.1,1L66,66.7l40.9-3.1L106.4,54.1z"/>
	<g>
		<polygon class="st4" points="43,37.5 43,31.3 80.8,31.3 80.8,66.3 71.6,67.2 71.6,37.5 		"/>
		<polygon class="st4" points="106.9,54.1 106.9,63.9 80.8,66.3 80.8,31.3 		"/>
		<polyline class="st4" points="43,37.5 34.1,37.5 31.1,50.6 60.3,50.6 63.3,37.8 		"/>
		<rect x="24.4" y="50.6" class="st4" width="24.5" height="21.5"/>
		<rect x="14.4" y="72.2" class="st4" width="49.7" height="10.2"/>
		<path class="st4" d="M50.8,71.7c0.4-6.6,5.2-11.8,11.1-11.8c4.5,0,8.3,3,10.1,7.3"/>
		<path class="st4" d="M24,60c-5.4,0.8-9.6,6.1-9.6,12.6"/>
		<polyline class="st4" points="63.9,71.7 64.9,67.2 71.6,67.2 		"/>
		<line class="st4" x1="60.4" y1="58.7" x2="60.4" y2="51.2"/>
		<path class="st4" d="M65.8,67.6c3.1,0.9,4.3,5.3,4.3,10.7v2c0,6-1,10.8-7.3,10.8H61c-5,0-8.2-1.3-8.2-7.3"/>
		<path class="st4" d="M31.4,82.5c0,4.8-1,8.6-7.3,8.6l0,0c-6.4,0-7.3-3.9-7.3-8.6"/>
		<path class="st4" d="M85,66.2c1.3,0.4,1.9,3.6,1.9,5.9V73c0,2.6-1.7,4.7-3.9,4.7c-2.2,0-3.9-0.9-3.9-3.5"/>
		<path class="st4" d="M91.3,65.8c1.2,0.3,1.7,3.2,1.7,5.3v0.8c0,2.3-1.5,4.2-3.5,4.2c-1.2,0-2.3-0.3-2.9-1.1"/>
		<path class="st4" d="M101.1,64.9c0.7,0.7,0.8,1.7,0.8,2.6v0.4c-0.1,1.1-0.9,1.9-2,1.8c-2.2-0.1-1.8-3.3-1.7-4.3"/>
		<path class="st4" d="M105,64.8c0.5,0.4,0.6,1.6,0.5,2.4v0.3c0,0.9-0.8,1.7-1.8,1.6c-0.6,0-1.1-0.2-1.4-0.5"/>
		<path class="st4" d="M78.9,66.7c0,0,0.7,0.2,1.1,2.5c0.3,2.3-0.8,4.9-0.8,4.9L70.7,76"/>
		<path class="st4" d="M81,84.2"/>
		<path class="st4" d="M71.6,37.5"/>
		<path class="st4" d="M25,83.8c0,0-0.5,2.4,1.4,3.7"/>
		<path class="st4" d="M63.6,83.8c0,0-0.5,2.4,1.4,3.7"/>
		<line class="st4" x1="45.4" y1="55" x2="27.6" y2="55"/>
		<line class="st4" x1="45.4" y1="59.3" x2="27.6" y2="59.3"/>
		<line class="st4" x1="45.4" y1="63.3" x2="27.6" y2="63.3"/>
		<line class="st4" x1="45.4" y1="67.4" x2="27.6" y2="67.4"/>
	</g>
	<rect x="10.7" y="21.2" class="st11" width="122.2" height="86.2"/>
</g>
</svg>
